<?xml version="1.0" encoding="utf-8"?>
<!-- Generator: Adobe Illustrator 17.0.0, SVG Export Plug-In . SVG Version: 6.00 Build 0)  -->
<!DOCTYPE svg PUBLIC "-//W3C//DTD SVG 1.1//EN" "http://www.w3.org/Graphics/SVG/1.1/DTD/svg11.dtd">
<svg version="1.1" id="Layer_1" xmlns="http://www.w3.org/2000/svg" xmlns:xlink="http://www.w3.org/1999/xlink" x="0px" y="0px"
	 width="40px" height="40px" viewBox="0 0 40 40" enable-background="new 0 0 40 40" xml:space="preserve">
<path fill="#262626" d="M34.142,34.142C37.763,30.52,40,25.526,40,20c0-5.526-2.237-10.521-5.858-14.141C30.521,2.237,25.526,0,20,0
	c-4.269,0-8.212,1.345-11.458,3.622L0.186,0.214l3.16,8.718C1.235,12.101,0,15.903,0,20c0,5.526,2.237,10.52,5.859,14.142
	C9.48,37.763,14.474,40,20,40C25.526,40,30.521,37.763,34.142,34.142z M6.966,33.034C3.621,29.701,1.562,25.095,1.562,20
	c0-3.67,1.082-7.077,2.929-9.947c0.222-0.345,0.46-0.679,0.704-1.008L3.089,3.234L8.64,5.499c0.296-0.233,0.594-0.463,0.905-0.678
	C12.515,2.767,16.113,1.561,20,1.561c5.094,0,9.701,2.06,13.034,5.404c3.344,3.334,5.404,7.94,5.404,13.035
	c0,5.094-2.06,9.701-5.404,13.034c-3.333,3.344-7.94,5.404-13.034,5.404C14.906,38.438,10.299,36.379,6.966,33.034z"/>
<path fill-rule="evenodd" clip-rule="evenodd" fill="#262626" d="M21.528,15.908v-1.639c0-0.786,0.52-0.974,0.897-0.974
	c0.365,0,2.292,0,2.292,0v-3.5h-3.156c-3.51,0-4.297,2.591-4.297,4.275v1.838h-2.038v2.47v1.617h2.06c0,4.64,0,10.211,0,10.211
	h4.087c0,0,0-5.648,0-10.211h3.023l0.133-1.606l0.244-2.481H21.528z"/>
</svg>
