<?xml version="1.0" encoding="utf-8"?>
<!-- Generator: Adobe Illustrator 17.0.0, SVG Export Plug-In . SVG Version: 6.00 Build 0)  -->
<!DOCTYPE svg PUBLIC "-//W3C//DTD SVG 1.1//EN" "http://www.w3.org/Graphics/SVG/1.1/DTD/svg11.dtd">
<svg version="1.1" id="Layer_1" xmlns="http://www.w3.org/2000/svg" xmlns:xlink="http://www.w3.org/1999/xlink" x="0px" y="0px"
	 width="40px" height="40px" viewBox="0 0 40 40" enable-background="new 0 0 40 40" xml:space="preserve">
<path fill="#262626" d="M5.858,34.142C9.48,37.763,14.474,40,20,40c5.526,0,10.521-2.237,14.141-5.858
	C37.763,30.521,40,25.526,40,20c0-4.269-1.345-8.212-3.622-11.458l3.408-8.356l-8.718,3.16C27.899,1.235,24.097,0,20,0
	C14.474,0,9.48,2.237,5.858,5.859C2.237,9.48,0,14.474,0,20C0,25.526,2.237,30.521,5.858,34.142z M6.966,6.966
	C10.299,3.621,14.905,1.562,20,1.562c3.67,0,7.077,1.082,9.947,2.929c0.345,0.222,0.679,0.46,1.008,0.704l5.811-2.107L34.501,8.64
	c0.233,0.296,0.463,0.594,0.678,0.905c2.054,2.97,3.259,6.568,3.259,10.455c0,5.094-2.06,9.701-5.404,13.034
	c-3.334,3.344-7.94,5.404-13.035,5.404c-5.094,0-9.701-2.06-13.034-5.404C3.621,29.701,1.562,25.094,1.562,20
	C1.562,14.906,3.621,10.299,6.966,6.966z"/>
<path fill-rule="evenodd" clip-rule="evenodd" fill="#262626" d="M30.207,13.772c-0.742,0.321-1.55,0.543-2.402,0.653
	c0.874-0.52,1.538-1.317,1.849-2.292c-0.808,0.476-1.716,0.819-2.668,1.007c-0.754-0.808-1.849-1.306-3.067-1.306
	c-2.303,0-4.185,1.849-4.185,4.118c0,0.332,0.056,0.642,0.122,0.941c-3.487-0.166-6.576-1.805-8.636-4.307
	c-0.354,0.62-0.575,1.318-0.575,2.07c0,1.439,0.753,2.701,1.86,3.432c-0.686-0.011-1.328-0.2-1.893-0.509c0,0.022,0,0.033,0,0.055
	c0,0.531,0.1,1.019,0.287,1.483c0.51,1.296,1.672,2.27,3.078,2.547c-0.366,0.1-0.72,0.155-1.107,0.155
	c-0.266,0-0.532-0.033-0.787-0.088c0.543,1.639,2.082,2.834,3.909,2.879c-1.44,1.107-3.233,1.76-5.193,1.76
	c-0.343,0-0.664-0.022-1.007-0.055c1.86,1.163,4.063,1.849,6.421,1.849c6.543,0,10.584-4.528,11.635-9.234
	c0.189-0.841,0.277-1.672,0.277-2.491c0-0.177,0-0.365,0-0.532C28.934,15.322,29.654,14.591,30.207,13.772L30.207,13.772z"/>
</svg>
