<?xml version="1.0" encoding="utf-8"?>
<!-- Generator: Adobe Illustrator 17.0.0, SVG Export Plug-In . SVG Version: 6.00 Build 0)  -->
<!DOCTYPE svg PUBLIC "-//W3C//DTD SVG 1.1//EN" "http://www.w3.org/Graphics/SVG/1.1/DTD/svg11.dtd">
<svg version="1.1" id="Layer_1" xmlns="http://www.w3.org/2000/svg" xmlns:xlink="http://www.w3.org/1999/xlink" x="0px" y="0px"
	 width="40px" height="40px" viewBox="0 0 40 40" enable-background="new 0 0 40 40" xml:space="preserve">
<path fill-rule="evenodd" clip-rule="evenodd" fill="#262626" d="M10.975,20.188v8.837h4.208v-9.557v-2.481h-4.208V20.188z
	 M28.926,20.686c-0.277-2.281-1.318-3.699-4.397-3.699c-1.805,0-3.023,0.665-3.532,1.628h-0.056v-1.628h-3.356v2.314v9.723h3.511
	v-5.969c0-1.573,0.31-3.09,2.238-3.09c1.937,0,2.081,1.794,2.081,3.2v5.858h3.611v-6.611C29.025,21.794,28.992,21.218,28.926,20.686
	L28.926,20.686z M13.079,10.974c-1.163,0-2.104,0.941-2.104,2.104s0.942,2.104,2.104,2.104c1.163,0,2.104-0.941,2.104-2.104
	S14.242,10.974,13.079,10.974L13.079,10.974z"/>
<path fill="#262626" d="M34.142,5.858C30.52,2.237,25.526,0,20,0C14.474,0,9.48,2.237,5.859,5.858C2.237,9.479,0,14.474,0,20
	c0,4.269,1.345,8.212,3.622,11.458l-3.408,8.356l8.718-3.16C12.101,38.765,15.903,40,20,40c5.526,0,10.52-2.237,14.142-5.859
	C37.763,30.52,40,25.526,40,20C40,14.474,37.763,9.479,34.142,5.858z M33.034,33.034c-3.334,3.345-7.94,5.404-13.034,5.404
	c-3.67,0-7.077-1.082-9.947-2.929c-0.345-0.222-0.679-0.46-1.008-0.704l-5.811,2.107l2.264-5.552
	c-0.233-0.296-0.463-0.594-0.678-0.905C2.767,27.485,1.562,23.887,1.562,20c0-5.094,2.06-9.701,5.404-13.034
	C10.299,3.621,14.905,1.562,20,1.562c5.094,0,9.701,2.06,13.034,5.404c3.344,3.333,5.404,7.94,5.404,13.034
	C38.438,25.094,36.379,29.701,33.034,33.034z"/>
</svg>
