<?xml version="1.0" encoding="utf-8"?>
<!-- Generator: Adobe Illustrator 17.0.0, SVG Export Plug-In . SVG Version: 6.00 Build 0)  -->
<!DOCTYPE svg PUBLIC "-//W3C//DTD SVG 1.1//EN" "http://www.w3.org/Graphics/SVG/1.1/DTD/svg11.dtd">
<svg version="1.1" id="Layer_1" xmlns="http://www.w3.org/2000/svg" xmlns:xlink="http://www.w3.org/1999/xlink" x="0px" y="0px"
	 width="40px" height="40px" viewBox="0 0 40 40" enable-background="new 0 0 40 40" xml:space="preserve">
<path fill="#262626" d="M5.858,5.858C2.237,9.48,0,14.474,0,20c0,5.526,2.237,10.521,5.858,14.141C9.479,37.763,14.474,40,20,40
	c4.269,0,8.212-1.345,11.458-3.622l8.356,3.408l-3.16-8.718C38.765,27.899,40,24.097,40,20c0-5.526-2.237-10.52-5.859-14.142
	C30.52,2.237,25.526,0,20,0C14.474,0,9.479,2.237,5.858,5.858z M33.034,6.966c3.345,3.334,5.404,7.94,5.404,13.034
	c0,3.67-1.082,7.077-2.929,9.947c-0.222,0.345-0.46,0.679-0.704,1.008l2.107,5.811l-5.552-2.264
	c-0.296,0.233-0.594,0.463-0.905,0.678c-2.97,2.054-6.568,3.259-10.455,3.259c-5.094,0-9.701-2.06-13.034-5.404
	C3.621,29.701,1.562,25.095,1.562,20c0-5.094,2.06-9.701,5.404-13.034C10.299,3.621,14.906,1.562,20,1.562
	C25.094,1.562,29.701,3.621,33.034,6.966z"/>
<path fill="#262626" d="M27.031,11.837c0,0-15.439,5.919-17.362,6.708c-1.924,0.789-0.444,1.381-0.444,1.381l4.686,1.479
	l10.704-6.609c0,0,1.085-0.444,0.345,0.246c-0.74,0.691-8.286,7.651-8.286,7.651l-0.289,4.631c0.228-0.027,0.437-0.099,0.437-0.099
	l2.504-2.543c1.574,1.184,3.427,2.589,4.302,3.283c1.677,1.332,1.973-0.69,1.973-0.69s2.664-12.331,3.009-14.398
	C28.955,10.81,27.031,11.837,27.031,11.837z"/>
</svg>
