<?xml version="1.0" encoding="utf-8"?>
<!-- Generator: Adobe Illustrator 17.0.0, SVG Export Plug-In . SVG Version: 6.00 Build 0)  -->
<!DOCTYPE svg PUBLIC "-//W3C//DTD SVG 1.1//EN" "http://www.w3.org/Graphics/SVG/1.1/DTD/svg11.dtd">
<svg version="1.1" id="Layer_1" xmlns="http://www.w3.org/2000/svg" xmlns:xlink="http://www.w3.org/1999/xlink" x="0px" y="0px"
	 width="50px" height="50px" viewBox="0 0 50 50" enable-background="new 0 0 50 50" xml:space="preserve">
<g>
	<path fill="#262626" d="M25,0.007c6.906,0,13.147,2.795,17.673,7.321c4.525,4.526,7.321,10.767,7.321,17.672
		c0,6.906-2.796,13.147-7.321,17.672C38.147,47.198,31.905,49.993,25,49.993c-6.906,0-13.147-2.795-17.672-7.321
		C2.802,38.147,0.007,31.906,0.007,25c0-6.906,2.796-13.147,7.321-17.672C11.853,2.802,18.094,0.007,25,0.007L25,0.007z
		 M41.302,8.712C37.123,4.546,31.366,1.958,25,1.958c-6.366,0-12.123,2.588-16.288,6.754C4.546,12.877,1.958,18.634,1.958,25
		c0,6.366,2.588,12.123,6.753,16.302c4.166,4.166,9.923,6.74,16.288,6.74c6.366,0,12.123-2.574,16.302-6.74
		c4.166-4.179,6.74-9.936,6.74-16.302C48.042,18.634,45.468,12.877,41.302,8.712L41.302,8.712z"/>
	<path fill-rule="evenodd" clip-rule="evenodd" fill="#262626" d="M26.91,19.893v-2.048c0-0.983,0.65-1.218,1.121-1.218
		c0.456,0,2.865,0,2.865,0v-4.373h-3.944c-4.387,0-5.369,3.238-5.369,5.342v2.297h-2.547v3.086V25h2.574c0,5.798,0,12.76,0,12.76
		h5.107c0,0,0-7.058,0-12.76h3.778l0.166-2.007l0.304-3.1H26.91z"/>
</g>
</svg>
