<?xml version="1.0" encoding="utf-8"?>
<!-- Generator: Adobe Illustrator 17.0.0, SVG Export Plug-In . SVG Version: 6.00 Build 0)  -->
<!DOCTYPE svg PUBLIC "-//W3C//DTD SVG 1.1//EN" "http://www.w3.org/Graphics/SVG/1.1/DTD/svg11.dtd">
<svg version="1.1" id="Layer_1" xmlns="http://www.w3.org/2000/svg" xmlns:xlink="http://www.w3.org/1999/xlink" x="0px" y="0px"
	 width="50px" height="50px" viewBox="0 0 50 50" enable-background="new 0 0 50 50" xml:space="preserve">
<g>
	<path fill="#262626" d="M25,0.007c6.906,0,13.147,2.795,17.673,7.321c4.525,4.526,7.321,10.767,7.321,17.672
		c0,6.906-2.796,13.147-7.321,17.672C38.147,47.198,31.905,49.993,25,49.993c-6.906,0-13.147-2.795-17.672-7.321
		C2.802,38.147,0.007,31.906,0.007,25c0-6.906,2.796-13.147,7.321-17.672C11.853,2.802,18.094,0.007,25,0.007L25,0.007z
		 M41.302,8.712C37.123,4.546,31.366,1.958,25,1.958c-6.366,0-12.123,2.588-16.288,6.754C4.546,12.877,1.958,18.634,1.958,25
		c0,6.366,2.588,12.123,6.753,16.302c4.166,4.166,9.923,6.74,16.288,6.74c6.366,0,12.123-2.574,16.302-6.74
		c4.166-4.179,6.74-9.936,6.74-16.302C48.042,18.634,45.468,12.877,41.302,8.712L41.302,8.712z"/>
	<g>
		<path fill="#262626" d="M32.739,14.062H17.261c-1.767,0-3.199,1.432-3.199,3.199v15.479c0,1.767,1.432,3.199,3.199,3.199h15.479
			c1.767,0,3.199-1.432,3.199-3.199V17.261C35.938,15.494,34.506,14.062,32.739,14.062z M25,32.206c-3.98,0-7.206-3.226-7.206-7.206
			S21.02,17.794,25,17.794S32.206,21.02,32.206,25S28.98,32.206,25,32.206z M32.361,19.208c-0.875,0-1.585-0.709-1.585-1.585
			c0-0.875,0.71-1.585,1.585-1.585c0.875,0,1.585,0.709,1.585,1.585C33.946,18.498,33.236,19.208,32.361,19.208z"/>
		<path fill="#262626" d="M25,20.636c-2.406,0-4.364,1.958-4.364,4.364s1.958,4.364,4.364,4.364c2.406,0,4.364-1.958,4.364-4.364
			S27.406,20.636,25,20.636z"/>
	</g>
</g>
</svg>
