<?xml version="1.0" encoding="utf-8"?>
<!-- Generator: Adobe Illustrator 17.0.0, SVG Export Plug-In . SVG Version: 6.00 Build 0)  -->
<!DOCTYPE svg PUBLIC "-//W3C//DTD SVG 1.1//EN" "http://www.w3.org/Graphics/SVG/1.1/DTD/svg11.dtd">
<svg version="1.1" id="Layer_1" xmlns="http://www.w3.org/2000/svg" xmlns:xlink="http://www.w3.org/1999/xlink" x="0px" y="0px"
	 width="50px" height="50px" viewBox="0 0 50 50" enable-background="new 0 0 50 50" xml:space="preserve">
<g>
	<path fill="#262626" d="M25,0c6.906,0,13.147,2.795,17.673,7.321c4.525,4.526,7.321,10.767,7.321,17.672
		c0,6.906-2.796,13.147-7.321,17.672C38.147,47.191,31.905,49.986,25,49.986c-6.906,0-13.147-2.795-17.672-7.321
		C2.802,38.14,0.007,31.899,0.007,24.993c0-6.906,2.796-13.147,7.321-17.672C11.853,2.795,18.094,0,25,0L25,0z M41.302,8.705
		C37.123,4.539,31.366,1.951,25,1.951c-6.366,0-12.123,2.588-16.288,6.754c-4.166,4.166-6.753,9.923-6.753,16.288
		c0,6.366,2.588,12.123,6.753,16.302c4.166,4.166,9.923,6.74,16.288,6.74c6.366,0,12.123-2.574,16.302-6.74
		c4.166-4.179,6.74-9.936,6.74-16.302C48.042,18.627,45.468,12.87,41.302,8.705L41.302,8.705z"/>
	<path fill="#262626" d="M34.654,14.557c0,0-19.735,7.566-22.193,8.574c-2.459,1.009-0.567,1.765-0.567,1.765l5.99,1.891
		l13.682-8.448c0,0,1.387-0.568,0.441,0.315c-0.946,0.883-10.592,9.78-10.592,9.78l-0.37,5.919c0.292-0.034,0.559-0.126,0.559-0.126
		l3.201-3.251c2.012,1.514,4.381,3.309,5.499,4.196c2.144,1.703,2.522-0.882,2.522-0.882s3.405-15.762,3.846-18.404
		C37.113,13.245,34.654,14.557,34.654,14.557z"/>
</g>
</svg>
