<?xml version="1.0" encoding="utf-8"?>
<!-- Generator: Adobe Illustrator 17.0.0, SVG Export Plug-In . SVG Version: 6.00 Build 0)  -->
<!DOCTYPE svg PUBLIC "-//W3C//DTD SVG 1.1//EN" "http://www.w3.org/Graphics/SVG/1.1/DTD/svg11.dtd">
<svg version="1.1" id="Layer_1" xmlns="http://www.w3.org/2000/svg" xmlns:xlink="http://www.w3.org/1999/xlink" x="0px" y="0px"
	 width="50px" height="50px" viewBox="0 0 50 50" enable-background="new 0 0 50 50" xml:space="preserve">
<g>
	<path fill="#262626" d="M25,0c6.906,0,13.147,2.809,17.673,7.321c4.525,4.526,7.321,10.781,7.321,17.687
		c0,6.891-2.795,13.147-7.321,17.672C38.147,47.191,31.906,50,25,50c-6.906,0-13.147-2.809-17.672-7.321
		c-4.526-4.525-7.322-10.781-7.322-17.672c0-6.906,2.795-13.161,7.322-17.687C11.853,2.809,18.094,0,25,0L25,0z M41.289,8.705
		C37.123,4.539,31.367,1.965,25,1.965c-6.367,0-12.123,2.574-16.289,6.74c-4.179,4.166-6.753,9.936-6.753,16.302
		c0,6.352,2.574,12.123,6.753,16.288c4.166,4.165,9.922,6.753,16.289,6.753c6.366,0,12.122-2.588,16.288-6.753
		c4.179-4.166,6.753-9.937,6.753-16.288C48.042,18.641,45.468,12.87,41.289,8.705L41.289,8.705z"/>
	<path fill-rule="evenodd" clip-rule="evenodd" fill="#262626" d="M37.76,17.215c-0.928,0.402-1.937,0.679-3.003,0.817
		c1.093-0.65,1.923-1.647,2.311-2.865c-1.01,0.595-2.145,1.024-3.335,1.259c-0.942-1.01-2.311-1.633-3.834-1.633
		c-2.879,0-5.232,2.311-5.232,5.148c0,0.415,0.07,0.803,0.153,1.177c-4.359-0.208-8.221-2.256-10.795-5.384
		c-0.443,0.775-0.719,1.647-0.719,2.588c0,1.799,0.941,3.377,2.325,4.29c-0.858-0.014-1.661-0.249-2.366-0.637
		c0,0.028,0,0.042,0,0.069c0,0.664,0.125,1.273,0.359,1.854c0.637,1.62,2.09,2.837,3.848,3.183c-0.457,0.125-0.9,0.193-1.384,0.193
		c-0.332,0-0.664-0.041-0.983-0.11c0.679,2.048,2.602,3.543,4.886,3.598c-1.8,1.384-4.041,2.2-6.491,2.2
		c-0.429,0-0.83-0.028-1.259-0.069c2.325,1.453,5.078,2.311,8.026,2.311c8.179,0,13.23-5.661,14.544-11.542
		c0.236-1.051,0.346-2.089,0.346-3.113c0-0.222,0-0.456,0-0.664C36.168,19.153,37.068,18.239,37.76,17.215L37.76,17.215z"/>
</g>
</svg>
