<?xml version="1.0" encoding="utf-8"?>
<!-- Generator: Adobe Illustrator 17.0.0, SVG Export Plug-In . SVG Version: 6.00 Build 0)  -->
<!DOCTYPE svg PUBLIC "-//W3C//DTD SVG 1.1//EN" "http://www.w3.org/Graphics/SVG/1.1/DTD/svg11.dtd">
<svg version="1.1" id="Layer_1" xmlns="http://www.w3.org/2000/svg" xmlns:xlink="http://www.w3.org/1999/xlink" x="0px" y="0px"
	 width="50px" height="50px" viewBox="0 0 50 50" enable-background="new 0 0 50 50" xml:space="preserve">
<g>
	<path fill="#262626" d="M25,0c6.906,0,13.147,2.809,17.673,7.321c4.525,4.526,7.321,10.781,7.321,17.687
		c0,6.891-2.796,13.147-7.321,17.672C38.147,47.191,31.906,50,25,50s-13.147-2.809-17.673-7.321
		c-4.525-4.525-7.321-10.781-7.321-17.672c0-6.906,2.796-13.161,7.321-17.687C11.853,2.809,18.094,0,25,0L25,0z M41.289,8.705
		C37.123,4.539,31.366,1.965,25,1.965S12.877,4.539,8.711,8.705c-4.178,4.166-6.753,9.936-6.753,16.302
		c0,6.352,2.574,12.123,6.753,16.288c4.166,4.165,9.923,6.753,16.289,6.753s12.123-2.588,16.289-6.753
		c4.179-4.166,6.752-9.937,6.752-16.288C48.041,18.641,45.468,12.87,41.289,8.705L41.289,8.705z"/>
	<path fill-rule="evenodd" clip-rule="evenodd" fill="#262626" d="M37.51,19.679c0,0-0.262-1.841-1.024-2.643
		c-0.968-1.052-2.062-1.066-2.546-1.135c-3.571-0.263-8.926-0.263-8.926-0.263h-0.029c0,0-5.341,0-8.913,0.263
		c-0.511,0.07-1.591,0.084-2.559,1.135c-0.762,0.803-1.024,2.643-1.024,2.643s-0.264,2.159-0.264,4.29v0.277v1.757
		c0,2.159,0.264,4.29,0.264,4.29s0.262,1.841,1.024,2.657c0.969,1.065,2.242,1.024,2.823,1.135c2.034,0.208,8.677,0.277,8.677,0.277
		s5.355-0.028,8.926-0.277c0.484-0.069,1.578-0.069,2.546-1.135c0.762-0.816,1.024-2.657,1.024-2.657s0.249-2.132,0.249-4.29v-1.647
		v-0.388C37.759,21.838,37.51,19.679,37.51,19.679L37.51,19.679z M29.262,24.717l-6.906,3.722v-5.729v-1.744l3.128,1.703
		L29.262,24.717z"/>
</g>
</svg>
