<?xml version="1.0" encoding="utf-8"?>
<!-- Generator: Adobe Illustrator 17.0.0, SVG Export Plug-In . SVG Version: 6.00 Build 0)  -->
<!DOCTYPE svg PUBLIC "-//W3C//DTD SVG 1.1//EN" "http://www.w3.org/Graphics/SVG/1.1/DTD/svg11.dtd">
<svg version="1.1" id="Layer_1" xmlns="http://www.w3.org/2000/svg" xmlns:xlink="http://www.w3.org/1999/xlink" x="0px" y="0px"
	 width="149.5px" height="104.5px" viewBox="0 0 149.5 104.5" enable-background="new 0 0 149.5 104.5" xml:space="preserve">
<g>
	<path fill="#00A0F2" d="M68.79,88.692l0.997-3.088l2.414,0.779l-0.997,3.088l2.358,0.761l0.997-3.088l0.281,0.091
		c3.196,0.66,6.387-1.162,7.384-4.249c0.018-0.056,1.033-3.2-1.08-5.68l-0.321-0.351l0.409-0.116c0,0,3.088-0.925,4.378-4.538
		c0.96-2.975-0.674-6.169-3.632-7.185l-0.279-0.091l0.924-2.863L80.265,61.4l-0.924,2.863l-2.414-0.779l0.924-2.863l-2.358-0.761
		l-0.924,2.863l-3.818-1.232l-0.743,2.302l3.93,1.269l-5.654,17.516l-3.93-1.269l-0.743,2.302l3.818,1.232l-0.997,3.088
		L68.79,88.692z M76.222,65.86l4.604,1.486c1.909,0.616,2.973,2.696,2.357,4.604c-0.616,1.909-2.696,2.973-4.604,2.357l-4.604-1.486
		L76.222,65.86z M72.905,76.134l4.604,1.486c1.909,0.616,2.973,2.696,2.357,4.604c-0.616,1.909-2.657,3.048-4.622,2.414
		l-4.604-1.486L72.905,76.134z"/>
	<path fill="#00A0F2" d="M55.595,65.57c0.235,0.136,0.492,0.199,0.745,0.199c0.52,0,1.025-0.271,1.302-0.753
		c0.893-1.556,1.987-2.991,3.253-4.267c0.584-0.588,0.58-1.538-0.008-2.121c-0.588-0.585-1.538-0.582-2.121,0.008
		c-1.45,1.461-2.704,3.104-3.726,4.886C54.628,64.241,54.876,65.158,55.595,65.57z"/>
	<path fill="#00A0F2" d="M54.929,75.231c0-1.782,0.228-3.55,0.678-5.256c0.211-0.802-0.267-1.622-1.068-1.833
		c-0.799-0.214-1.621,0.267-1.833,1.067c-0.516,1.956-0.777,3.981-0.777,6.021V75.3c0,0.828,0.671,1.466,1.5,1.466
		S54.929,76.06,54.929,75.231z"/>
	<path fill="#00A0F2" d="M85.752,57.424c1.553,0.896,2.984,1.996,4.256,3.268c0.293,0.292,0.677,0.438,1.061,0.438
		s0.769-0.146,1.062-0.439c0.585-0.586,0.585-1.536-0.001-2.122c-1.457-1.455-3.098-2.715-4.875-3.742
		c-0.716-0.414-1.635-0.169-2.05,0.548C84.79,56.092,85.035,57.009,85.752,57.424z"/>
	<path fill="#00A0F2" d="M65.248,93.06c-1.553-0.894-2.987-1.99-4.263-3.258c-0.587-0.584-1.537-0.582-2.122,0.006
		c-0.584,0.588-0.581,1.537,0.006,2.121c1.461,1.452,3.103,2.707,4.882,3.73c0.236,0.136,0.493,0.2,0.747,0.2
		c0.519,0,1.024-0.27,1.302-0.752C66.213,94.39,65.966,93.473,65.248,93.06z"/>
	<path fill="#00A0F2" d="M64.383,57.671c0.257,0,0.517-0.065,0.754-0.204c1.551-0.905,3.214-1.603,4.944-2.072
		c0.799-0.217,1.271-1.041,1.055-1.841c-0.217-0.799-1.042-1.271-1.841-1.054c-1.984,0.539-3.892,1.338-5.669,2.375
		c-0.716,0.418-0.957,1.336-0.54,2.052C63.365,57.404,63.867,57.671,64.383,57.671z"/>
	<path fill="#00A0F2" d="M75.481,54.678c1.805,0,3.594,0.233,5.318,0.694c0.129,0.034,0.26,0.051,0.388,0.051
		c0.663,0,1.269-0.442,1.448-1.113c0.214-0.8-0.262-1.622-1.063-1.836c-1.977-0.528-4.026-0.796-6.092-0.796h-0.091
		c-0.829,0-1.455,0.671-1.455,1.5C73.936,54.006,74.653,54.678,75.481,54.678z"/>
	<path fill="#00A0F2" d="M55.639,80.611c-0.216-0.801-1.043-1.271-1.839-1.057c-0.8,0.217-1.272,1.04-1.056,1.84
		c0.536,1.983,1.333,3.892,2.37,5.672c0.279,0.479,0.781,0.745,1.298,0.745c0.256,0,0.516-0.065,0.753-0.204
		c0.716-0.416,0.958-1.335,0.542-2.051C56.803,84.004,56.107,82.34,55.639,80.611z"/>
	<path fill="#00A0F2" d="M85.789,93.017c-1.555,0.903-3.219,1.597-4.946,2.062c-0.8,0.215-1.274,1.038-1.059,1.838
		c0.18,0.67,0.785,1.11,1.447,1.11c0.129,0,0.26-0.017,0.391-0.052c1.982-0.533,3.892-1.328,5.675-2.364
		c0.716-0.416,0.959-1.334,0.543-2.051C87.423,92.844,86.505,92.601,85.789,93.017z"/>
	<path fill="#00A0F2" d="M95.35,84.934c-0.719-0.416-1.636-0.17-2.049,0.549c-0.896,1.554-1.995,2.987-3.264,4.259
		c-0.585,0.587-0.583,1.537,0.003,2.122c0.293,0.292,0.677,0.438,1.06,0.438c0.385,0,0.77-0.147,1.063-0.44
		c1.452-1.457,2.71-3.099,3.736-4.878C96.313,86.265,96.066,85.348,95.35,84.934z"/>
	<path fill="#00A0F2" d="M93.278,64.941c0.901,1.556,1.593,3.221,2.056,4.949c0.18,0.671,0.786,1.112,1.448,1.112
		c0.129,0,0.259-0.017,0.389-0.051c0.801-0.215,1.275-1.037,1.062-1.837c-0.531-1.983-1.324-3.894-2.358-5.678
		c-0.415-0.718-1.335-0.958-2.05-0.546C93.107,63.307,92.863,64.225,93.278,64.941z"/>
	<path fill="#00A0F2" d="M96.035,75.231c0,1.796-0.231,3.578-0.688,5.297c-0.212,0.801,0.265,1.622,1.065,1.835
		c0.129,0.034,0.258,0.05,0.386,0.05c0.663,0,1.271-0.443,1.449-1.115c0.522-1.97,0.788-4.011,0.788-6.066v-0.023
		c0-0.828-0.672-1.488-1.5-1.488S96.035,74.403,96.035,75.231z"/>
	<path fill="#00A0F2" d="M75.481,95.784c-1.789,0-3.564-0.229-5.275-0.684c-0.802-0.212-1.622,0.266-1.834,1.066
		c-0.212,0.801,0.265,1.622,1.066,1.834c1.962,0.52,3.996,0.783,6.044,0.783h0.046c0.828,0,1.477-0.672,1.477-1.5
		S76.31,95.784,75.481,95.784z"/>
	<path fill="#00A0F2" d="M75.481,47.033c-15.548,0-28.198,12.649-28.198,28.198c0,15.548,12.649,28.197,28.198,28.197
		c15.549,0,28.198-12.649,28.198-28.197C103.68,59.683,91.03,47.033,75.481,47.033z M75.481,100.429
		c-13.894,0-25.198-11.304-25.198-25.197c0-13.895,11.304-25.198,25.198-25.198c13.895,0,25.198,11.304,25.198,25.198
		C100.68,89.125,89.376,100.429,75.481,100.429z"/>
	<path fill="#00A0F2" d="M118.001,20.665c-1.822,0-3.606,0.182-5.421,0.553C106.608,9.199,94.283,1.5,80.843,1.5
		c-12.963,0-24.735,6.972-31.006,18.276c-1.337-0.297-2.698-0.448-4.06-0.448c-8.002,0-15.112,5.112-17.72,12.582
		c-0.63-0.054-1.258-0.082-1.877-0.082c-12.467,0-22.61,9.969-22.61,22.222c0,11.849,9.094,21.598,20.703,22.193
		c0.026,0.001,0.052,0.002,0.078,0.002c0.793,0,1.456-0.622,1.497-1.423c0.042-0.827-0.594-1.533-1.421-1.575
		C14.414,72.733,6.57,64.301,6.57,54.05c0-10.599,8.797-19.222,19.61-19.222c0.895,0,1.812,0.066,2.728,0.197
		c0.75,0.104,1.459-0.36,1.659-1.089c1.869-6.834,8.124-11.607,15.21-11.607c1.484,0,2.968,0.213,4.41,0.633
		c0.689,0.202,1.426-0.117,1.754-0.756C57.535,11.284,68.61,4.5,80.843,4.5c12.676,0,24.268,7.484,29.533,19.066
		c0.298,0.658,1.021,1.013,1.728,0.835c2.021-0.502,3.896-0.736,5.897-0.736c13.555,0,24.583,11.126,24.583,24.803
		c0,10.794-6.571,19.991-16.74,23.43c-0.785,0.266-1.206,1.116-0.94,1.901s1.117,1.205,1.901,0.94
		c11.232-3.798,18.779-14.355,18.779-26.271C145.584,33.137,133.21,20.665,118.001,20.665z"/>
	<path fill="#00A0F2" d="M42.749,73.246h-5.75V59.889c2.375-0.659,4.125-2.834,4.125-5.416c0-3.102-2.523-5.625-5.625-5.625
		s-5.625,2.523-5.625,5.625c0,2.581,1.75,4.757,4.125,5.416v14.857c0,0.828,0.671,1.5,1.5,1.5h7.25c0.829,0,1.5-0.672,1.5-1.5
		S43.577,73.246,42.749,73.246z M32.874,54.474c0-1.447,1.178-2.625,2.625-2.625s2.625,1.177,2.625,2.625s-1.178,2.625-2.625,2.625
		S32.874,55.921,32.874,54.474z"/>
	<path fill="#00A0F2" d="M75.481,43.856c0.828,0,1.5-0.671,1.5-1.5V27.501c2.375-0.659,4.125-2.834,4.125-5.416
		c0-3.102-2.523-5.625-5.625-5.625s-5.625,2.523-5.625,5.625c0,2.581,1.75,4.757,4.125,5.416v14.855
		C73.981,43.185,74.653,43.856,75.481,43.856z M72.857,22.085c0-1.447,1.177-2.625,2.625-2.625s2.625,1.178,2.625,2.625
		s-1.178,2.625-2.625,2.625S72.857,23.532,72.857,22.085z"/>
	<path fill="#00A0F2" d="M116.124,48.849c-3.102,0-5.625,2.523-5.625,5.625c0,2.581,1.75,4.757,4.125,5.416v13.357h-5.75
		c-0.828,0-1.5,0.672-1.5,1.5s0.672,1.5,1.5,1.5h7.25c0.828,0,1.5-0.672,1.5-1.5V59.889c2.375-0.659,4.125-2.834,4.125-5.416
		C121.749,51.372,119.226,48.849,116.124,48.849z M116.124,57.099c-1.447,0-2.625-1.178-2.625-2.625s1.178-2.625,2.625-2.625
		s2.625,1.177,2.625,2.625S117.571,57.099,116.124,57.099z"/>
</g>
</svg>
