<?xml version="1.0" encoding="utf-8"?>
<!-- Generator: Adobe Illustrator 17.0.0, SVG Export Plug-In . SVG Version: 6.00 Build 0)  -->
<!DOCTYPE svg PUBLIC "-//W3C//DTD SVG 1.1//EN" "http://www.w3.org/Graphics/SVG/1.1/DTD/svg11.dtd">
<svg version="1.1" id="Layer_1" xmlns="http://www.w3.org/2000/svg" xmlns:xlink="http://www.w3.org/1999/xlink" x="0px" y="0px"
	 width="102.5px" height="104.5px" viewBox="0 0 102.5 104.5" enable-background="new 0 0 102.5 104.5" xml:space="preserve">
<g>
	<path fill="#00A0F2" d="M97.692,29.202c0.828,0,1.5-0.671,1.5-1.5V5.116c0-0.829-0.672-1.5-1.5-1.5H4.808
		c-0.829,0-1.5,0.671-1.5,1.5v22.586c0,0.829,0.671,1.5,1.5,1.5H49.75v4.874H4.808c-0.829,0-1.5,0.671-1.5,1.5v22.586
		c0,0.828,0.671,1.5,1.5,1.5H49.75v4.873H4.808c-0.829,0-1.5,0.672-1.5,1.5v22.586c0,0.828,0.671,1.5,1.5,1.5H49.75v8.81H4.808
		c-0.829,0-1.5,0.672-1.5,1.5s0.671,1.5,1.5,1.5h92.885c0.828,0,1.5-0.672,1.5-1.5s-0.672-1.5-1.5-1.5H52.75v-8.81h44.942
		c0.828,0,1.5-0.672,1.5-1.5V66.035c0-0.828-0.672-1.5-1.5-1.5H52.75v-4.873h44.942c0.828,0,1.5-0.672,1.5-1.5V35.576
		c0-0.829-0.672-1.5-1.5-1.5H52.75v-4.874H97.692z M96.192,87.121H6.308V67.535h89.885V87.121z M96.192,56.662H6.308V37.076h89.885
		V56.662z M6.308,6.616h89.885v19.586H6.308V6.616z"/>
	<path fill="#00A0F2" d="M68.126,11.509c-2.728,0-4.947,2.219-4.947,4.947c0,2.728,2.22,4.947,4.947,4.947s4.946-2.219,4.946-4.947
		C73.072,13.728,70.854,11.509,68.126,11.509z M68.126,18.403c-1.073,0-1.947-0.874-1.947-1.947c0-1.074,0.874-1.947,1.947-1.947
		s1.946,0.874,1.946,1.947C70.072,17.529,69.199,18.403,68.126,18.403z"/>
	<path fill="#00A0F2" d="M84.566,11.509c-2.728,0-4.947,2.219-4.947,4.947c0,2.728,2.22,4.947,4.947,4.947s4.947-2.219,4.947-4.947
		C89.514,13.728,87.294,11.509,84.566,11.509z M84.566,18.403c-1.073,0-1.947-0.874-1.947-1.947c0-1.074,0.874-1.947,1.947-1.947
		s1.947,0.874,1.947,1.947C86.514,17.529,85.64,18.403,84.566,18.403z"/>
	<path fill="#00A0F2" d="M17.875,11.509h-6.271c-0.829,0-1.5,0.671-1.5,1.5v6.271c0,0.829,0.671,1.5,1.5,1.5s1.5-0.671,1.5-1.5
		v-4.771h4.771c0.829,0,1.5-0.671,1.5-1.5S18.703,11.509,17.875,11.509z"/>
	<path fill="#00A0F2" d="M29.581,11.509H23.31c-0.829,0-1.5,0.671-1.5,1.5v6.271c0,0.829,0.671,1.5,1.5,1.5s1.5-0.671,1.5-1.5
		v-4.771h4.771c0.829,0,1.5-0.671,1.5-1.5S30.409,11.509,29.581,11.509z"/>
	<path fill="#00A0F2" d="M41.287,11.509h-6.271c-0.829,0-1.5,0.671-1.5,1.5v6.271c0,0.829,0.671,1.5,1.5,1.5s1.5-0.671,1.5-1.5
		v-4.771h4.771c0.829,0,1.5-0.671,1.5-1.5S42.115,11.509,41.287,11.509z"/>
	<path fill="#00A0F2" d="M68.126,51.862c2.728,0,4.946-2.219,4.946-4.947c0-2.728-2.219-4.947-4.946-4.947s-4.947,2.219-4.947,4.947
		C63.179,49.643,65.398,51.862,68.126,51.862z M68.126,44.968c1.073,0,1.946,0.874,1.946,1.947c0,1.073-0.873,1.947-1.946,1.947
		s-1.947-0.874-1.947-1.947C66.179,45.841,67.053,44.968,68.126,44.968z"/>
	<path fill="#00A0F2" d="M84.566,51.862c2.728,0,4.947-2.219,4.947-4.947c0-2.728-2.22-4.947-4.947-4.947s-4.947,2.219-4.947,4.947
		C79.619,49.643,81.839,51.862,84.566,51.862z M84.566,44.968c1.073,0,1.947,0.874,1.947,1.947c0,1.073-0.874,1.947-1.947,1.947
		s-1.947-0.874-1.947-1.947C82.619,45.841,83.493,44.968,84.566,44.968z"/>
	<path fill="#00A0F2" d="M11.604,51.239c0.829,0,1.5-0.671,1.5-1.5v-4.771h4.771c0.829,0,1.5-0.671,1.5-1.5s-0.671-1.5-1.5-1.5
		h-6.271c-0.829,0-1.5,0.671-1.5,1.5v6.271C10.104,50.567,10.775,51.239,11.604,51.239z"/>
	<path fill="#00A0F2" d="M23.31,51.239c0.829,0,1.5-0.671,1.5-1.5v-4.771h4.771c0.829,0,1.5-0.671,1.5-1.5s-0.671-1.5-1.5-1.5H23.31
		c-0.829,0-1.5,0.671-1.5,1.5v6.271C21.81,50.567,22.481,51.239,23.31,51.239z"/>
	<path fill="#00A0F2" d="M35.016,51.239c0.829,0,1.5-0.671,1.5-1.5v-4.771h4.771c0.829,0,1.5-0.671,1.5-1.5s-0.671-1.5-1.5-1.5
		h-6.271c-0.829,0-1.5,0.671-1.5,1.5v6.271C33.516,50.567,34.187,51.239,35.016,51.239z"/>
	<path fill="#00A0F2" d="M68.126,82.322c2.728,0,4.946-2.22,4.946-4.947s-2.219-4.947-4.946-4.947s-4.947,2.22-4.947,4.947
		S65.398,82.322,68.126,82.322z M68.126,75.428c1.073,0,1.946,0.874,1.946,1.947s-0.873,1.947-1.946,1.947s-1.947-0.874-1.947-1.947
		S67.053,75.428,68.126,75.428z"/>
	<path fill="#00A0F2" d="M84.566,82.322c2.728,0,4.947-2.22,4.947-4.947s-2.22-4.947-4.947-4.947s-4.947,2.22-4.947,4.947
		S81.839,82.322,84.566,82.322z M84.566,75.428c1.073,0,1.947,0.874,1.947,1.947s-0.874,1.947-1.947,1.947s-1.947-0.874-1.947-1.947
		S83.493,75.428,84.566,75.428z"/>
	<path fill="#00A0F2" d="M11.604,81.699c0.829,0,1.5-0.672,1.5-1.5v-4.771h4.771c0.829,0,1.5-0.672,1.5-1.5s-0.671-1.5-1.5-1.5
		h-6.271c-0.829,0-1.5,0.672-1.5,1.5v6.271C10.104,81.027,10.775,81.699,11.604,81.699z"/>
	<path fill="#00A0F2" d="M23.31,81.699c0.829,0,1.5-0.672,1.5-1.5v-4.771h4.771c0.829,0,1.5-0.672,1.5-1.5s-0.671-1.5-1.5-1.5H23.31
		c-0.829,0-1.5,0.672-1.5,1.5v6.271C21.81,81.027,22.481,81.699,23.31,81.699z"/>
	<path fill="#00A0F2" d="M35.016,81.699c0.829,0,1.5-0.672,1.5-1.5v-4.771h4.771c0.829,0,1.5-0.672,1.5-1.5s-0.671-1.5-1.5-1.5
		h-6.271c-0.829,0-1.5,0.672-1.5,1.5v6.271C33.516,81.027,34.187,81.699,35.016,81.699z"/>
</g>
</svg>
