<?xml version="1.0" encoding="utf-8"?>
<!-- Generator: Adobe Illustrator 17.0.0, SVG Export Plug-In . SVG Version: 6.00 Build 0)  -->
<!DOCTYPE svg PUBLIC "-//W3C//DTD SVG 1.1//EN" "http://www.w3.org/Graphics/SVG/1.1/DTD/svg11.dtd">
<svg version="1.1" id="Layer_1" xmlns="http://www.w3.org/2000/svg" xmlns:xlink="http://www.w3.org/1999/xlink" x="0px" y="0px"
	 width="100px" height="100px" viewBox="0 0 100 100" enable-background="new 0 0 100 100" xml:space="preserve">
<g>
	<linearGradient id="SVGID_1_" gradientUnits="userSpaceOnUse" x1="49.9506" y1="90.6037" x2="49.9506" y2="8.8342">
		<stop  offset="0" style="stop-color:#00A0F2"/>
		<stop  offset="1" style="stop-color:#35E3BB"/>
	</linearGradient>
	<path fill="url(#SVGID_1_)" d="M83.307,59.229c-2.637,0-5.12,0.669-7.291,1.843l-16.199-23.9c3.365-2.823,5.511-7.053,5.511-11.779
		c0-8.479-6.899-15.377-15.377-15.377s-15.377,6.898-15.377,15.377c0,4.725,2.146,8.956,5.511,11.779l-16.2,23.9
		c-2.171-1.174-4.654-1.843-7.291-1.843c-8.479,0-15.377,6.899-15.377,15.377s6.898,15.377,15.377,15.377
		c7.953,0,14.514-6.069,15.298-13.818h36.117c0.784,7.75,7.346,13.818,15.299,13.818c8.479,0,15.377-6.898,15.377-15.377
		S91.786,59.229,83.307,59.229z M37.69,25.393c0-6.76,5.501-12.26,12.261-12.26c6.761,0,12.261,5.5,12.261,12.26
		c0,3.653-1.615,6.929-4.158,9.177c-0.779,0.688-1.642,1.278-2.578,1.753c-1.663,0.844-3.536,1.33-5.525,1.33
		c-1.989,0-3.862-0.486-5.525-1.33c-0.935-0.475-1.799-1.065-2.577-1.753C39.305,32.322,37.69,29.046,37.69,25.393z M42.66,38.927
		c2.171,1.174,4.654,1.843,7.291,1.843c2.637,0,5.12-0.669,7.291-1.843l16.2,23.9c-2.99,2.509-5.018,6.129-5.432,10.221H31.891
		c-0.414-4.092-2.442-7.712-5.431-10.22L42.66,38.927z M16.594,86.867c-6.76,0-12.26-5.5-12.26-12.26s5.5-12.261,12.26-12.261
		c1.989,0,3.863,0.486,5.525,1.331c0.935,0.475,1.799,1.065,2.577,1.753c2.174,1.922,3.661,4.597,4.047,7.618
		c0.065,0.512,0.11,1.029,0.11,1.558c0,0.529-0.045,1.047-0.11,1.558C27.974,82.191,22.825,86.867,16.594,86.867z M83.307,86.867
		c-6.232,0-11.381-4.676-12.15-10.702c-0.065-0.512-0.11-1.029-0.11-1.558c0-0.529,0.045-1.047,0.11-1.558
		c0.386-3.021,1.873-5.696,4.047-7.618c0.779-0.688,1.642-1.278,2.577-1.753c1.663-0.844,3.537-1.331,5.526-1.331
		c6.761,0,12.261,5.5,12.261,12.261S90.068,86.867,83.307,86.867z"/>
	<linearGradient id="SVGID_2_" gradientUnits="userSpaceOnUse" x1="16.5936" y1="90.6037" x2="16.5936" y2="8.8342">
		<stop  offset="0" style="stop-color:#00A0F2"/>
		<stop  offset="1" style="stop-color:#35E3BB"/>
	</linearGradient>
	<path fill="url(#SVGID_2_)" d="M22.048,75.54c-0.385-0.502-0.945-0.863-1.666-1.072l-0.506-0.147l0.48-0.217
		c0.505-0.228,0.912-0.576,1.208-1.034c0.295-0.456,0.444-0.966,0.444-1.515c0-0.507-0.121-0.968-0.358-1.372
		c-0.242-0.411-0.547-0.743-0.907-0.988c-0.36-0.246-0.776-0.41-1.235-0.488c-0.33-0.056-0.805-0.093-1.41-0.11l-0.189-0.005v-1.856
		h-1.703v1.85h-1.71v-1.85h-1.703v1.85h-2.232v1.703h1.926v8.772h-1.926v1.703h2.232v1.713h1.703v-1.713h1.71v1.713h1.703v-1.729
		l0.19-0.004c0.753-0.016,1.261-0.037,1.51-0.064c0.64-0.07,1.182-0.26,1.611-0.561c0.429-0.3,0.775-0.711,1.027-1.221
		c0.251-0.513,0.378-1.045,0.378-1.581C22.626,76.638,22.432,76.04,22.048,75.54L22.048,75.54z M16.288,70.289
		c1.215,0,1.931,0.015,2.191,0.044c0.471,0.057,0.834,0.227,1.081,0.506c0.245,0.278,0.369,0.639,0.369,1.074
		c0,0.46-0.144,0.836-0.429,1.12c-0.278,0.279-0.661,0.449-1.139,0.506c-0.252,0.03-0.88,0.045-1.866,0.045h-1.858v-3.294H16.288z
		 M19.986,78.392c-0.267,0.299-0.614,0.488-1.032,0.564c-0.257,0.053-0.84,0.08-1.775,0.08h-2.543v-3.75h2.243
		c1.183,0,1.939,0.062,2.313,0.19c0.385,0.134,0.684,0.352,0.889,0.649c0.206,0.293,0.311,0.654,0.311,1.072
		C20.392,77.688,20.256,78.09,19.986,78.392z"/>
	<linearGradient id="SVGID_3_" gradientUnits="userSpaceOnUse" x1="49.9503" y1="90.6037" x2="49.9503" y2="8.8342">
		<stop  offset="0" style="stop-color:#00A0F2"/>
		<stop  offset="1" style="stop-color:#35E3BB"/>
	</linearGradient>
	<path fill="url(#SVGID_3_)" d="M46.15,33.264h1.703v-1.713h1.71v1.713h1.703v-1.729l0.19-0.004c0.753-0.016,1.261-0.037,1.51-0.064
		c0.64-0.07,1.182-0.26,1.611-0.561c0.429-0.3,0.775-0.711,1.027-1.221c0.251-0.513,0.379-1.045,0.379-1.581
		c0-0.678-0.195-1.276-0.578-1.776v0c-0.385-0.502-0.945-0.863-1.666-1.072l-0.506-0.147l0.48-0.217
		c0.505-0.228,0.912-0.576,1.208-1.034c0.295-0.456,0.444-0.966,0.444-1.515c0-0.507-0.121-0.968-0.358-1.372
		c-0.242-0.411-0.547-0.743-0.907-0.988c-0.36-0.246-0.775-0.41-1.235-0.488c-0.33-0.056-0.805-0.093-1.41-0.11l-0.189-0.005v-1.856
		h-1.703v1.85h-1.71v-1.85H46.15v1.85h-2.232v1.703h1.926v8.772h-1.926v1.703h2.232V33.264z M53.438,26.912
		c0.206,0.293,0.311,0.654,0.311,1.072c0,0.492-0.137,0.894-0.406,1.195c-0.267,0.299-0.614,0.488-1.032,0.564
		c-0.257,0.053-0.84,0.08-1.775,0.08h-2.543v-3.75h2.243c1.183,0,1.939,0.062,2.313,0.19C52.935,26.397,53.233,26.616,53.438,26.912
		z M49.645,21.076c1.215,0,1.931,0.015,2.191,0.044c0.471,0.057,0.834,0.227,1.081,0.506c0.245,0.278,0.369,0.639,0.369,1.074
		c0,0.46-0.144,0.836-0.429,1.12c-0.278,0.279-0.661,0.449-1.139,0.506c-0.252,0.03-0.88,0.045-1.866,0.045h-1.858v-3.294H49.645z"
		/>
	<linearGradient id="SVGID_4_" gradientUnits="userSpaceOnUse" x1="83.307" y1="90.6037" x2="83.307" y2="8.8342">
		<stop  offset="0" style="stop-color:#00A0F2"/>
		<stop  offset="1" style="stop-color:#35E3BB"/>
	</linearGradient>
	<path fill="url(#SVGID_4_)" d="M88.762,75.54c-0.385-0.502-0.945-0.863-1.666-1.072l-0.506-0.147l0.48-0.217
		c0.505-0.228,0.912-0.576,1.208-1.034c0.295-0.456,0.444-0.966,0.444-1.515c0-0.507-0.121-0.968-0.358-1.372
		c-0.242-0.411-0.547-0.743-0.907-0.988c-0.36-0.246-0.775-0.41-1.235-0.488c-0.33-0.056-0.805-0.093-1.41-0.11l-0.189-0.005v-1.856
		h-1.703v1.85h-1.71v-1.85h-1.703v1.85h-2.232v1.703H79.2v8.772h-1.926v1.703h2.232v1.713h1.703v-1.713h1.71v1.713h1.703v-1.729
		l0.19-0.004c0.753-0.016,1.261-0.037,1.51-0.064c0.64-0.07,1.182-0.26,1.611-0.561c0.429-0.3,0.775-0.711,1.027-1.221
		c0.251-0.513,0.379-1.045,0.379-1.581C89.34,76.638,89.145,76.04,88.762,75.54L88.762,75.54z M83.001,70.289
		c1.215,0,1.931,0.015,2.191,0.044c0.471,0.057,0.834,0.227,1.081,0.506c0.245,0.278,0.369,0.639,0.369,1.074
		c0,0.46-0.144,0.836-0.429,1.12c-0.278,0.279-0.661,0.449-1.139,0.506c-0.252,0.03-0.88,0.045-1.866,0.045H81.35v-3.294H83.001z
		 M86.7,78.392c-0.267,0.299-0.614,0.488-1.032,0.564c-0.257,0.053-0.84,0.08-1.775,0.08H81.35v-3.75h2.243
		c1.183,0,1.939,0.062,2.313,0.19c0.385,0.134,0.684,0.352,0.889,0.649c0.206,0.293,0.311,0.654,0.311,1.072
		C87.106,77.688,86.969,78.09,86.7,78.392z"/>
</g>
</svg>
