<?xml version="1.0" encoding="utf-8"?>
<!-- Generator: Adobe Illustrator 17.0.0, SVG Export Plug-In . SVG Version: 6.00 Build 0)  -->
<!DOCTYPE svg PUBLIC "-//W3C//DTD SVG 1.1//EN" "http://www.w3.org/Graphics/SVG/1.1/DTD/svg11.dtd">
<svg version="1.1" id="Layer_1" xmlns="http://www.w3.org/2000/svg" xmlns:xlink="http://www.w3.org/1999/xlink" x="0px" y="0px"
	 width="100px" height="100px" viewBox="0 0 100 100" enable-background="new 0 0 100 100" xml:space="preserve">
<g>
	<linearGradient id="SVGID_1_" gradientUnits="userSpaceOnUse" x1="38.5103" y1="104" x2="38.5103" y2="-3.2986">
		<stop  offset="0" style="stop-color:#00A0F2"/>
		<stop  offset="1" style="stop-color:#35E3BB"/>
	</linearGradient>
	<path fill="url(#SVGID_1_)" d="M70.021,57.543c0-3.696-3.007-6.543-6.703-6.543H50.725c-0.828,0-1.5,0.672-1.5,1.5
		s0.672,1.5,1.5,1.5h12.593c2.042,0,3.703,1.458,3.703,3.5S65.359,61,63.317,61H50.725c-0.828,0-1.5,0.672-1.5,1.5
		s0.672,1.5,1.5,1.5h12.593c2.042,0,3.703,1.458,3.703,3.5S65.359,71,63.317,71H50.725c-0.828,0-1.5,0.672-1.5,1.5
		s0.672,1.5,1.5,1.5h12.593c2.042,0,3.703,1.958,3.703,4s-1.661,4-3.703,4H50.725c-0.828,0-1.5,0.672-1.5,1.5s0.672,1.5,1.5,1.5
		h12.593c2.042,0,3.703,1.458,3.703,3.5S65.359,92,63.317,92H35.995C34.828,91,32,88.585,27,88.308V59.987
		c1-0.197,3.083-0.754,4.783-2.338c2.457-2.288,3.655-5.9,3.655-10.736c0-13.024,1.773-13.024,3.358-13.024
		c1.784,0,4.204,0,4.204,12.731v8.437c0,0.828,0.672,1.5,1.5,1.5s1.5-0.672,1.5-1.5v-8.437c0-11.615-1.892-15.731-7.228-15.731
		c-5.427,0-6.382,5.167-6.382,16.024c0,3.941-0.912,6.803-2.71,8.506c-1.087,1.03-2.283,1.312-3.126,1.467
		C25.89,54.709,23.887,53,21.496,53h-8.897C9.669,53,7,55.605,7,58.535V90.31C7,93.239,9.669,96,12.599,96h8.897
		c2.587,0,4.741-2.049,5.211-4.501c4.79,0.299,7.368,3.068,7.476,3.197C34.469,95.045,34.896,95,35.346,95h27.972
		c3.696,0,6.703-2.854,6.703-6.55c0-2.099-0.971-3.897-2.485-5.127c1.515-1.23,2.485-3.067,2.485-5.166
		c0-2.099-0.971-3.954-2.485-5.184c1.514-1.23,2.485-3.095,2.485-5.194s-0.971-3.888-2.485-5.118
		C69.05,61.431,70.021,59.642,70.021,57.543z M24,90.31c0,1.275-1.229,2.69-2.504,2.69H19V71.881c0-0.828-0.672-1.5-1.5-1.5
		s-1.5,0.672-1.5,1.5V93h-3.401C11.323,93,10,91.585,10,90.31V58.535C10,57.26,11.323,56,12.599,56h8.897
		C22.771,56,24,57.26,24,58.535V90.31z"/>
	<linearGradient id="SVGID_2_" gradientUnits="userSpaceOnUse" x1="56.5" y1="104" x2="56.5" y2="-3.2986">
		<stop  offset="0" style="stop-color:#00A0F2"/>
		<stop  offset="1" style="stop-color:#35E3BB"/>
	</linearGradient>
	<path fill="url(#SVGID_2_)" d="M92.483,33.133l-7.586-1.353c-0.612-1.986-1.299-3.672-2.115-5.19l4.724-6.61
		c1.344-1.905,1.121-4.671-0.503-6.294l-3.286-3.305c-1.638-1.635-4.398-1.87-6.29-0.539l-6.756,4.77
		c-1.574-0.814-3.245-1.491-4.988-2.019l-1.398-7.359C64.116,4.261,63.309,2,59.45,2h-4.668c-3.859,0-4.667,2.261-4.832,3.221
		l-1.409,7.783c-1.586,0.446-3.308,0.999-4.967,1.818l-6.777-4.875c-1.911-1.349-4.678-1.136-6.295,0.483l-3.304,3.277
		c-1.635,1.635-1.872,4.396-0.54,6.286l4.654,6.592c-0.917,1.664-1.669,3.403-2.243,5.189l-7.928,1.356
		C18.857,33.526,17,35.695,17,37.966v4.668c0,2.271,1.857,4.44,4.143,4.835l7.631,1.311c0.811,0.138,1.592-0.407,1.732-1.225
		c0.14-0.816-0.408-1.592-1.225-1.732l-7.63-1.311C20.787,44.362,20,43.468,20,42.634v-4.668c0-0.818,0.803-1.73,1.649-1.877
		l9.771-1.672l0.259-0.908c0.617-2.167,1.525-4.267,2.7-6.239l0.498-0.837l-5.767-8.168c-0.49-0.695-0.393-1.834,0.205-2.432
		l3.304-3.277c0.591-0.588,1.732-0.662,2.437-0.165l8.296,5.968l0.834-0.469c1.746-0.979,3.61-1.584,6.053-2.24l0.917-0.246
		l1.749-9.66C52.989,5.25,53.621,5,54.782,5h4.668c1.16,0,1.792,0.25,1.882,0.769l1.752,9.217l0.908,0.244
		c2.149,0.579,4.186,1.403,6.051,2.45l0.826,0.464l8.287-5.851c0.696-0.489,1.836-0.394,2.437,0.207l3.286,3.305
		c0.595,0.593,0.676,1.736,0.181,2.438l-5.844,8.178l0.501,0.843c1.028,1.727,1.843,3.71,2.563,6.242l0.257,0.901l9.428,1.681
		C92.971,36.262,93,37.792,93,37.966v4.668c0,0.284-0.05,1.709-1.053,1.882l-8.926,1.646l-0.231,0.941
		c-0.584,2.371-1.476,4.623-2.649,6.691l-0.47,0.827l5.452,7.728c0.484,0.688,0.385,1.854-0.21,2.448L81.611,68.1
		c-0.595,0.597-1.763,0.697-2.446,0.212l-5.425-3.822c-0.677-0.476-1.613-0.314-2.091,0.362c-0.477,0.678-0.314,1.613,0.362,2.091
		l5.425,3.821c0.822,0.58,1.81,0.863,2.798,0.863c1.286,0,2.573-0.479,3.499-1.406l3.301-3.301c1.639-1.638,1.876-4.405,0.54-6.299
		l-4.365-6.188c0.937-1.789,1.689-3.689,2.245-5.669l7.021-1.295C94.583,47.105,96,45.162,96,42.634v-4.668
		C96,35.438,94.583,33.495,92.483,33.133z"/>
	<linearGradient id="SVGID_3_" gradientUnits="userSpaceOnUse" x1="57.084" y1="104" x2="57.084" y2="-3.2986">
		<stop  offset="0" style="stop-color:#00A0F2"/>
		<stop  offset="1" style="stop-color:#35E3BB"/>
	</linearGradient>
	<path fill="url(#SVGID_3_)" d="M49.167,40.97c0,4.365,3.552,7.917,7.917,7.917s7.917-3.552,7.917-7.917s-3.552-7.916-7.917-7.916
		S49.167,36.604,49.167,40.97z M62.001,40.97c0,2.711-2.206,4.917-4.917,4.917s-4.917-2.206-4.917-4.917s2.206-4.916,4.917-4.916
		S62.001,38.259,62.001,40.97z"/>
	<linearGradient id="SVGID_4_" gradientUnits="userSpaceOnUse" x1="72.6562" y1="104" x2="72.6562" y2="-3.2986">
		<stop  offset="0" style="stop-color:#00A0F2"/>
		<stop  offset="1" style="stop-color:#35E3BB"/>
	</linearGradient>
	<path fill="url(#SVGID_4_)" d="M76.196,40.97c0-3.486-0.948-6.899-2.742-9.869c-0.43-0.71-1.354-0.938-2.06-0.509
		c-0.709,0.429-0.937,1.351-0.509,2.06c1.512,2.502,2.311,5.378,2.311,8.318c0,3.765-1.325,7.428-3.732,10.313
		c-0.53,0.637-0.444,1.582,0.191,2.113c0.28,0.233,0.621,0.348,0.96,0.348c0.43,0,0.856-0.184,1.153-0.539
		C74.624,49.78,76.196,45.436,76.196,40.97z"/>
	<linearGradient id="SVGID_5_" gradientUnits="userSpaceOnUse" x1="56.4033" y1="104" x2="56.4033" y2="-3.2986">
		<stop  offset="0" style="stop-color:#00A0F2"/>
		<stop  offset="1" style="stop-color:#35E3BB"/>
	</linearGradient>
	<path fill="url(#SVGID_5_)" d="M69.194,28.096c0.516-0.649,0.406-1.593-0.242-2.107c-3.407-2.702-7.511-4.131-11.868-4.131
		c-5.015,0-9.754,1.929-13.344,5.43c-0.594,0.579-0.605,1.528-0.027,2.122c0.294,0.301,0.685,0.452,1.074,0.452
		c0.378,0,0.756-0.142,1.047-0.426c3.027-2.952,7.022-4.578,11.25-4.578c3.674,0,7.133,1.204,10.003,3.48
		C67.738,28.854,68.681,28.743,69.194,28.096z"/>
</g>
</svg>
