<?xml version="1.0" encoding="utf-8"?>
<!-- Generator: Adobe Illustrator 17.0.0, SVG Export Plug-In . SVG Version: 6.00 Build 0)  -->
<!DOCTYPE svg PUBLIC "-//W3C//DTD SVG 1.1//EN" "http://www.w3.org/Graphics/SVG/1.1/DTD/svg11.dtd">
<svg version="1.1" id="Layer_1" xmlns="http://www.w3.org/2000/svg" xmlns:xlink="http://www.w3.org/1999/xlink" x="0px" y="0px"
	 width="100px" height="100px" viewBox="0 0 100 100" enable-background="new 0 0 100 100" xml:space="preserve">
<g>
	<linearGradient id="SVGID_1_" gradientUnits="userSpaceOnUse" x1="50" y1="91.6667" x2="50" y2="5.6641">
		<stop  offset="0" style="stop-color:#00A0F2"/>
		<stop  offset="1" style="stop-color:#35E3BB"/>
	</linearGradient>
	<path fill="url(#SVGID_1_)" d="M95.875,88.034h-5.371l0-1.229c0.001-2.317-1.788-4.442-4.071-4.836l-7.462-1.29
		c-0.602-1.928-1.414-3.803-2.42-5.596l4.05-5.88c1.233-1.748,0.862-4.124-0.925-5.911l-3.3-3.301
		c-1.787-1.788-4.163-2.16-5.904-0.931l-6.321,4.406c-1.837-0.972-3.515-1.678-5.165-2.175l-1.332-8.015
		c-0.396-2.297-2.51-4.096-4.806-4.096l-4.661-0.014c-2.314,0.002-4.432,1.787-4.829,4.066l-1.406,8.15
		c-1.689,0.537-3.349,1.24-4.955,2.099l-6.192-4.216c-0.807-0.569-2.977-1.597-5.706,1.131l-3.301,3.3
		c-2.729,2.728-1.702,4.899-1.14,5.694l4.506,6.5c-0.806,1.437-1.633,3.045-2.227,4.797l-8.239,1.344
		c-2.305,0.397-4.112,2.504-4.11,4.792l-0.005,1.211H4.125c-0.828,0-1.5,0.671-1.5,1.5s0.672,1.5,1.5,1.5h6.443h3h73.935h3h5.371
		c0.828,0,1.5-0.671,1.5-1.5S96.703,88.034,95.875,88.034z M70.008,88.034c0-0.045,0.007-0.089,0.003-0.135
		c-0.402-4.441-2.361-8.625-5.519-11.783c-2.465-2.465-5.548-4.209-8.917-5.041c-0.806-0.198-1.621,0.294-1.817,1.096
		c-0.198,0.805,0.293,1.618,1.096,1.817c2.838,0.7,5.437,2.169,7.515,4.249c2.63,2.63,4.269,6.106,4.634,9.797H34.951
		c0.363-3.703,1.975-7.142,4.635-9.801c2.598-2.598,5.896-4.192,9.535-4.611c0.825-0.095,1.414-0.841,1.319-1.661
		c-0.094-0.824-0.839-1.414-1.661-1.319c-4.32,0.498-8.232,2.389-11.314,5.469c-3.225,3.224-5.143,7.419-5.516,11.922H13.581
		l0.005-1.204c0.002-0.834,0.757-1.693,1.607-1.84l10.086-1.645l0.258-0.921c0.543-1.927,1.433-3.672,2.697-5.864l0.475-0.822
		l-5.593-8.068c-0.29-0.409-0.02-1.032,0.801-1.853l3.301-3.3c0.82-0.82,1.444-1.09,1.875-0.787l7.755,5.28l0.815-0.469
		c1.929-1.11,3.952-1.967,6.011-2.545l0.912-0.256l1.724-9.997c0.146-0.838,1.02-1.577,1.87-1.577l4.661,0.014
		c0.84-0.001,1.705,0.75,1.852,1.596l1.649,9.915l0.95,0.242c1.948,0.495,3.926,1.321,6.226,2.602l0.819,0.456l7.856-5.477
		c0.834-0.588,1.937,0.473,2.06,0.596l3.3,3.301c0.201,0.201,1.173,1.244,0.586,2.075l-5.149,7.475l0.502,0.829
		c1.263,2.09,2.225,4.313,2.857,6.605l0.252,0.917l9.319,1.611c0.829,0.144,1.583,1.039,1.582,1.88v1.231H70.008z"/>
	<linearGradient id="SVGID_2_" gradientUnits="userSpaceOnUse" x1="22.458" y1="91.6667" x2="22.458" y2="5.6641">
		<stop  offset="0" style="stop-color:#00A0F2"/>
		<stop  offset="1" style="stop-color:#35E3BB"/>
	</linearGradient>
	<path fill="url(#SVGID_2_)" d="M5.715,60.661c0.34,0,0.683-0.115,0.964-0.351l20.136-16.907l11.303,11.843
		c0.295,0.309,0.689,0.464,1.085,0.464c0.372,0,0.745-0.138,1.035-0.415c0.6-0.572,0.622-1.521,0.05-2.121L29.117,41.47l1.18-0.991
		c0.634-0.533,0.717-1.479,0.184-2.113c-0.533-0.635-1.479-0.718-2.113-0.185L4.749,58.012c-0.634,0.533-0.717,1.479-0.184,2.113
		C4.862,60.479,5.287,60.661,5.715,60.661z"/>
	<linearGradient id="SVGID_3_" gradientUnits="userSpaceOnUse" x1="50.0454" y1="91.6667" x2="50.0454" y2="5.6641">
		<stop  offset="0" style="stop-color:#00A0F2"/>
		<stop  offset="1" style="stop-color:#35E3BB"/>
	</linearGradient>
	<path fill="url(#SVGID_3_)" d="M6.986,40.479l22.54-18.925l22.03,23.083c0.295,0.309,0.689,0.464,1.085,0.464
		c0.372,0,0.745-0.138,1.035-0.415c0.6-0.572,0.622-1.521,0.05-2.121l-2.471-2.589l22.471-18.868l10.14,10.14l-23.331,19.59
		c-0.634,0.533-0.717,1.479-0.184,2.113c0.296,0.354,0.722,0.536,1.149,0.536c0.34,0,0.683-0.115,0.964-0.351l23.531-19.758
		l7.012,7.012c0.287,0.287,0.671,0.439,1.061,0.439c0.193,0,0.389-0.037,0.574-0.114c0.561-0.232,0.926-0.779,0.926-1.386V10.26
		c0-0.829-0.672-1.5-1.5-1.5h-29.07c-0.606,0-1.153,0.365-1.386,0.926s-0.104,1.206,0.325,1.635l7.659,7.659L49.18,37.802
		L30.725,18.464c-0.547-0.573-1.443-0.621-2.05-0.113L5.057,38.181c-0.634,0.533-0.717,1.479-0.184,2.113
		C5.403,40.928,6.35,41.011,6.986,40.479z M68.62,11.76h23.949v23.949L68.62,11.76z"/>
</g>
</svg>
