<?xml version="1.0" encoding="utf-8"?>
<!-- Generator: Adobe Illustrator 17.0.0, SVG Export Plug-In . SVG Version: 6.00 Build 0)  -->
<!DOCTYPE svg PUBLIC "-//W3C//DTD SVG 1.1//EN" "http://www.w3.org/Graphics/SVG/1.1/DTD/svg11.dtd">
<svg version="1.1" id="Layer_1" xmlns="http://www.w3.org/2000/svg" xmlns:xlink="http://www.w3.org/1999/xlink" x="0px" y="0px"
	 width="100px" height="100px" viewBox="0 0 100 100" enable-background="new 0 0 100 100" xml:space="preserve">
<g>
	<linearGradient id="SVGID_1_" gradientUnits="userSpaceOnUse" x1="51" y1="101" x2="51" y2="-1.7631">
		<stop  offset="0" style="stop-color:#00A0F2"/>
		<stop  offset="1" style="stop-color:#35E3BB"/>
	</linearGradient>
	<path fill="url(#SVGID_1_)" d="M94.023,24.05c-0.01-0.821-0.679-1.482-1.5-1.482c-7.681,0-12.614-4.46-17.838-9.183
		C68.849,8.107,62.232,2.126,51,2.126S33.151,8.107,27.314,13.385c-5.224,4.723-10.157,9.183-17.838,9.183
		c-0.821,0-1.49,0.661-1.5,1.482C7.97,24.61,7.819,80.21,50.432,97.643c0.183,0.075,0.375,0.112,0.568,0.112
		s0.386-0.037,0.568-0.112C94.181,80.21,94.03,24.61,94.023,24.05z M51,94.63C14.581,79.278,11.295,34.148,11.004,25.516
		c7.967-0.544,13.227-5.299,18.322-9.906C35.027,10.456,40.923,5.126,51,5.126s15.973,5.33,21.674,10.484
		c5.096,4.607,10.355,9.362,18.322,9.906C90.705,34.148,87.419,79.278,51,94.63z"/>
	<linearGradient id="SVGID_2_" gradientUnits="userSpaceOnUse" x1="82.789" y1="101" x2="82.789" y2="-1.7631">
		<stop  offset="0" style="stop-color:#00A0F2"/>
		<stop  offset="1" style="stop-color:#35E3BB"/>
	</linearGradient>
	<path fill="url(#SVGID_2_)" d="M82.021,40.634c0.121,0.03,0.243,0.045,0.363,0.045c0.673,0,1.284-0.456,1.454-1.138
		c0.287-1.151,0.562-2.328,0.821-3.532c0.176-0.81-0.339-1.608-1.148-1.783c-0.808-0.172-1.608,0.339-1.783,1.149
		c-0.254,1.172-0.521,2.319-0.8,3.44C80.728,39.619,81.217,40.433,82.021,40.634z"/>
	<linearGradient id="SVGID_3_" gradientUnits="userSpaceOnUse" x1="56.6065" y1="101" x2="56.6065" y2="-1.7631">
		<stop  offset="0" style="stop-color:#00A0F2"/>
		<stop  offset="1" style="stop-color:#35E3BB"/>
	</linearGradient>
	<path fill="url(#SVGID_3_)" d="M50.851,84.02c-8.722-2.782-17.279-16.039-17.367-16.175c-0.446-0.698-1.375-0.903-2.071-0.456
		c-0.698,0.446-0.902,1.373-0.457,2.071c0.389,0.608,9.627,14.923,19.656,17.615l0.521,0.14l0.491-0.224
		C52.475,86.603,72.6,77.1,82.429,44.656c0.24-0.793-0.208-1.63-1.001-1.871c-0.787-0.238-1.629,0.208-1.87,1
		C70.968,72.139,53.907,82.382,50.851,84.02z"/>
	<linearGradient id="SVGID_4_" gradientUnits="userSpaceOnUse" x1="22.3036" y1="101" x2="22.3036" y2="-1.7631">
		<stop  offset="0" style="stop-color:#00A0F2"/>
		<stop  offset="1" style="stop-color:#35E3BB"/>
	</linearGradient>
	<path fill="url(#SVGID_4_)" d="M23.787,29.046c-1.8,0.945-3.205,1.431-4.068,1.672c-0.798,0.223-1.264,1.051-1.04,1.849
		c0.186,0.663,0.787,1.096,1.443,1.096c0.134,0,0.271-0.018,0.405-0.056c1.002-0.28,2.623-0.838,4.654-1.905
		c0.733-0.385,1.016-1.292,0.631-2.025C25.426,28.943,24.52,28.661,23.787,29.046z"/>
	<linearGradient id="SVGID_5_" gradientUnits="userSpaceOnUse" x1="40.6251" y1="101" x2="40.6251" y2="-1.7631">
		<stop  offset="0" style="stop-color:#00A0F2"/>
		<stop  offset="1" style="stop-color:#35E3BB"/>
	</linearGradient>
	<path fill="url(#SVGID_5_)" d="M31.188,27.716c1.552-1.246,3.1-2.659,4.598-4.201c9.13-9.389,14.8-8.705,14.947-8.687
		c0.799,0.149,1.579-0.38,1.738-1.185c0.16-0.813-0.368-1.602-1.181-1.763c-0.29-0.058-7.146-1.267-17.655,9.543
		c-1.414,1.454-2.868,2.784-4.324,3.952c-0.646,0.519-0.75,1.462-0.231,2.109c0.296,0.369,0.731,0.561,1.171,0.561
		C30.58,28.046,30.912,27.938,31.188,27.716z"/>
	<linearGradient id="SVGID_6_" gradientUnits="userSpaceOnUse" x1="50.9985" y1="101" x2="50.9985" y2="-1.7631">
		<stop  offset="0" style="stop-color:#00A0F2"/>
		<stop  offset="1" style="stop-color:#35E3BB"/>
	</linearGradient>
	<path fill="url(#SVGID_6_)" d="M43.273,61.478c0.965,0.829,2.192,1.284,3.459,1.284c0.133,0,0.268-0.005,0.403-0.015
		c1.407-0.11,2.729-0.786,3.636-1.854l20.281-23.896c1.89-2.228,1.616-5.578-0.61-7.469c-0.959-0.813-2.176-1.259-3.429-1.259h0
		c-1.56,0-3.033,0.682-4.041,1.87L46.146,49.963l-7.698-6.632c-0.96-0.828-2.188-1.284-3.457-1.284c-1.544,0-3.007,0.67-4.015,1.838
		c-0.925,1.073-1.377,2.442-1.272,3.854c0.105,1.411,0.753,2.697,1.825,3.621L43.273,61.478z M33.246,45.845
		c0.455-0.527,1.098-0.798,1.744-0.798c0.531,0,1.065,0.183,1.499,0.557l9.988,8.604l18.781-22.129
		c0.454-0.536,1.102-0.811,1.754-0.811c0.526,0,1.055,0.179,1.487,0.546c0.968,0.822,1.087,2.273,0.265,3.241L48.485,58.95
		c-0.397,0.467-0.963,0.757-1.574,0.805c-0.06,0.004-0.12,0.007-0.179,0.007c-0.549,0-1.082-0.197-1.501-0.557L33.487,49.089
		C32.526,48.259,32.417,46.807,33.246,45.845z"/>
</g>
</svg>
