<?xml version="1.0" encoding="utf-8"?>
<!-- Generator: Adobe Illustrator 17.0.0, SVG Export Plug-In . SVG Version: 6.00 Build 0)  -->
<!DOCTYPE svg PUBLIC "-//W3C//DTD SVG 1.1//EN" "http://www.w3.org/Graphics/SVG/1.1/DTD/svg11.dtd">
<svg version="1.1" id="Layer_1" xmlns="http://www.w3.org/2000/svg" xmlns:xlink="http://www.w3.org/1999/xlink" x="0px" y="0px"
	 width="100px" height="100px" viewBox="0 0 100 100" enable-background="new 0 0 100 100" xml:space="preserve">
<g>
	<linearGradient id="SVGID_1_" gradientUnits="userSpaceOnUse" x1="50.3165" y1="88.75" x2="50.3165" y2="17.2343">
		<stop  offset="0" style="stop-color:#00A0F2"/>
		<stop  offset="1" style="stop-color:#35E3BB"/>
	</linearGradient>
	<path fill="url(#SVGID_1_)" d="M71.413,29.821H29.218c-3.395,0-6.157,2.762-6.157,6.158v26.444c0,3.396,2.762,6.158,6.157,6.158
		h42.194c3.396,0,6.159-2.763,6.159-6.158V35.979C77.572,32.583,74.809,29.821,71.413,29.821z M75.088,35.979v26.444
		c0,2.025-1.648,3.674-3.675,3.674H29.218c-2.025,0-3.673-1.648-3.673-3.674V35.979c0-2.025,1.647-3.673,3.673-3.673h42.194
		C73.439,32.305,75.088,33.953,75.088,35.979z"/>
	<linearGradient id="SVGID_2_" gradientUnits="userSpaceOnUse" x1="37.3585" y1="88.75" x2="37.3585" y2="17.2343">
		<stop  offset="0" style="stop-color:#00A0F2"/>
		<stop  offset="1" style="stop-color:#35E3BB"/>
	</linearGradient>
	<path fill="url(#SVGID_2_)" d="M37.359,41.107c-2.455,0-4.452,1.998-4.452,4.453c0,2.455,1.997,4.452,4.452,4.452
		s4.452-1.997,4.452-4.452C41.811,43.105,39.814,41.107,37.359,41.107z M36.125,43.136c0.727,0,1.317,0.591,1.317,1.318
		c0,0.726-0.591,1.317-1.317,1.317s-1.317-0.591-1.317-1.317C34.808,43.727,35.399,43.136,36.125,43.136z"/>
	<linearGradient id="SVGID_3_" gradientUnits="userSpaceOnUse" x1="63.2731" y1="88.75" x2="63.2731" y2="17.2343">
		<stop  offset="0" style="stop-color:#00A0F2"/>
		<stop  offset="1" style="stop-color:#35E3BB"/>
	</linearGradient>
	<path fill="url(#SVGID_3_)" d="M63.273,41.107c-2.455,0-4.452,1.998-4.452,4.453c0,2.455,1.997,4.452,4.452,4.452
		s4.452-1.997,4.452-4.452C67.725,43.105,65.728,41.107,63.273,41.107z M62.04,43.136c0.726,0,1.316,0.591,1.316,1.318
		c0,0.726-0.591,1.317-1.316,1.317c-0.727,0-1.317-0.591-1.317-1.317C60.722,43.727,61.313,43.136,62.04,43.136z"/>
	<linearGradient id="SVGID_4_" gradientUnits="userSpaceOnUse" x1="50.3164" y1="88.75" x2="50.3164" y2="17.2343">
		<stop  offset="0" style="stop-color:#00A0F2"/>
		<stop  offset="1" style="stop-color:#35E3BB"/>
	</linearGradient>
	<path fill="url(#SVGID_4_)" d="M55.114,51.926c-0.683,0.026-1.232,0.555-1.253,1.202c-0.005,0.168-0.17,4.107-3.455,4.107
		c-3.368,0-3.629-3.965-3.638-4.133c-0.036-0.681-0.542-1.176-1.295-1.176c-0.002,0-0.005,0-0.007,0
		c-0.331,0.016-0.636,0.161-0.859,0.406c-0.222,0.245-0.335,0.562-0.318,0.892c0.105,2.246,1.52,6.494,6.118,6.494
		c4.558,0,5.877-4.265,5.939-6.52C56.362,52.517,55.821,51.946,55.114,51.926z"/>
	<linearGradient id="SVGID_5_" gradientUnits="userSpaceOnUse" x1="50.3158" y1="88.75" x2="50.3158" y2="17.2343">
		<stop  offset="0" style="stop-color:#00A0F2"/>
		<stop  offset="1" style="stop-color:#35E3BB"/>
	</linearGradient>
	<path fill="url(#SVGID_5_)" d="M95.69,29.84c2.006-0.794,3.322-2.696,3.322-4.869c0-2.902-2.361-5.264-5.265-5.264
		s-5.265,2.361-5.265,5.264c0,2.615,1.925,4.811,4.508,5.185l2.343,3.966l-5.209-0.899c-0.375-0.061-0.749,0.046-1.032,0.292
		l-2.708,2.389c-1.094-0.641-2.305-1.049-3.609-1.217v-7.666c0-3.396-2.763-6.158-6.159-6.158H24.015
		c-3.395,0-6.157,2.763-6.157,6.158v7.666c-1.305,0.167-2.517,0.575-3.611,1.217l-2.711-2.391c-0.282-0.245-0.657-0.355-1.031-0.291
		l-5.208,0.899l2.343-3.966c2.583-0.374,4.508-2.57,4.508-5.185c0-2.902-2.362-5.264-5.265-5.264s-5.265,2.361-5.265,5.264
		c0,2.174,1.316,4.076,3.321,4.869l-3.15,5.332c-0.244,0.417-0.225,0.942,0.048,1.334c0.265,0.391,0.712,0.601,1.234,0.521
		l7.268-1.254l1.913,1.688c-1.796,1.819-2.78,4.191-2.78,6.725c0,4.851,3.581,8.875,8.384,9.496V67.05
		c0,3.396,2.762,6.158,6.157,6.158h52.601c3.396,0,6.159-2.763,6.159-6.158V53.682c4.803-0.622,8.382-4.646,8.382-9.496
		c0-2.534-0.983-4.906-2.779-6.726l1.913-1.688l7.271,1.255c0.068,0.011,0.137,0.017,0.204,0.017c0,0,0,0,0.001,0
		c0.411,0,0.795-0.2,1.024-0.535c0.275-0.396,0.295-0.92,0.05-1.339L95.69,29.84z M96.528,24.971c0,1.533-1.247,2.78-2.78,2.78
		s-2.78-1.247-2.78-2.78c0-1.533,1.247-2.779,2.78-2.779S96.528,23.439,96.528,24.971z M88.672,44.186
		c0,3.486-2.507,6.438-5.897,7.032V37.153C86.166,37.748,88.672,40.699,88.672,44.186z M76.616,70.724H24.015
		c-2.025,0-3.673-1.648-3.673-3.674V27.023c0-2.026,1.647-3.674,3.673-3.674h52.601c2.026,0,3.675,1.648,3.675,3.674V67.05
		C80.291,69.076,78.642,70.724,76.616,70.724z M17.858,37.153v14.064c-3.392-0.594-5.899-3.545-5.899-7.032
		C11.959,40.699,14.466,37.748,17.858,37.153z M4.104,24.971c0-1.533,1.247-2.779,2.78-2.779s2.78,1.247,2.78,2.779
		c0,1.533-1.247,2.78-2.78,2.78S4.104,26.505,4.104,24.971z"/>
	<linearGradient id="SVGID_6_" gradientUnits="userSpaceOnUse" x1="50.3165" y1="88.75" x2="50.3165" y2="17.2343">
		<stop  offset="0" style="stop-color:#00A0F2"/>
		<stop  offset="1" style="stop-color:#35E3BB"/>
	</linearGradient>
	<path fill="url(#SVGID_6_)" d="M64.733,81.441h-5.447c-1.987,0-2.658-4.656-2.659-6.78v-0.375l-2.484,0.001v0.375
		c0,0.179,0.018,4.113,1.463,6.779H45.027c1.444-2.666,1.462-6.601,1.462-6.779v-0.375l-2.484-0.001l0,0.375
		c-0.001,2.124-0.674,6.78-2.66,6.78H35.9c-0.685,0-1.242,0.558-1.242,1.242s0.557,1.242,1.242,1.242h28.833
		c0.685,0,1.242-0.558,1.242-1.242S65.418,81.441,64.733,81.441z"/>
</g>
</svg>
