<?xml version="1.0" encoding="utf-8"?>
<!-- Generator: Adobe Illustrator 17.0.0, SVG Export Plug-In . SVG Version: 6.00 Build 0)  -->
<!DOCTYPE svg PUBLIC "-//W3C//DTD SVG 1.1//EN" "http://www.w3.org/Graphics/SVG/1.1/DTD/svg11.dtd">
<svg version="1.1" id="Layer_1" xmlns="http://www.w3.org/2000/svg" xmlns:xlink="http://www.w3.org/1999/xlink" x="0px" y="0px"
	 width="100px" height="100px" viewBox="0 0 100 100" enable-background="new 0 0 100 100" xml:space="preserve">
<g>
	
		<linearGradient id="SVGID_1_" gradientUnits="userSpaceOnUse" x1="-495.015" y1="2575.1787" x2="-495.015" y2="2643.3958" gradientTransform="matrix(1 0 0 -1 538.62 2656.78)">
		<stop  offset="0" style="stop-color:#00A0F2"/>
		<stop  offset="1" style="stop-color:#35E3BB"/>
	</linearGradient>
	<path fill="url(#SVGID_1_)" d="M41.164,20.595h4.881c0.635,0,1.148-0.393,1.148-1.028s-0.513-1.028-1.148-1.028h-4.881
		c-0.635,0-1.148,0.393-1.148,1.028S40.53,20.595,41.164,20.595z"/>
	
		<linearGradient id="SVGID_2_" gradientUnits="userSpaceOnUse" x1="-495.0147" y1="2567.0491" x2="-495.0147" y2="2643.2449" gradientTransform="matrix(1 0 0 -1 538.62 2656.78)">
		<stop  offset="0" style="stop-color:#00A0F2"/>
		<stop  offset="1" style="stop-color:#35E3BB"/>
	</linearGradient>
	<circle fill="url(#SVGID_2_)" cx="43.605" cy="70.016" r="1.531"/>
	
		<linearGradient id="SVGID_3_" gradientUnits="userSpaceOnUse" x1="-454.1173" y1="2567.5491" x2="-454.1173" y2="2643.7449" gradientTransform="matrix(1 0 0 -1 538.62 2656.78)">
		<stop  offset="0" style="stop-color:#00A0F2"/>
		<stop  offset="1" style="stop-color:#35E3BB"/>
	</linearGradient>
	<circle fill="url(#SVGID_3_)" cx="84.503" cy="85.02" r="1.531"/>
	
		<linearGradient id="SVGID_4_" gradientUnits="userSpaceOnUse" x1="-488.62" y1="2567.7217" x2="-488.62" y2="2644.2075" gradientTransform="matrix(1 0 0 -1 538.62 2656.78)">
		<stop  offset="0" style="stop-color:#00A0F2"/>
		<stop  offset="1" style="stop-color:#35E3BB"/>
	</linearGradient>
	<path fill="url(#SVGID_4_)" d="M92.542,45.957h-7.926v-24.56c0-4.432-3.655-7.657-8.087-7.657H10.683
		c-4.432,0-9.008,3.224-9.008,7.657v45.475c0,4.432,4.576,8.56,9.008,8.56h26.94c0.918,5.859-3.309,9.596-3.309,9.596H21.641
		c-0.635,0-1.148,0.393-1.148,1.028c0,0.635,0.513,1.028,1.148,1.028H65.57c0.635,0,1.148-0.393,1.148-1.028
		c0-0.635-0.513-1.028-1.148-1.028H52.897c0,0-3.31-2.404-3.31-9.596h21.319v4.918v2.297v1.148c0,3.168,2.39,6.031,5.557,6.031
		h16.078c3.168,0,5.783-2.864,5.783-6.031V51.639C98.325,48.474,95.709,45.957,92.542,45.957z M4.417,21.397
		c0-3.166,3.1-5.6,6.266-5.6h65.845c3.168,0,5.345,2.434,5.345,5.6v24.56h-5.41c-3.168,0-5.557,2.516-5.557,5.682v1.148v2.297v9.381
		H4.417V21.397z M49.8,85.029H37.41c2.425-2.742,2.625-6.855,2.518-9.596h7.356C47.175,78.174,47.375,82.287,49.8,85.029z
		 M10.683,73.376c-3.166,0-6.266-3.337-6.266-6.504v-0.351h66.49v6.855H10.683z M96.269,83.796c0,1.9-1.827,3.289-3.727,3.289
		H76.464c-1.9,0-3.501-1.389-3.501-3.289v-0.824h23.306V83.796z M96.269,80.23H72.963V54.868h23.306V80.23z M96.269,52.812H72.963
		v-1.173c0-1.9,1.601-3.625,3.501-3.625h5.742h2.297h8.039c1.9,0,3.727,1.726,3.727,3.625L96.269,52.812L96.269,52.812z"/>
	
		<linearGradient id="SVGID_5_" gradientUnits="userSpaceOnUse" x1="-502.4951" y1="2568.0073" x2="-502.4951" y2="2644.2031" gradientTransform="matrix(1 0 0 -1 538.62 2656.78)">
		<stop  offset="0" style="stop-color:#00A0F2"/>
		<stop  offset="1" style="stop-color:#35E3BB"/>
	</linearGradient>
	<path fill="url(#SVGID_5_)" d="M45.949,29.773c-0.448-0.448-1.176-0.448-1.624,0L26.301,47.797c-0.448,0.448-0.448,1.176,0,1.624
		c0.224,0.224,0.518,0.337,0.812,0.337s0.587-0.112,0.812-0.337L45.95,31.397C46.397,30.949,46.397,30.222,45.949,29.773z"/>
	
		<linearGradient id="SVGID_6_" gradientUnits="userSpaceOnUse" x1="-491.0105" y1="2568.0073" x2="-491.0105" y2="2644.2031" gradientTransform="matrix(1 0 0 -1 538.62 2656.78)">
		<stop  offset="0" style="stop-color:#00A0F2"/>
		<stop  offset="1" style="stop-color:#35E3BB"/>
	</linearGradient>
	<path fill="url(#SVGID_6_)" d="M55.809,34.367L37.785,52.391c-0.448,0.448-0.448,1.176,0,1.624
		c0.224,0.224,0.518,0.337,0.812,0.337s0.587-0.112,0.812-0.337l18.024-18.024c0.448-0.448,0.448-1.176,0-1.624
		C56.985,33.918,56.258,33.918,55.809,34.367z"/>
	
		<linearGradient id="SVGID_7_" gradientUnits="userSpaceOnUse" x1="-452.8256" y1="2568.0073" x2="-452.8256" y2="2644.2031" gradientTransform="matrix(1 0 0 -1 538.62 2656.78)">
		<stop  offset="0" style="stop-color:#00A0F2"/>
		<stop  offset="1" style="stop-color:#35E3BB"/>
	</linearGradient>
	<path fill="url(#SVGID_7_)" d="M80.117,71.401c0.224,0.224,0.518,0.337,0.812,0.337s0.587-0.112,0.812-0.337l9.73-9.73
		c0.448-0.448,0.448-1.176,0-1.624c-0.448-0.448-1.176-0.448-1.624,0l-9.731,9.73C79.669,70.225,79.669,70.952,80.117,71.401z"/>
</g>
</svg>
