<?xml version="1.0" encoding="utf-8"?>
<!-- Generator: Adobe Illustrator 17.0.0, SVG Export Plug-In . SVG Version: 6.00 Build 0)  -->
<!DOCTYPE svg PUBLIC "-//W3C//DTD SVG 1.1//EN" "http://www.w3.org/Graphics/SVG/1.1/DTD/svg11.dtd">
<svg version="1.1" id="Layer_1" xmlns="http://www.w3.org/2000/svg" xmlns:xlink="http://www.w3.org/1999/xlink" x="0px" y="0px"
	 width="100px" height="100px" viewBox="0 0 100 100" enable-background="new 0 0 100 100" xml:space="preserve">
<g>
	<linearGradient id="SVGID_1_" gradientUnits="userSpaceOnUse" x1="27.5455" y1="106" x2="27.5455" y2="-1.2986">
		<stop  offset="0" style="stop-color:#00A0F2"/>
		<stop  offset="1" style="stop-color:#35E3BB"/>
	</linearGradient>
	<path fill="url(#SVGID_1_)" d="M33.271,46.219c-0.61-0.557-1.561-0.514-2.119,0.1l-5.756,6.319l-1.486-1.539
		c-0.576-0.595-1.525-0.612-2.121-0.037c-0.596,0.576-0.612,1.525-0.037,2.121l2.598,2.524C24.632,56,25.021,56,25.428,56
		c0.007,0,0.015,0,0.021,0c0.415,0,0.809-0.019,1.088-0.325l6.833-7.419C33.928,47.643,33.883,46.777,33.271,46.219z"/>
	<linearGradient id="SVGID_2_" gradientUnits="userSpaceOnUse" x1="78" y1="106" x2="78" y2="-1.2986">
		<stop  offset="0" style="stop-color:#00A0F2"/>
		<stop  offset="1" style="stop-color:#35E3BB"/>
	</linearGradient>
	<path fill="url(#SVGID_2_)" d="M75.234,26.091c-0.027,0.006-2.87,0.25-4.539-1.282C69.712,23.906,69,22.553,69,20.704v-9.408
		c0-0.828-0.672-1.5-1.5-1.5s-1.5,0.672-1.5,1.5v9.408c0,2.737,1.047,4.798,2.69,6.293C71.171,29.252,74.833,29,75.426,29H87v30.206
		c0,0.828,0.672,1.5,1.5,1.5s1.5-0.672,1.5-1.5V27.671C90,26.843,89.595,26,88.767,26H75.369C75.326,26,75.276,26.088,75.234,26.091
		z"/>
	<linearGradient id="SVGID_3_" gradientUnits="userSpaceOnUse" x1="46.1524" y1="106" x2="46.1524" y2="-1.2986">
		<stop  offset="0" style="stop-color:#00A0F2"/>
		<stop  offset="1" style="stop-color:#35E3BB"/>
	</linearGradient>
	<path fill="url(#SVGID_3_)" d="M58,93H17.311C13.93,93,10,90.593,10,87.49V11.568C10,8.433,13.93,6,17.311,6h51.418l13.94,16.146
		c0.542,0.628,1.489,0.696,2.116,0.155c0.627-0.542,0.696-1.489,0.155-2.116L70.551,3.52C70.266,3.189,69.851,3,69.415,3H17.311
		C12.434,3,7,6.519,7,11.568V87.49C7,92.505,12.434,96,17.311,96H58c0.828,0,1.5-0.672,1.5-1.5S58.828,93,58,93z"/>
	<linearGradient id="SVGID_4_" gradientUnits="userSpaceOnUse" x1="79.6558" y1="106" x2="79.6558" y2="-1.2986">
		<stop  offset="0" style="stop-color:#00A0F2"/>
		<stop  offset="1" style="stop-color:#35E3BB"/>
	</linearGradient>
	<path fill="url(#SVGID_4_)" d="M94.982,68.061l-3.963-3.964c-1.074-1.074-2.507-1.666-4.033-1.666
		c-1.527,0-2.959,0.592-4.033,1.666l-2.973,2.973L63.135,83.914c-0.078,0.078-0.144,0.165-0.202,0.256
		c-0.17,0.244-0.271,0.539-0.269,0.859l0.032,9.692c0.003,0.826,0.674,1.278,1.5,1.278h9.844c0.421,0,0.8,0.042,1.072-0.237
		c0.016-0.015,0.038,0.089,0.054,0.073L92.01,79.045l2.973-2.946c1.074-1.074,1.666-2.493,1.666-4.02
		C96.648,70.553,96.057,69.134,94.982,68.061z M81.041,70.251l2.833,2.833L69.15,87.808l-2.833-2.833L81.041,70.251z M65.675,88.141
		L70.533,93H65.69L65.675,88.141z M74.104,92.763l-2.833-2.833l14.724-14.724l2.833,2.834L74.104,92.763z M92.861,74.006
		l-1.912,1.912l-3.894-3.894l-3.894-3.894l1.912-1.912c1.016-1.014,2.809-1.014,3.824,0l3.963,3.964
		c0.508,0.508,0.787,1.187,0.787,1.912C93.648,72.818,93.369,73.498,92.861,74.006z"/>
	<linearGradient id="SVGID_5_" gradientUnits="userSpaceOnUse" x1="27" y1="106" x2="27" y2="-1.2986">
		<stop  offset="0" style="stop-color:#00A0F2"/>
		<stop  offset="1" style="stop-color:#35E3BB"/>
	</linearGradient>
	<path fill="url(#SVGID_5_)" d="M33,63.5c0-0.828-0.672-1.5-1.5-1.5h-9c-0.828,0-1.5,0.672-1.5,1.5v9c0,0.828,0.672,1.5,1.5,1.5h9
		c0.828,0,1.5-0.672,1.5-1.5V63.5z M31,71h-7v-6h7V71z"/>
	<linearGradient id="SVGID_6_" gradientUnits="userSpaceOnUse" x1="27" y1="106" x2="27" y2="-1.2986">
		<stop  offset="0" style="stop-color:#00A0F2"/>
		<stop  offset="1" style="stop-color:#35E3BB"/>
	</linearGradient>
	<path fill="url(#SVGID_6_)" d="M33,28.5c0-0.828-0.672-1.5-1.5-1.5h-9c-0.828,0-1.5,0.672-1.5,1.5v9c0,0.828,0.672,1.5,1.5,1.5h9
		c0.828,0,1.5-0.672,1.5-1.5V28.5z M24,30h7v7h-7V30z"/>
	<linearGradient id="SVGID_7_" gradientUnits="userSpaceOnUse" x1="47.8306" y1="106" x2="47.8306" y2="-1.2986">
		<stop  offset="0" style="stop-color:#00A0F2"/>
		<stop  offset="1" style="stop-color:#35E3BB"/>
	</linearGradient>
	<path fill="url(#SVGID_7_)" d="M41.132,31h13.397c0.828,0,1.5-0.672,1.5-1.5s-0.672-1.5-1.5-1.5H41.132c-0.828,0-1.5,0.672-1.5,1.5
		S40.304,31,41.132,31z"/>
	<linearGradient id="SVGID_8_" gradientUnits="userSpaceOnUse" x1="46.3413" y1="106" x2="46.3413" y2="-1.2986">
		<stop  offset="0" style="stop-color:#00A0F2"/>
		<stop  offset="1" style="stop-color:#35E3BB"/>
	</linearGradient>
	<path fill="url(#SVGID_8_)" d="M41.132,40h10.419c0.828,0,1.5-0.672,1.5-1.5s-0.672-1.5-1.5-1.5H41.132c-0.828,0-1.5,0.672-1.5,1.5
		S40.304,40,41.132,40z"/>
	<linearGradient id="SVGID_9_" gradientUnits="userSpaceOnUse" x1="65.7729" y1="106" x2="65.7729" y2="-1.2986">
		<stop  offset="0" style="stop-color:#00A0F2"/>
		<stop  offset="1" style="stop-color:#35E3BB"/>
	</linearGradient>
	<path fill="url(#SVGID_9_)" d="M74.039,37H57.507c-0.828,0-1.5,0.672-1.5,1.5s0.672,1.5,1.5,1.5h16.532c0.828,0,1.5-0.672,1.5-1.5
		S74.867,37,74.039,37z"/>
	<linearGradient id="SVGID_10_" gradientUnits="userSpaceOnUse" x1="43.1777" y1="106" x2="43.1777" y2="-1.2986">
		<stop  offset="0" style="stop-color:#00A0F2"/>
		<stop  offset="1" style="stop-color:#35E3BB"/>
	</linearGradient>
	<path fill="url(#SVGID_10_)" d="M41.132,48h4.092c0.828,0,1.5-0.672,1.5-1.5s-0.672-1.5-1.5-1.5h-4.092c-0.828,0-1.5,0.672-1.5,1.5
		S40.304,48,41.132,48z"/>
	<linearGradient id="SVGID_11_" gradientUnits="userSpaceOnUse" x1="62.687" y1="106" x2="62.687" y2="-1.2986">
		<stop  offset="0" style="stop-color:#00A0F2"/>
		<stop  offset="1" style="stop-color:#35E3BB"/>
	</linearGradient>
	<path fill="url(#SVGID_11_)" d="M66.233,63.5c0-0.828-0.672-1.5-1.5-1.5h-4.093c-0.828,0-1.5,0.672-1.5,1.5s0.672,1.5,1.5,1.5
		h4.093C65.562,65,66.233,64.328,66.233,63.5z"/>
	<linearGradient id="SVGID_12_" gradientUnits="userSpaceOnUse" x1="59.7935" y1="106" x2="59.7935" y2="-1.2986">
		<stop  offset="0" style="stop-color:#00A0F2"/>
		<stop  offset="1" style="stop-color:#35E3BB"/>
	</linearGradient>
	<path fill="url(#SVGID_12_)" d="M70.649,46.5c0-0.828-0.672-1.5-1.5-1.5H50.438c-0.828,0-1.5,0.672-1.5,1.5s0.672,1.5,1.5,1.5
		h18.712C69.978,48,70.649,47.328,70.649,46.5z"/>
	<linearGradient id="SVGID_13_" gradientUnits="userSpaceOnUse" x1="47.8306" y1="106" x2="47.8306" y2="-1.2986">
		<stop  offset="0" style="stop-color:#00A0F2"/>
		<stop  offset="1" style="stop-color:#35E3BB"/>
	</linearGradient>
	<path fill="url(#SVGID_13_)" d="M54.529,54H41.132c-0.828,0-1.5,0.672-1.5,1.5s0.672,1.5,1.5,1.5h13.397c0.828,0,1.5-0.672,1.5-1.5
		S55.357,54,54.529,54z"/>
	<linearGradient id="SVGID_14_" gradientUnits="userSpaceOnUse" x1="67.3398" y1="106" x2="67.3398" y2="-1.2986">
		<stop  offset="0" style="stop-color:#00A0F2"/>
		<stop  offset="1" style="stop-color:#35E3BB"/>
	</linearGradient>
	<path fill="url(#SVGID_14_)" d="M60.641,57h13.398c0.828,0,1.5-0.672,1.5-1.5s-0.672-1.5-1.5-1.5H60.641
		c-0.828,0-1.5,0.672-1.5,1.5S59.813,57,60.641,57z"/>
	<linearGradient id="SVGID_15_" gradientUnits="userSpaceOnUse" x1="47.8306" y1="106" x2="47.8306" y2="-1.2986">
		<stop  offset="0" style="stop-color:#00A0F2"/>
		<stop  offset="1" style="stop-color:#35E3BB"/>
	</linearGradient>
	<path fill="url(#SVGID_15_)" d="M54.529,62H41.132c-0.828,0-1.5,0.672-1.5,1.5s0.672,1.5,1.5,1.5h13.397c0.828,0,1.5-0.672,1.5-1.5
		S55.357,62,54.529,62z"/>
	<linearGradient id="SVGID_16_" gradientUnits="userSpaceOnUse" x1="47.8306" y1="106" x2="47.8306" y2="-1.2986">
		<stop  offset="0" style="stop-color:#00A0F2"/>
		<stop  offset="1" style="stop-color:#35E3BB"/>
	</linearGradient>
	<path fill="url(#SVGID_16_)" d="M54.529,71H41.132c-0.828,0-1.5,0.672-1.5,1.5s0.672,1.5,1.5,1.5h13.397c0.828,0,1.5-0.672,1.5-1.5
		S55.357,71,54.529,71z"/>
</g>
</svg>
