<?xml version="1.0" encoding="utf-8"?>
<!-- Generator: Adobe Illustrator 17.0.0, SVG Export Plug-In . SVG Version: 6.00 Build 0)  -->
<!DOCTYPE svg PUBLIC "-//W3C//DTD SVG 1.1//EN" "http://www.w3.org/Graphics/SVG/1.1/DTD/svg11.dtd">
<svg version="1.1" id="Layer_1" xmlns="http://www.w3.org/2000/svg" xmlns:xlink="http://www.w3.org/1999/xlink" x="0px" y="0px"
	 width="100px" height="100px" viewBox="0 0 100 100" enable-background="new 0 0 100 100" xml:space="preserve">
<g>
	<linearGradient id="SVGID_1_" gradientUnits="userSpaceOnUse" x1="78.222" y1="100.5" x2="78.222" y2="-5.019">
		<stop  offset="0" style="stop-color:#00A0F2"/>
		<stop  offset="1" style="stop-color:#35E3BB"/>
	</linearGradient>
	<path fill="url(#SVGID_1_)" d="M70.068,12.103c-0.806-0.182-1.604,0.319-1.792,1.123c-0.187,0.805,0.314,1.61,1.118,1.8
		c0.484,0.115,11.914,3.01,15.851,20.067c0.16,0.694,0.777,1.163,1.46,1.163c0.112,0,0.225-0.013,0.339-0.039
		c0.807-0.186,1.311-0.992,1.124-1.799C83.789,15.442,70.626,12.23,70.068,12.103z"/>
	<linearGradient id="SVGID_2_" gradientUnits="userSpaceOnUse" x1="84.6554" y1="100.5" x2="84.6554" y2="-5.019">
		<stop  offset="0" style="stop-color:#00A0F2"/>
		<stop  offset="1" style="stop-color:#35E3BB"/>
	</linearGradient>
	<path fill="url(#SVGID_2_)" d="M98.21,32.487C92.059,5.83,73.675,1.342,72.896,1.164c-0.805-0.182-1.612,0.321-1.796,1.128
		s0.321,1.612,1.128,1.796c0.173,0.04,17.326,4.229,23.06,29.073c0.16,0.694,0.777,1.163,1.46,1.163
		c0.112,0,0.225-0.013,0.339-0.039C97.894,34.1,98.397,33.294,98.21,32.487z"/>
	<linearGradient id="SVGID_3_" gradientUnits="userSpaceOnUse" x1="22.6048" y1="100.5" x2="22.6048" y2="-5.019">
		<stop  offset="0" style="stop-color:#00A0F2"/>
		<stop  offset="1" style="stop-color:#35E3BB"/>
	</linearGradient>
	<path fill="url(#SVGID_3_)" d="M15.58,35.093c3.933-17.04,15.342-19.946,15.849-20.066c0.805-0.187,1.308-0.989,1.124-1.795
		c-0.185-0.808-0.991-1.311-1.796-1.128c-0.558,0.127-13.721,3.34-18.1,22.315c-0.187,0.807,0.317,1.613,1.124,1.799
		c0.114,0.026,0.227,0.039,0.339,0.039C14.803,36.256,15.42,35.787,15.58,35.093z"/>
	<linearGradient id="SVGID_4_" gradientUnits="userSpaceOnUse" x1="16.1697" y1="100.5" x2="16.1697" y2="-5.019">
		<stop  offset="0" style="stop-color:#00A0F2"/>
		<stop  offset="1" style="stop-color:#35E3BB"/>
	</linearGradient>
	<path fill="url(#SVGID_4_)" d="M28.599,4.088c0.807-0.186,1.311-0.989,1.126-1.796c-0.185-0.809-0.992-1.312-1.796-1.128
		C27.15,1.342,8.767,5.83,2.615,32.487c-0.187,0.807,0.317,1.613,1.124,1.799c0.114,0.026,0.227,0.039,0.339,0.039
		c0.683,0,1.3-0.47,1.46-1.163C11.241,8.446,27.865,4.26,28.599,4.088z"/>
	<linearGradient id="SVGID_5_" gradientUnits="userSpaceOnUse" x1="50.4847" y1="100.5" x2="50.4847" y2="-5.019">
		<stop  offset="0" style="stop-color:#00A0F2"/>
		<stop  offset="1" style="stop-color:#35E3BB"/>
	</linearGradient>
	<path fill="url(#SVGID_5_)" d="M86.079,79.17c-5.43-2.836-9.996-13.042-10.176-22.743c-0.003-0.281-0.016-9.078-0.022-13.688
		c0-10.054-6.337-19.096-15.89-22.921c0.068-0.439,0.102-0.862,0.102-1.281c0-5.337-4.342-9.679-9.679-9.679
		s-9.679,4.342-9.679,9.679c0,0.457,0.041,0.916,0.12,1.393c-9.394,3.889-15.625,12.886-15.625,22.807c0,0-0.017,13.302-0.02,13.624
		c-0.163,9.804-4.786,20.064-10.304,22.871c-0.512,0.26-0.83,0.791-0.819,1.365c0.01,0.574,0.348,1.092,0.87,1.333
		c5.944,2.75,14.385,4.732,23.88,5.622c0.492,5.961,5.492,10.663,11.577,10.663c6.086,0,11.085-4.702,11.577-10.663
		c9.579-0.898,18.074-2.904,24.031-5.694c0.517-0.242,0.851-0.756,0.863-1.326C86.896,79.962,86.584,79.435,86.079,79.17z
		 M50.413,11.859c3.683,0,6.679,2.996,6.679,6.679c0,0.096-0.003,0.193-0.009,0.292c-0.081-0.022-0.162-0.036-0.242-0.057
		c-0.183-0.047-0.366-0.086-0.549-0.13c-0.47-0.112-0.941-0.211-1.413-0.295c-0.187-0.033-0.374-0.064-0.561-0.093
		c-0.507-0.079-1.015-0.14-1.524-0.187c-0.136-0.012-0.271-0.029-0.407-0.039c-1.316-0.099-2.633-0.091-3.949,0.023
		c-0.13,0.011-0.261,0.029-0.391,0.043c-0.514,0.053-1.028,0.121-1.541,0.207c-0.183,0.03-0.365,0.063-0.547,0.097
		c-0.478,0.091-0.954,0.197-1.43,0.316c-0.177,0.044-0.355,0.084-0.532,0.132c-0.083,0.023-0.167,0.039-0.251,0.062
		c-0.009-0.125-0.014-0.249-0.014-0.371C43.733,14.855,46.729,11.859,50.413,11.859z M50.413,95.216
		c-4.346,0-7.951-3.23-8.542-7.416c0.742,0.051,1.492,0.076,2.238,0.114c0.523,0.026,1.04,0.06,1.564,0.079
		c1.483,0.055,2.97,0.087,4.458,0.091c0.094,0,0.187,0.006,0.281,0.006s0.187-0.006,0.281-0.006
		c1.488-0.003,2.975-0.035,4.458-0.091c0.524-0.02,1.042-0.053,1.564-0.079c0.746-0.037,1.496-0.063,2.238-0.114
		C58.364,91.986,54.758,95.216,50.413,95.216z M60.395,84.684c-6.572,0.538-13.393,0.538-19.965,0
		c-8.408-0.689-15.987-2.241-21.708-4.424c5.819-4.891,9.345-15.358,9.487-23.85c0.003-0.181,0.017-11.418,0.02-13.671
		c0-9.092,5.979-17.322,14.877-20.479c0.604-0.214,1.21-0.402,1.818-0.563c1.824-0.484,3.667-0.732,5.509-0.742
		c1.842-0.011,3.685,0.128,5.511,0.591C56.553,21.7,57.159,22,57.764,22c0,0,0.001,0,0.001,0c9.041,3,15.115,11.445,15.115,20.654
		c0.003,2.258,0.019,13.577,0.023,13.779c0.157,8.411,3.648,18.838,9.384,23.733C76.544,82.387,68.898,83.987,60.395,84.684z"/>
	<linearGradient id="SVGID_6_" gradientUnits="userSpaceOnUse" x1="50.4127" y1="100.5" x2="50.4127" y2="-5.019">
		<stop  offset="0" style="stop-color:#00A0F2"/>
		<stop  offset="1" style="stop-color:#35E3BB"/>
	</linearGradient>
	<path fill="url(#SVGID_6_)" d="M69.014,74.241c-5.85,0.978-12.146,1.474-18.714,1.474c-6.482,0-12.704-0.483-18.493-1.437
		c-0.815-0.134-1.589,0.418-1.724,1.236c-0.135,0.817,0.419,1.589,1.236,1.724c5.949,0.98,12.335,1.477,18.98,1.477
		c6.732,0,13.195-0.51,19.209-1.515c0.817-0.137,1.369-0.91,1.232-1.727S69.833,74.104,69.014,74.241z"/>
</g>
</svg>
