<?xml version="1.0" encoding="utf-8"?>
<!-- Generator: Adobe Illustrator 17.0.0, SVG Export Plug-In . SVG Version: 6.00 Build 0)  -->
<!DOCTYPE svg PUBLIC "-//W3C//DTD SVG 1.1//EN" "http://www.w3.org/Graphics/SVG/1.1/DTD/svg11.dtd">
<svg version="1.1" id="Layer_1" xmlns="http://www.w3.org/2000/svg" xmlns:xlink="http://www.w3.org/1999/xlink" x="0px" y="0px"
	 width="100px" height="100px" viewBox="0 0 100 100" enable-background="new 0 0 100 100" xml:space="preserve">
<g>
	<linearGradient id="SVGID_1_" gradientUnits="userSpaceOnUse" x1="51.3759" y1="88" x2="51.3759" y2="15.2714">
		<stop  offset="0" style="stop-color:#00A0F2"/>
		<stop  offset="1" style="stop-color:#35E3BB"/>
	</linearGradient>
	<path fill="url(#SVGID_1_)" d="M79.07,29.443c-1.58-0.194-3.547-0.436-5.756-2.227c-0.498-0.404-0.551-0.831-0.573-1.947
		c-0.034-1.655-0.086-4.157-4.049-5.424c-8.181-2.615-12.537-3.847-17.137-3.847c-4.613,0-9.081,1.257-17.491,3.924
		c-3.97,1.258-4.021,3.765-4.054,5.423c-0.022,1.117-0.075,1.544-0.573,1.948c-2.209,1.792-4.175,2.033-5.756,2.228
		c-2.114,0.26-4.745,0.583-4.335,5.311c2.25,25.977,7.308,37.53,31.239,50.623l0.712,0.391l0.873-0.468
		c23.919-12.993,28.978-24.56,31.234-50.623C83.815,30.026,81.184,29.703,79.07,29.443z M80.417,34.496
		c-2.173,25.084-6.71,35.635-29.106,47.933C29.02,70.066,24.496,59.517,22.336,34.573c-0.16-1.845-0.16-1.845,1.712-2.075
		c1.753-0.216,4.402-0.541,7.279-2.875c1.624-1.317,1.658-2.994,1.682-4.218c0.029-1.425,0.041-2.015,1.961-2.624
		c8.11-2.571,12.39-3.783,16.584-3.783c4.178,0,8.346,1.187,16.223,3.705c1.922,0.614,1.934,1.204,1.963,2.628
		c0.025,1.223,0.06,2.898,1.684,4.215c2.878,2.334,5.526,2.659,7.279,2.875C80.576,32.651,80.576,32.651,80.417,34.496z"/>
	<linearGradient id="SVGID_2_" gradientUnits="userSpaceOnUse" x1="51.3761" y1="88" x2="51.3761" y2="15.2714">
		<stop  offset="0" style="stop-color:#00A0F2"/>
		<stop  offset="1" style="stop-color:#35E3BB"/>
	</linearGradient>
	<path fill="url(#SVGID_2_)" d="M73.072,33.779c-1.257-0.154-2.681-0.329-4.334-1.671c-0.262-0.211-0.311-0.402-0.328-1.275
		c-0.027-1.303-0.072-3.484-3.394-4.546c-6.43-2.055-9.857-3.023-13.5-3.023c-3.653,0-7.167,0.987-13.776,3.083
		c-3.328,1.055-3.372,3.24-3.398,4.545c-0.018,0.874-0.066,1.065-0.327,1.276c-1.654,1.341-3.078,1.517-4.334,1.671
		c-1.602,0.197-4.023,0.495-3.676,4.506c1.771,20.442,5.753,29.534,24.596,39.844l0.708,0.388l0.846-0.447
		c18.835-10.232,22.817-19.335,24.594-39.845C77.096,34.274,74.675,33.977,73.072,33.779z M73.76,38.026
		c-1.683,19.427-5.191,27.632-22.435,37.138c-17.163-9.56-20.659-17.762-22.332-37.078c-0.059-0.682-0.006-0.985,0.025-1.096
		c0.195-0.071,0.671-0.13,1.028-0.174c1.408-0.173,3.535-0.435,5.858-2.318c1.388-1.125,1.417-2.582,1.437-3.546
		c0.022-1.083,0.027-1.341,1.306-1.746c6.309-2,9.635-2.943,12.87-2.943c3.221,0,6.459,0.922,12.586,2.881
		c1.28,0.409,1.286,0.667,1.308,1.751c0.021,0.962,0.051,2.417,1.438,3.543c2.323,1.884,4.451,2.146,5.858,2.319
		c0.357,0.043,0.833,0.102,1.028,0.174C73.765,37.042,73.818,37.345,73.76,38.026z"/>
	<linearGradient id="SVGID_3_" gradientUnits="userSpaceOnUse" x1="51.3761" y1="88" x2="51.3761" y2="15.2714">
		<stop  offset="0" style="stop-color:#00A0F2"/>
		<stop  offset="1" style="stop-color:#35E3BB"/>
	</linearGradient>
	<path fill="url(#SVGID_3_)" d="M62.42,40.796L49.447,56.082l-9.251-8.378c-0.614-0.556-1.563-0.509-2.119,0.105
		c-0.556,0.614-0.509,1.563,0.105,2.119l10.4,9.418c0.276,0.25,0.636,0.388,1.007,0.388c0.032,0,0.065-0.001,0.099-0.003
		c0.405-0.027,0.782-0.217,1.045-0.526l13.975-16.466c0.536-0.632,0.459-1.578-0.173-2.114
		C63.901,40.086,62.955,40.166,62.42,40.796z"/>
</g>
</svg>
