<?xml version="1.0" encoding="utf-8"?>
<!-- Generator: Adobe Illustrator 17.0.0, SVG Export Plug-In . SVG Version: 6.00 Build 0)  -->
<!DOCTYPE svg PUBLIC "-//W3C//DTD SVG 1.1//EN" "http://www.w3.org/Graphics/SVG/1.1/DTD/svg11.dtd">
<svg version="1.1" id="Layer_1" xmlns="http://www.w3.org/2000/svg" xmlns:xlink="http://www.w3.org/1999/xlink" x="0px" y="0px"
	 width="100px" height="100px" viewBox="0 0 100 100" enable-background="new 0 0 100 100" xml:space="preserve">
<g>
	<linearGradient id="SVGID_1_" gradientUnits="userSpaceOnUse" x1="43.6505" y1="88.75" x2="43.6505" y2="3.7202">
		<stop  offset="0" style="stop-color:#00A0F2"/>
		<stop  offset="1" style="stop-color:#35E3BB"/>
	</linearGradient>
	<path fill="url(#SVGID_1_)" d="M53.335,28.615c-5.088,0-9.86,1.971-13.438,5.549l-19.5,19.499
		c-7.35,7.522-7.345,19.627,0.024,26.995c3.653,3.571,8.464,5.538,13.545,5.538c5.088,0,9.86-1.971,13.438-5.55l19.5-19.499
		c7.351-7.521,7.345-19.626-0.024-26.996C63.227,30.581,58.416,28.615,53.335,28.615z M64.771,59.038L45.283,78.525
		c-3.012,3.012-7.031,4.671-11.317,4.671c-4.293,0-8.358-1.663-11.436-4.671c-6.2-6.2-6.195-16.413,0-22.753l19.488-19.487
		c3.012-3.012,7.031-4.67,11.317-4.67c4.293,0,8.358,1.663,11.436,4.67C70.972,42.486,70.966,52.698,64.771,59.038z"/>
	<linearGradient id="SVGID_2_" gradientUnits="userSpaceOnUse" x1="52.7603" y1="88.75" x2="52.7603" y2="3.7202">
		<stop  offset="0" style="stop-color:#00A0F2"/>
		<stop  offset="1" style="stop-color:#35E3BB"/>
	</linearGradient>
	<path fill="url(#SVGID_2_)" d="M59.604,41.452c-0.586-0.586-1.535-0.586-2.121,0l-4.722,4.722l-4.722-4.722
		c-0.586-0.586-1.535-0.586-2.121,0c-0.586,0.585-0.586,1.536,0,2.121l4.722,4.722l-4.722,4.722c-0.586,0.586-0.586,1.535,0,2.121
		c0.293,0.293,0.677,0.439,1.061,0.439s0.768-0.146,1.061-0.439l4.722-4.722l4.722,4.722c0.293,0.293,0.677,0.439,1.061,0.439
		s0.768-0.146,1.061-0.439c0.586-0.586,0.586-1.535,0-2.121l-4.722-4.722l4.722-4.722C60.189,42.988,60.189,42.038,59.604,41.452z"
		/>
	<linearGradient id="SVGID_3_" gradientUnits="userSpaceOnUse" x1="36.0454" y1="88.75" x2="36.0454" y2="3.7202">
		<stop  offset="0" style="stop-color:#00A0F2"/>
		<stop  offset="1" style="stop-color:#35E3BB"/>
	</linearGradient>
	<path fill="url(#SVGID_3_)" d="M36.094,67.18c0.293,0.293,0.677,0.439,1.061,0.439s0.768-0.146,1.061-0.439
		c0.586-0.586,0.586-1.535,0-2.121l-2.218-2.218c-0.586-0.586-1.535-0.586-2.121,0s-0.586,1.535,0,2.121L36.094,67.18z"/>
	<linearGradient id="SVGID_4_" gradientUnits="userSpaceOnUse" x1="28.5989" y1="88.75" x2="28.5989" y2="3.7202">
		<stop  offset="0" style="stop-color:#00A0F2"/>
		<stop  offset="1" style="stop-color:#35E3BB"/>
	</linearGradient>
	<path fill="url(#SVGID_4_)" d="M28.55,70.287c-0.586-0.586-1.536-0.586-2.121,0c-0.586,0.586-0.586,1.535,0,2.121l2.218,2.218
		c0.293,0.293,0.677,0.439,1.061,0.439s0.768-0.146,1.061-0.439c0.586-0.586,0.586-1.535,0-2.121L28.55,70.287z"/>
	<linearGradient id="SVGID_5_" gradientUnits="userSpaceOnUse" x1="36.3623" y1="88.75" x2="36.3623" y2="3.7202">
		<stop  offset="0" style="stop-color:#00A0F2"/>
		<stop  offset="1" style="stop-color:#35E3BB"/>
	</linearGradient>
	<path fill="url(#SVGID_5_)" d="M36.314,70.921c-0.586-0.586-1.535-0.586-2.121,0s-0.586,1.535,0,2.121l2.218,2.218
		c0.293,0.293,0.677,0.439,1.061,0.439s0.768-0.146,1.061-0.439c0.586-0.586,0.586-1.535,0-2.121L36.314,70.921z"/>
	<linearGradient id="SVGID_6_" gradientUnits="userSpaceOnUse" x1="27.9651" y1="88.75" x2="27.9651" y2="3.7202">
		<stop  offset="0" style="stop-color:#00A0F2"/>
		<stop  offset="1" style="stop-color:#35E3BB"/>
	</linearGradient>
	<path fill="url(#SVGID_6_)" d="M29.074,67.303c0.384,0,0.768-0.146,1.061-0.439c0.586-0.586,0.586-1.535,0-2.121l-2.218-2.219
		c-0.585-0.586-1.535-0.586-2.121,0s-0.586,1.535,0,2.121l2.218,2.219C28.306,67.156,28.69,67.303,29.074,67.303z"/>
	<linearGradient id="SVGID_7_" gradientUnits="userSpaceOnUse" x1="67.3364" y1="88.75" x2="67.3364" y2="3.7202">
		<stop  offset="0" style="stop-color:#00A0F2"/>
		<stop  offset="1" style="stop-color:#35E3BB"/>
	</linearGradient>
	<path fill="url(#SVGID_7_)" d="M56.325,21.208c-0.828,0-1.5,0.671-1.5,1.5s0.672,1.5,1.5,1.5c11.316,0,20.522,9.207,20.522,20.522
		c0,0.829,0.672,1.5,1.5,1.5s1.5-0.671,1.5-1.5C79.848,31.76,69.296,21.208,56.325,21.208z"/>
	<linearGradient id="SVGID_8_" gradientUnits="userSpaceOnUse" x1="72.8022" y1="88.75" x2="72.8022" y2="3.7202">
		<stop  offset="0" style="stop-color:#00A0F2"/>
		<stop  offset="1" style="stop-color:#35E3BB"/>
	</linearGradient>
	<path fill="url(#SVGID_8_)" d="M56.325,10.276c-0.828,0-1.5,0.671-1.5,1.5s0.672,1.5,1.5,1.5c17.344,0,31.454,14.11,31.454,31.454
		c0,0.829,0.672,1.5,1.5,1.5s1.5-0.671,1.5-1.5C90.779,25.732,75.323,10.276,56.325,10.276z"/>
</g>
</svg>
