<?xml version="1.0" encoding="utf-8"?>
<!-- Generator: Adobe Illustrator 17.0.0, SVG Export Plug-In . SVG Version: 6.00 Build 0)  -->
<!DOCTYPE svg PUBLIC "-//W3C//DTD SVG 1.1//EN" "http://www.w3.org/Graphics/SVG/1.1/DTD/svg11.dtd">
<svg version="1.1" id="Layer_1" xmlns="http://www.w3.org/2000/svg" xmlns:xlink="http://www.w3.org/1999/xlink" x="0px" y="0px"
	 width="100px" height="100px" viewBox="0 0 100 100" enable-background="new 0 0 100 100" xml:space="preserve">
<g>
	<linearGradient id="SVGID_1_" gradientUnits="userSpaceOnUse" x1="64.5" y1="106" x2="64.5" y2="-1.2986">
		<stop  offset="0" style="stop-color:#00A0F2"/>
		<stop  offset="1" style="stop-color:#35E3BB"/>
	</linearGradient>
	<path fill="url(#SVGID_1_)" d="M87.977,45.608c-0.815-0.151-1.596,0.393-1.744,1.208s0.394,1.596,1.208,1.743
		C88.848,48.814,89,50.246,89,50.85v9.699C89,61.68,88.51,63,87.13,63h-1.822c0.528-2.475,0.805-5.029,0.805-7.632
		c0-5.605-1.051-10.453-3.264-15.166c3.818-3.995,6.171-9.402,6.171-15.351c0-12.263-9.977-22.239-22.239-22.239
		s-22.239,9.977-22.239,22.239s9.977,22.239,22.239,22.239c5.187,0,9.96-1.79,13.747-4.777c1.759,4.044,2.586,8.241,2.586,13.055
		c0,14.957-9.931,28.189-24.22,32.394C57.753,86.096,55.837,85,53.67,85H43.33C39.84,85,37,87.84,37,91.33v0.34
		c0,3.49,2.84,6.33,6.33,6.33h10.34c3.49,0,6.33-2.84,6.33-6.33v-0.34c0-0.255-0.02-0.505-0.049-0.753
		C71.901,86.983,81.018,77.581,84.533,66h2.597c2.822,0,4.87-2.293,4.87-5.451V50.85C92,48.108,90.421,46.051,87.977,45.608z
		 M47.542,24.852c0-10.608,8.631-19.239,19.239-19.239S86.02,14.243,86.02,24.852s-8.631,19.239-19.239,19.239
		S47.542,35.46,47.542,24.852z M57,91.67c0,1.836-1.494,3.33-3.33,3.33H43.33C41.494,95,40,93.506,40,91.67v-0.34
		c0-1.836,1.494-3.33,3.33-3.33h10.34c1.836,0,3.33,1.494,3.33,3.33V91.67z"/>
	<linearGradient id="SVGID_2_" gradientUnits="userSpaceOnUse" x1="24.0611" y1="106" x2="24.0611" y2="-1.2986">
		<stop  offset="0" style="stop-color:#00A0F2"/>
		<stop  offset="1" style="stop-color:#35E3BB"/>
	</linearGradient>
	<path fill="url(#SVGID_2_)" d="M40.992,22.638c0.803-0.204,1.288-1.021,1.084-1.824c-0.204-0.803-1.02-1.286-1.823-1.084
		c-16.298,4.145-27.681,18.841-27.681,35.68c0,2.616,0.253,4.591,0.77,7.591h-1.847C10.188,63,9,61.855,9,60.549V50.85
		c0-1.146,0.879-2.127,2.004-2.331c0.815-0.147,1.387-0.928,1.24-1.743s-0.98-1.358-1.791-1.208C7.9,46.029,6,48.251,6,50.85v9.699
		C6,63.51,8.534,66,11.495,66h3.396c0.114,0,0.228-0.054,0.339-0.08l0.333-0.098c0.396-0.092,0.737-0.35,0.947-0.699
		c0.209-0.348,0.269-0.772,0.164-1.164c-0.741-2.778-1.101-5.589-1.101-8.589C15.572,39.905,26.025,26.443,40.992,22.638z"/>
	<linearGradient id="SVGID_3_" gradientUnits="userSpaceOnUse" x1="61.5703" y1="106" x2="61.5703" y2="-1.2986">
		<stop  offset="0" style="stop-color:#00A0F2"/>
		<stop  offset="1" style="stop-color:#35E3BB"/>
	</linearGradient>
	<path fill="url(#SVGID_3_)" d="M64.336,28h-3.055c1.531-1,2.602-2.463,3.214-3.237c1.211-1.573,1.817-2.858,1.817-4.059
		c0-1.333-0.452-2.349-1.357-3.149c-0.866-0.76-1.97-1.115-3.315-1.115c-1.038,0-1.993,0.312-2.865,0.911
		c-0.872,0.599-1.474,1.391-1.807,2.362c-0.173,0.492-0.259,0.935-0.259,1.321c0,0.492,0.149,0.903,0.448,1.229
		c0.3,0.327,0.695,0.49,1.188,0.49c0.426,0,0.752-0.139,0.978-0.419c0.146-0.186,0.333-0.549,0.559-1.088
		c0.226-0.539,0.426-0.921,0.599-1.148c0.292-0.346,0.646-0.519,1.058-0.519c0.4,0,0.71,0.13,0.928,0.389
		c0.22,0.259,0.329,0.589,0.329,0.989c0,0.586-0.32,1.304-0.958,2.156c-0.573,0.759-1.338,1.67-2.297,2.735
		c-0.785,0.879-1.577,1.757-2.376,2.636c-0.48,0.546-0.719,0.795-0.719,1.207c0,1.025,0.665,1.307,1.997,1.307h5.891
		c1.57,0,2.356-0.482,2.356-1.5C66.692,28.482,65.906,28,64.336,28z"/>
	<linearGradient id="SVGID_4_" gradientUnits="userSpaceOnUse" x1="72.9439" y1="106" x2="72.9439" y2="-1.2986">
		<stop  offset="0" style="stop-color:#00A0F2"/>
		<stop  offset="1" style="stop-color:#35E3BB"/>
	</linearGradient>
	<path fill="url(#SVGID_4_)" d="M77,25.371V20.04c0-0.945-0.324-1.711-0.695-2.297c-0.453-0.705-1.2-1.058-2.105-1.058
		c-0.986,0-1.844,0.526-2.51,1.577l-3.391,5.371c-0.666,1.065-1.007,1.984-1.007,2.756c0,0.573,0.196,0.922,0.595,1.234
		c0.4,0.313,0.887,0.376,1.473,0.376H74v1.755c0,1.244,0.455,1.866,1.4,1.866c1.078,0,1.6-0.589,1.6-1.767v-1.668
		c1,0,1.597-0.466,1.597-1.397C78.597,25.844,78,25.371,77,25.371z M74,25h-3.745L74,19.826V25z"/>
</g>
</svg>
