<?xml version="1.0" encoding="utf-8"?>
<!-- Generator: Adobe Illustrator 17.0.0, SVG Export Plug-In . SVG Version: 6.00 Build 0)  -->
<!DOCTYPE svg PUBLIC "-//W3C//DTD SVG 1.1//EN" "http://www.w3.org/Graphics/SVG/1.1/DTD/svg11.dtd">
<svg version="1.1" id="Layer_1" xmlns="http://www.w3.org/2000/svg" xmlns:xlink="http://www.w3.org/1999/xlink" x="0px" y="0px"
	 width="360.642px" height="124.246px" viewBox="0 0 360.642 124.246" enable-background="new 0 0 360.642 124.246"
	 xml:space="preserve">
<g>
	<g>
		<path fill="#FFFFFF" d="M97.57,107.368c0,3.344-2.946,4.801-5.827,4.801c-3.078,0-5.429-1.523-6.29-3.742l2.185-0.893
			c0.496,1.423,1.986,2.251,4.105,2.251c1.324,0,3.41-0.464,3.41-2.417c0-1.258-0.827-1.754-3.641-2.35
			c-2.384-0.464-5.43-1.092-5.894-4.072c-0.397-2.848,1.987-5.231,5.529-5.231c2.781,0,4.9,1.358,5.628,3.443l-2.218,0.861
			c-0.397-1.158-1.588-1.854-3.376-1.92c-2.318-0.067-3.41,1.159-3.178,2.45c0.199,1.258,1.655,1.622,3.972,2.151
			C94.657,103.263,97.57,104.323,97.57,107.368z"/>
		<path fill="#FFFFFF" d="M112.429,95.946l-5.595,15.46c-0.993,2.582-1.755,4.37-2.681,5.661c-1.258,1.688-3.046,1.986-4.966,1.49
			l0.43-2.351c2.251,0.43,2.88-0.199,4.469-4.304l-5.827-15.957h2.582l4.503,12.614l4.536-12.614
			C109.88,95.946,112.429,95.946,112.429,95.946z"/>
		<path fill="#FFFFFF" d="M125.282,107.368c0,3.344-2.946,4.801-5.827,4.801c-3.078,0-5.429-1.523-6.29-3.742l2.185-0.893
			c0.496,1.423,1.986,2.251,4.105,2.251c1.324,0,3.41-0.464,3.41-2.417c0-1.258-0.827-1.754-3.642-2.35
			c-2.383-0.464-5.429-1.092-5.893-4.072c-0.397-2.848,1.987-5.231,5.529-5.231c2.781,0,4.9,1.358,5.628,3.443l-2.218,0.861
			c-0.397-1.158-1.588-1.854-3.376-1.92c-2.318-0.067-3.41,1.159-3.178,2.45c0.199,1.258,1.655,1.622,3.972,2.151
			C122.369,103.263,125.282,104.323,125.282,107.368z"/>
		<path fill="#FFFFFF" d="M136.019,110.911c-1.125,0.927-2.715,1.357-3.741,1.225c-2.085-0.231-3.376-1.523-3.376-5.198
			c0-1.457,0-5.23,0-8.574h-2.45v-2.417h2.45c0-2.218,0-3.509,0-3.509l2.417-0.663c0,0,0,1.987,0,4.171h3.376v2.417h-3.376
			c0,3.443,0,7.316,0,8.508c0,1.324,0.066,2.085,0.629,2.582c0.529,0.43,1.854,0.463,2.847-0.365L136.019,110.911z"/>
		<path fill="#FFFFFF" d="M151.139,103.957c0,0.265-0.033,0.563-0.033,0.828h-12.282c0.331,2.88,2.318,5.032,5.297,5.032
			c1.986,0,3.442-0.894,4.403-2.384l2.085,1.026c-1.324,2.252-3.575,3.675-6.488,3.675c-4.536,0-7.78-3.642-7.78-8.178
			c0-4.568,3.046-8.244,7.582-8.244C148.491,95.714,151.139,99.39,151.139,103.957z M138.923,102.402h9.766
			c-0.464-2.516-2.019-4.37-4.767-4.37C141.207,98.032,139.42,99.887,138.923,102.402z"/>
		<path fill="#FFFFFF" d="M176.348,103.097c0,5.329,0,8.806,0,8.806h-2.384c0,0,0-6.39,0-8.806c0-3.476-1.159-5-3.741-5
			c-2.451,0-3.873,1.688-3.873,5.198c0,5.197,0,8.608,0,8.608h-2.384c0,0,0-6.39,0-8.806c0-3.476-1.191-5-3.774-5
			c-2.45,0-3.84,1.688-3.84,5.198v8.608h-2.417V95.946h2.417v1.622c0.993-1.159,2.417-1.855,4.237-1.855
			c2.085,0,3.907,0.663,4.933,2.781c1.093-1.688,2.814-2.781,5.065-2.781C173.766,95.714,176.348,97.237,176.348,103.097z"/>
		<path fill="#FFFFFF" d="M190.94,107.368c0,3.344-2.946,4.801-5.827,4.801c-3.078,0-5.429-1.523-6.29-3.742l2.185-0.893
			c0.496,1.423,1.986,2.251,4.105,2.251c1.324,0,3.41-0.464,3.41-2.417c0-1.258-0.827-1.754-3.641-2.35
			c-2.384-0.464-5.43-1.092-5.894-4.072c-0.397-2.848,1.986-5.231,5.529-5.231c2.781,0,4.9,1.358,5.628,3.443l-2.218,0.861
			c-0.397-1.158-1.588-1.854-3.376-1.92c-2.318-0.067-3.41,1.159-3.178,2.45c0.199,1.258,1.655,1.622,3.972,2.151
			C188.027,103.263,190.94,104.323,190.94,107.368z"/>
	</g>
	<g>
		<path fill="#FFFFFF" d="M107.848,77.633c-3.064,2.98-8.857,4.139-12.913,2.897c-4.966-1.572-7.201-5.629-7.201-12.912V47.671
			h-5.38v-7.119h5.38v-8.36l7.864-2.153v10.512h8.194v7.119h-8.194v19.615c0,3.559,0.745,5.049,2.483,5.711
			c1.656,0.663,4.139-0.082,5.463-1.406L107.848,77.633z"/>
		<path fill="#FFFFFF" d="M117.534,64.472c1.159,4.967,4.801,8.691,10.594,8.691c4.221,0,7.285-1.986,9.104-4.966l7.201,3.476
			c-3.228,5.629-8.939,9.354-16.305,9.354c-11.588,0-19.451-9.27-19.451-20.528c0-11.256,7.616-20.526,19.203-20.526
			s17.796,9.27,17.796,20.526c0,1.324-0.084,2.649-0.331,3.973H117.534z M117.368,57.023h20.197
			c-0.827-5.215-3.725-9.188-9.684-9.188C121.92,47.835,118.444,51.809,117.368,57.023z"/>
		<path fill="#FFFFFF" d="M184.826,57.935v22.513h-7.864V58.679c0-7.78-3.724-10.844-8.36-10.844c-4.884,0-8.773,2.898-8.773,10.347
			v22.266h-7.946V22.509h7.946V44.36c2.565-2.731,6.042-4.387,10.181-4.387C179.447,39.973,184.826,46.429,184.826,57.935z"/>
		<path fill="#FFFFFF" d="M225.551,57.935v22.513h-7.864V58.679c0-7.78-3.725-10.844-8.36-10.844c-4.884,0-8.775,2.898-8.775,10.347
			v22.266h-7.863V40.552h7.862v3.808c2.649-2.731,6.126-4.387,10.265-4.387C220.17,39.973,225.551,46.429,225.551,57.935z"/>
		<path fill="#FFFFFF" d="M270.662,60.499c0,11.258-7.864,20.528-19.451,20.528c-11.506,0-19.451-9.27-19.451-20.528
			c0-11.256,7.864-20.526,19.451-20.526C262.798,39.973,270.662,49.243,270.662,60.499z M262.303,60.499
			c0-6.87-3.808-12.664-11.091-12.664c-7.201,0-11.091,5.795-11.091,12.664c0,6.871,3.891,12.664,11.091,12.664
			C258.412,73.163,262.303,67.37,262.303,60.499z"/>
		<path fill="#FFFFFF" d="M315.443,60.499c0,11.258-6.953,20.528-18.541,20.528c-5.133,0-9.188-1.821-12.168-4.884v4.304h-7.862
			V22.509h7.862v22.348c2.98-3.064,7.035-4.884,12.168-4.884C308.572,39.973,315.443,49.243,315.443,60.499z M306.834,60.499
			c0-6.87-3.641-12.664-10.842-12.664c-7.285,0-10.844,5.795-10.844,12.664c0,6.871,3.643,12.664,10.844,12.664
			C303.192,73.163,306.834,67.37,306.834,60.499z"/>
		<path fill="#FFFFFF" d="M321.238,29.792c0-2.483,2.069-4.552,4.634-4.552c2.483,0,4.552,2.069,4.552,4.552
			c0,2.567-2.069,4.636-4.552,4.636C323.308,34.428,321.238,32.358,321.238,29.792z M321.9,40.552h7.864v39.896H321.9V40.552z"/>
		<path fill="#FFFFFF" d="M360.886,77.633c-3.062,2.98-8.857,4.139-12.912,2.897c-4.966-1.572-7.201-5.629-7.201-12.912V47.671
			h-5.38v-7.119h5.38v-8.36l7.864-2.153v10.512h8.194v7.119h-8.194v19.615c0,3.559,0.744,5.049,2.483,5.711
			c1.654,0.663,4.139-0.082,5.463-1.406L360.886,77.633z"/>
	</g>
	
		<linearGradient id="SVGID_1_" gradientUnits="userSpaceOnUse" x1="-171.2052" y1="191.5024" x2="-148.2237" y2="277.2705" gradientTransform="matrix(1 0 0 -1 219.16 272.892)">
		<stop  offset="0" style="stop-color:#00A0F2"/>
		<stop  offset="1" style="stop-color:#35E3BB"/>
	</linearGradient>
	<polygon fill="url(#SVGID_1_)" points="121.22,9.095 23.94,35.886 45.869,63.76 52.651,47.646 43.031,41.15 67.512,34.616 
		48.456,81.524 7.737,30.349 	"/>
</g>
</svg>
