<?xml version="1.0" encoding="utf-8"?>
<!-- Generator: Adobe Illustrator 17.0.0, SVG Export Plug-In . SVG Version: 6.00 Build 0)  -->
<!DOCTYPE svg PUBLIC "-//W3C//DTD SVG 1.1//EN" "http://www.w3.org/Graphics/SVG/1.1/DTD/svg11.dtd">
<svg version="1.1" id="Layer_1" xmlns="http://www.w3.org/2000/svg" xmlns:xlink="http://www.w3.org/1999/xlink" x="0px" y="0px"
	 width="102.5px" height="104.5px" viewBox="0 0 102.5 104.5" enable-background="new 0 0 102.5 104.5" xml:space="preserve">
<g>
	<path fill="#00A0F2" d="M89.5,91.817c-0.829,0-1.5,0.671-1.5,1.5V101H8V24h80v8.316c0,0.829,0.671,1.5,1.5,1.5s1.5-0.671,1.5-1.5
		v-9.554V2.503C91,1.674,90.271,1,89.442,1H6.125C5.296,1,5,1.674,5,2.503v20.26v79.314C5,102.906,5.296,104,6.125,104h83.317
		c0.829,0,1.558-1.094,1.558-1.923v-8.76C91,92.488,90.329,91.817,89.5,91.817z M8,4h80v17H8V4z"/>
	<path fill="#00A0F2" d="M15.283,8.083c-2.532,0-4.592,2.06-4.592,4.592s2.06,4.592,4.592,4.592s4.592-2.06,4.592-4.592
		S17.815,8.083,15.283,8.083z M15.283,14.267c-0.878,0-1.592-0.714-1.592-1.592s0.714-1.592,1.592-1.592s1.592,0.714,1.592,1.592
		S16.161,14.267,15.283,14.267z"/>
	<path fill="#00A0F2" d="M27.401,8.083c-2.532,0-4.592,2.06-4.592,4.592s2.06,4.592,4.592,4.592s4.592-2.06,4.592-4.592
		S29.933,8.083,27.401,8.083z M27.401,14.267c-0.878,0-1.592-0.714-1.592-1.592s0.714-1.592,1.592-1.592s1.592,0.714,1.592,1.592
		S28.279,14.267,27.401,14.267z"/>
	<path fill="#00A0F2" d="M77.668,8.083c-2.532,0-4.592,2.06-4.592,4.592s2.06,4.592,4.592,4.592s4.592-2.06,4.592-4.592
		S80.2,8.083,77.668,8.083z M77.668,14.267c-0.878,0-1.592-0.714-1.592-1.592s0.714-1.592,1.592-1.592s1.592,0.714,1.592,1.592
		S78.546,14.267,77.668,14.267z"/>
	<path fill="#00A0F2" d="M96.375,84H63.78c0.058-1,0.22-0.824,0.22-1.004V62.345L66.652,45h29.723c0.829,0,1.5-0.671,1.5-1.5
		s-0.671-1.5-1.5-1.5h-31c-0.736,0-1.363,0.633-1.481,1.359l-1.886,11.698l-3.185-11.874C58.646,42.529,58.053,42,57.375,42h-18.5
		c-0.578,0-1.104,0.43-1.353,0.951l-1.967,4.161l-3.507-4.473C31.763,42.282,31.332,42,30.875,42H20v-7.839
		c0-0.829-0.671-1.5-1.5-1.5s-1.5,0.671-1.5,1.5v50.846C17,85.836,17.546,87,18.375,87h78c0.829,0,1.5-0.671,1.5-1.5
		S97.204,84,96.375,84z M39.82,45h16.406L61,62.422v20.574C61,83.176,60.912,83,60.97,84H37.28c0.058-1-0.28-0.824-0.28-1.004
		V50.309L39.82,45z M20,45h10.152L34,50.494v32.502C34,83.176,34.412,83,34.47,84H20V45z"/>
	<path fill="#00A0F2" d="M53,8.5C53,7.672,52.328,7,51.5,7h-8C42.672,7,42,7.672,42,8.5v7c0,0.828,0.672,1.5,1.5,1.5h8
		c0.828,0,1.5-0.672,1.5-1.5V8.5z M50,15h-5v-5h5V15z"/>
</g>
</svg>
