<?xml version="1.0" encoding="utf-8"?>
<!-- Generator: Adobe Illustrator 17.0.0, SVG Export Plug-In . SVG Version: 6.00 Build 0)  -->
<!DOCTYPE svg PUBLIC "-//W3C//DTD SVG 1.1//EN" "http://www.w3.org/Graphics/SVG/1.1/DTD/svg11.dtd">
<svg version="1.1" id="Layer_1" xmlns="http://www.w3.org/2000/svg" xmlns:xlink="http://www.w3.org/1999/xlink" x="0px" y="0px"
	 width="99px" height="104.5px" viewBox="0 0 99 104.5" enable-background="new 0 0 99 104.5" xml:space="preserve">
<g>
	<path fill="#00A0F2" d="M34.285,10.632l-0.396-0.123c-0.004-0.001-0.008-0.002-0.012-0.004L21.451,6.63
		c-0.288-0.09-0.598-0.09-0.888-0.001L7.968,10.506c-0.002,0.001-0.004,0.001-0.007,0.002L7.563,10.63
		c-0.629,0.194-1.059,0.775-1.059,1.434v18.497c0,0.661,0.433,1.245,1.066,1.436l12.185,3.681v3.15L7.563,42.582
		c-0.629,0.194-1.059,0.775-1.059,1.434v18.497c0,0.661,0.433,1.245,1.066,1.436l12.185,3.681v3.151L7.563,74.533
		c-0.629,0.193-1.059,0.775-1.059,1.434v18.496c0,0.661,0.433,1.245,1.066,1.436l13.251,4.003c0.141,0.043,0.288,0.064,0.434,0.064
		c0.153,0,0.307-0.023,0.455-0.07l12.583-4.003c0.623-0.198,1.045-0.776,1.045-1.43V75.967c0-0.656-0.427-1.236-1.053-1.432
		l-11.53-3.596v-3.327l11.538-3.67c0.623-0.198,1.045-0.776,1.045-1.43V44.015c0-0.656-0.427-1.237-1.054-1.432l-0.401-0.125
		c0,0,0,0-0.001,0l-11.128-3.47v-3.327l11.538-3.67c0.623-0.198,1.045-0.776,1.045-1.429V12.064
		C35.339,11.408,34.912,10.827,34.285,10.632z M21.001,9.632l7.305,2.278l-7.385,2.213l-7.35-2.203L21.001,9.632z M21.244,96.896
		l-11.74-3.547V77.735l10.986,3.293c0.141,0.042,0.286,0.063,0.431,0.063s0.29-0.021,0.431-0.063l10.987-3.292v15.63L21.244,96.896z
		 M28.308,75.813l-7.387,2.213l-7.352-2.204l6.186-1.905v1.267c0,0.828,0.671,1.5,1.5,1.5s1.5-0.672,1.5-1.5v-1.103L28.308,75.813z
		 M21.244,64.944l-11.74-3.547V45.784l10.986,3.293c0.141,0.042,0.286,0.063,0.431,0.063s0.29-0.021,0.431-0.063l10.987-3.292v15.63
		L21.244,64.944z M28.307,43.861l-7.385,2.213l-7.35-2.203l6.185-1.904v0.821c0,0.829,0.671,1.5,1.5,1.5s1.5-0.671,1.5-1.5v-0.658
		L28.307,43.861z M21.244,32.994l-11.74-3.546V13.833l10.986,3.293c0.141,0.042,0.286,0.063,0.431,0.063s0.29-0.021,0.431-0.063
		l10.987-3.292v15.63L21.244,32.994z"/>
	<path fill="#00A0F2" d="M55.05,40.801c-7.037,0-12.761,5.725-12.761,12.761c0,7.037,5.725,12.762,12.761,12.762
		c7.036,0,12.761-5.725,12.761-12.762C67.811,46.525,62.086,40.801,55.05,40.801z M55.05,63.323c-5.382,0-9.761-4.379-9.761-9.762
		c0-5.382,4.379-9.761,9.761-9.761c5.382,0,9.761,4.378,9.761,9.761C64.811,58.944,60.432,63.323,55.05,63.323z"/>
	<path fill="#00A0F2" d="M55.05,45.685c-4.344,0-7.877,3.533-7.877,7.876c0,4.344,3.533,7.878,7.877,7.878s7.877-3.534,7.877-7.878
		C62.927,49.218,59.394,45.685,55.05,45.685z M55.05,58.439c-2.689,0-4.877-2.188-4.877-4.878c0-2.689,2.188-4.876,4.877-4.876
		s4.877,2.188,4.877,4.876C59.927,56.251,57.739,58.439,55.05,58.439z"/>
	<path fill="#00A0F2" d="M81.821,44.026c7.037,0,12.762-5.725,12.762-12.761c0-7.037-5.725-12.761-12.762-12.761
		c-7.036,0-12.761,5.725-12.761,12.761C69.061,38.301,74.785,44.026,81.821,44.026z M81.821,21.504c5.383,0,9.762,4.379,9.762,9.761
		s-4.379,9.761-9.762,9.761c-5.382,0-9.761-4.378-9.761-9.761S76.439,21.504,81.821,21.504z"/>
	<path fill="#00A0F2" d="M81.821,39.142c4.344,0,7.877-3.534,7.877-7.877s-3.533-7.877-7.877-7.877s-7.877,3.534-7.877,7.877
		S77.478,39.142,81.821,39.142z M81.821,26.388c2.689,0,4.877,2.188,4.877,4.877s-2.188,4.877-4.877,4.877s-4.877-2.188-4.877-4.877
		S79.132,26.388,81.821,26.388z"/>
	<path fill="#00A0F2" d="M81.821,68.787c-7.036,0-12.761,5.725-12.761,12.761s5.725,12.761,12.761,12.761
		c7.037,0,12.762-5.725,12.762-12.761S88.858,68.787,81.821,68.787z M81.821,91.309c-5.382,0-9.761-4.379-9.761-9.761
		s4.379-9.761,9.761-9.761c5.383,0,9.762,4.379,9.762,9.761S87.204,91.309,81.821,91.309z"/>
	<path fill="#00A0F2" d="M81.821,73.671c-4.344,0-7.877,3.533-7.877,7.877s3.533,7.877,7.877,7.877s7.877-3.533,7.877-7.877
		S86.165,73.671,81.821,73.671z M81.821,86.425c-2.689,0-4.877-2.188-4.877-4.877s2.188-4.877,4.877-4.877s4.877,2.188,4.877,4.877
		S84.511,86.425,81.821,86.425z"/>
	<path fill="#00A0F2" d="M47.3,39.05c0.829,0,1.5-0.671,1.5-1.5V27.074c0-0.829-0.671-1.5-1.5-1.5s-1.5,0.671-1.5,1.5V37.55
		C45.8,38.378,46.471,39.05,47.3,39.05z"/>
	<path fill="#00A0F2" d="M47.3,24.431c0.829,0,1.5-0.671,1.5-1.5v-5.238c0-0.829-0.671-1.5-1.5-1.5s-1.5,0.671-1.5,1.5v5.238
		C45.8,23.76,46.471,24.431,47.3,24.431z"/>
	<path fill="#00A0F2" d="M47.3,15.003c0.829,0,1.5-0.671,1.5-1.5V9.024c0-0.829-0.671-1.5-1.5-1.5s-1.5,0.671-1.5,1.5v4.479
		C45.8,14.332,46.471,15.003,47.3,15.003z"/>
	<path fill="#00A0F2" d="M81.821,55.504c-0.828,0-1.5,0.672-1.5,1.5v8.82c0,0.828,0.672,1.5,1.5,1.5s1.5-0.672,1.5-1.5v-8.82
		C83.321,56.176,82.649,55.504,81.821,55.504z"/>
	<path fill="#00A0F2" d="M83.321,47.623c0-0.829-0.672-1.5-1.5-1.5s-1.5,0.671-1.5,1.5v5.238c0,0.828,0.672,1.5,1.5,1.5
		s1.5-0.672,1.5-1.5V47.623z"/>
	<path fill="#00A0F2" d="M47.3,67.881c-0.829,0-1.5,0.672-1.5,1.5v10.476c0,0.828,0.671,1.5,1.5,1.5s1.5-0.672,1.5-1.5V69.381
		C48.8,68.553,48.128,67.881,47.3,67.881z"/>
	<path fill="#00A0F2" d="M47.3,82.5c-0.829,0-1.5,0.672-1.5,1.5v5.238c0,0.828,0.671,1.5,1.5,1.5s1.5-0.672,1.5-1.5V84
		C48.8,83.172,48.128,82.5,47.3,82.5z"/>
	<path fill="#00A0F2" d="M55.05,79.501c-0.828,0-1.5,0.672-1.5,1.5v10.476c0,0.828,0.672,1.5,1.5,1.5s1.5-0.672,1.5-1.5V81.001
		C56.55,80.173,55.878,79.501,55.05,79.501z"/>
	<path fill="#00A0F2" d="M55.05,70.12c-0.828,0-1.5,0.672-1.5,1.5v5.238c0,0.828,0.672,1.5,1.5,1.5s1.5-0.672,1.5-1.5V71.62
		C56.55,70.792,55.878,70.12,55.05,70.12z"/>
	<path fill="#00A0F2" d="M55.05,94.347c-0.828,0-1.5,0.672-1.5,1.5v2.619c0,0.828,0.672,1.5,1.5,1.5s1.5-0.672,1.5-1.5v-2.619
		C56.55,95.019,55.878,94.347,55.05,94.347z"/>
	<path fill="#00A0F2" d="M55.049,30.865c0.828,0,1.5-0.671,1.5-1.5V18.889c0-0.829-0.672-1.5-1.5-1.5s-1.5,0.671-1.5,1.5v10.476
		C53.549,30.194,54.221,30.865,55.049,30.865z"/>
	<path fill="#00A0F2" d="M55.049,16.246c0.828,0,1.5-0.671,1.5-1.5V9.508c0-0.829-0.672-1.5-1.5-1.5s-1.5,0.671-1.5,1.5v5.238
		C53.549,15.575,54.221,16.246,55.049,16.246z"/>
	<path fill="#00A0F2" d="M55.049,37.854c0.828,0,1.5-0.671,1.5-1.5v-2.619c0-0.829-0.672-1.5-1.5-1.5s-1.5,0.671-1.5,1.5v2.619
		C53.549,37.183,54.221,37.854,55.049,37.854z"/>
	<path fill="#00A0F2" d="M64.3,67.044c-0.828,0-1.5,0.672-1.5,1.5v6.293c0,0.828,0.672,1.5,1.5,1.5s1.5-0.672,1.5-1.5v-6.293
		C65.8,67.716,65.128,67.044,64.3,67.044z"/>
	<path fill="#00A0F2" d="M64.3,77.706c-0.828,0-1.5,0.672-1.5,1.5v2.619c0,0.828,0.672,1.5,1.5,1.5s1.5-0.672,1.5-1.5v-2.619
		C65.8,78.378,65.128,77.706,64.3,77.706z"/>
	<path fill="#00A0F2" d="M64.3,35.215c0.828,0,1.5-0.671,1.5-1.5v-6.292c0-0.829-0.672-1.5-1.5-1.5s-1.5,0.671-1.5,1.5v6.292
		C62.8,34.543,63.472,35.215,64.3,35.215z"/>
	<path fill="#00A0F2" d="M64.3,24.553c0.828,0,1.5-0.671,1.5-1.5v-2.619c0-0.829-0.672-1.5-1.5-1.5s-1.5,0.671-1.5,1.5v2.619
		C62.8,23.882,63.472,24.553,64.3,24.553z"/>
	<path fill="#00A0F2" d="M81.821,17.313c0.828,0,1.5-0.671,1.5-1.5v-2.619c0-0.829-0.672-1.5-1.5-1.5s-1.5,0.671-1.5,1.5v2.619
		C80.321,16.642,80.993,17.313,81.821,17.313z"/>
	<path fill="#00A0F2" d="M81.821,10.871c0.828,0,1.5-0.671,1.5-1.5V6.752c0-0.829-0.672-1.5-1.5-1.5s-1.5,0.671-1.5,1.5v2.619
		C80.321,10.2,80.993,10.871,81.821,10.871z"/>
	<path fill="#00A0F2" d="M91.55,44.528c0-0.829-0.672-1.5-1.5-1.5s-1.5,0.671-1.5,1.5v6.292c0,0.829,0.672,1.5,1.5,1.5
		s1.5-0.671,1.5-1.5V44.528z"/>
	<path fill="#00A0F2" d="M90.05,53.69c-0.828,0-1.5,0.672-1.5,1.5v2.618c0,0.828,0.672,1.5,1.5,1.5s1.5-0.672,1.5-1.5V55.19
		C91.55,54.362,90.878,53.69,90.05,53.69z"/>
	<path fill="#00A0F2" d="M90.05,19.404c0.828,0,1.5-0.671,1.5-1.5v-6.292c0-0.829-0.672-1.5-1.5-1.5s-1.5,0.671-1.5,1.5v6.292
		C88.55,18.732,89.222,19.404,90.05,19.404z"/>
	<path fill="#00A0F2" d="M90.05,8.742c0.828,0,1.5-0.671,1.5-1.5V4.623c0-0.829-0.672-1.5-1.5-1.5s-1.5,0.671-1.5,1.5v2.619
		C88.55,8.071,89.222,8.742,90.05,8.742z"/>
</g>
</svg>
