<?xml version="1.0" encoding="utf-8"?>
<!-- Generator: Adobe Illustrator 17.0.0, SVG Export Plug-In . SVG Version: 6.00 Build 0)  -->
<!DOCTYPE svg PUBLIC "-//W3C//DTD SVG 1.1//EN" "http://www.w3.org/Graphics/SVG/1.1/DTD/svg11.dtd">
<svg version="1.1" id="Layer_1" xmlns="http://www.w3.org/2000/svg" xmlns:xlink="http://www.w3.org/1999/xlink" x="0px" y="0px"
	 width="461px" height="304px" viewBox="0 0 461 304" enable-background="new 0 0 461 304" xml:space="preserve">
<g>
	<path fill="#00A0F2" d="M452,211.965c0,0-34.001,13.589-86.502-5.971c-52.501-19.559-59.928-120.032-68.575-147.209
		c-8.647-27.177-105.628-6.588-105.628-6.588s-17.852,77.002-83.942,77.002S16,47.667,16,47.667V292h436V211.965z"/>
</g>
<line fill="none" stroke="#FFFFFF" stroke-width="2" stroke-miterlimit="10" x1="17" y1="212" x2="451" y2="212"/>
<line fill="none" stroke="#FFFFFF" stroke-width="2" stroke-miterlimit="10" x1="17" y1="133" x2="451" y2="133"/>
<line fill="none" stroke="#FFFFFF" stroke-width="2" stroke-miterlimit="10" x1="17" y1="56" x2="451" y2="56"/>
<line fill="none" stroke="#FFFFFF" stroke-width="2" stroke-miterlimit="10" x1="17" y1="172" x2="451" y2="172"/>
<line fill="none" stroke="#FFFFFF" stroke-width="2" stroke-miterlimit="10" x1="17" y1="92" x2="451" y2="92"/>
<line fill="none" stroke="#FFFFFF" stroke-width="2" stroke-miterlimit="10" x1="17" y1="253" x2="451" y2="253"/>
<linearGradient id="SVGID_1_" gradientUnits="userSpaceOnUse" x1="104" y1="209.5" x2="106" y2="209.5">
	<stop  offset="0" style="stop-color:#00A0F2"/>
	<stop  offset="1" style="stop-color:#35E3BB"/>
</linearGradient>
<line fill="none" stroke="url(#SVGID_1_)" stroke-width="2" stroke-miterlimit="10" x1="105" y1="128" x2="105" y2="291"/>
<linearGradient id="SVGID_2_" gradientUnits="userSpaceOnUse" x1="15" y1="171.5" x2="17" y2="171.5">
	<stop  offset="0" style="stop-color:#00A0F2"/>
	<stop  offset="1" style="stop-color:#35E3BB"/>
</linearGradient>
<line fill="none" stroke="url(#SVGID_2_)" stroke-width="2" stroke-miterlimit="10" x1="16" y1="52" x2="16" y2="291"/>
<linearGradient id="SVGID_3_" gradientUnits="userSpaceOnUse" x1="188" y1="172" x2="190" y2="172">
	<stop  offset="0" style="stop-color:#00A0F2"/>
	<stop  offset="1" style="stop-color:#35E3BB"/>
</linearGradient>
<line fill="none" stroke="url(#SVGID_3_)" stroke-width="2" stroke-miterlimit="10" x1="189" y1="53" x2="189" y2="291"/>
<linearGradient id="SVGID_4_" gradientUnits="userSpaceOnUse" x1="274" y1="169" x2="276" y2="169">
	<stop  offset="0" style="stop-color:#00A0F2"/>
	<stop  offset="1" style="stop-color:#35E3BB"/>
</linearGradient>
<line fill="none" stroke="url(#SVGID_4_)" stroke-width="2" stroke-miterlimit="10" x1="275" y1="47" x2="275" y2="291"/>
<linearGradient id="SVGID_5_" gradientUnits="userSpaceOnUse" x1="360" y1="248" x2="362" y2="248">
	<stop  offset="0" style="stop-color:#00A0F2"/>
	<stop  offset="1" style="stop-color:#35E3BB"/>
</linearGradient>
<line fill="none" stroke="url(#SVGID_5_)" stroke-width="2" stroke-miterlimit="10" x1="361" y1="205" x2="361" y2="291"/>
<linearGradient id="SVGID_6_" gradientUnits="userSpaceOnUse" x1="450" y1="252.5" x2="452" y2="252.5">
	<stop  offset="0" style="stop-color:#00A0F2"/>
	<stop  offset="1" style="stop-color:#35E3BB"/>
</linearGradient>
<line fill="none" stroke="url(#SVGID_6_)" stroke-width="2" stroke-miterlimit="10" x1="451" y1="214" x2="451" y2="291"/>
<circle fill="#00A0F2" cx="189.288" cy="52.608" r="4.53"/>
<circle fill="#00A0F2" cx="361.998" cy="204.553" r="4.53"/>
<circle fill="#00A0F2" cx="275.525" cy="47.667" r="4.53"/>
<path fill="#00A0F2" d="M444.007,92c6.865-7,11.022-18.315,11.022-29.68c0-25.243-20.464-45.672-45.707-45.672
	c-25.243,0-45.707,20.412-45.707,45.655c0,11.365,4.157,22.697,11.022,29.697h-0.015c0.026,0,0.053,0.119,0.079,0.143
	c1.822,2.113,3.831,4.093,6.007,5.842c13.032,13.01,28.614,30.807,28.614,30.807s13.901-16.38,28.129-30.4
	c2.364-1.85,4.541-3.99,6.499-6.262c0.024-0.022,0.047-0.131,0.071-0.131H444.007z"/>
<circle fill="#00A0F2" cx="104.815" cy="129.198" r="4.53"/>
<circle fill="#00A0F2" cx="16.744" cy="50.736" r="4.53"/>
<circle fill="#00A0F2" cx="451.47" cy="213.2" r="4.53"/>
</svg>
