<?xml version="1.0" encoding="utf-8"?>
<!-- Generator: Adobe Illustrator 17.0.0, SVG Export Plug-In . SVG Version: 6.00 Build 0)  -->
<!DOCTYPE svg PUBLIC "-//W3C//DTD SVG 1.1//EN" "http://www.w3.org/Graphics/SVG/1.1/DTD/svg11.dtd">
<svg version="1.1" id="Layer_1" xmlns="http://www.w3.org/2000/svg" xmlns:xlink="http://www.w3.org/1999/xlink" x="0px" y="0px"
	 width="461px" height="324px" viewBox="0 0 461 324" enable-background="new 0 0 461 324" xml:space="preserve">
<path fill="#00A0F2" d="M12.316,80.86c0,0,33.791-14.185,38.733-4.714s14.116,56.321,14.116,56.321s5.411-63.048,36.5-63.048
	s52.118,10.271,86.502,11.095s51.692,1.636,53.339,10.695s4.125,29.642,4.125,29.642s-1.643-40.563,5.768-45.71
	c7.412-5.147,38.709-7.825,46.944-4.531c8.235,3.294,49.225,4.117,60.137-0.001S446,70.608,446,70.608V311H12.161L12.316,80.86z"/>
<line fill="none" stroke="#FFFFFF" stroke-width="2" stroke-miterlimit="10" x1="13" y1="230" x2="447" y2="230"/>
<line fill="none" stroke="#FFFFFF" stroke-width="2" stroke-miterlimit="10" x1="13" y1="151" x2="447" y2="151"/>
<line fill="none" stroke="#FFFFFF" stroke-width="2" stroke-miterlimit="10" x1="13" y1="71" x2="447" y2="71"/>
<line fill="none" stroke="#FFFFFF" stroke-miterlimit="10" x1="12.5" y1="81" x2="12.5" y2="311"/>
<line fill="none" stroke="#FFFFFF" stroke-width="2" stroke-miterlimit="10" x1="13" y1="190" x2="447" y2="190"/>
<line fill="none" stroke="#FFFFFF" stroke-width="2" stroke-miterlimit="10" x1="13" y1="110" x2="447" y2="110"/>
<line fill="none" stroke="#FFFFFF" stroke-width="2" stroke-miterlimit="10" x1="13" y1="271" x2="447" y2="271"/>
<circle fill="#FFFFFF" cx="12.779" cy="80.491" r="4.53"/>
<line fill="none" stroke="#FFFFFF" stroke-miterlimit="10" x1="102.5" y1="69" x2="102.5" y2="311"/>
<line fill="none" stroke="#FFFFFF" stroke-miterlimit="10" x1="188.5" y1="80" x2="188.5" y2="311"/>
<line fill="none" stroke="#FFFFFF" stroke-miterlimit="10" x1="274.5" y1="69" x2="274.5" y2="311"/>
<line fill="none" stroke="#FFFFFF" stroke-miterlimit="10" x1="358.5" y1="71" x2="358.5" y2="311"/>
<circle fill="#00A0F2" cx="446.378" cy="70.608" r="4.53"/>
<circle fill="#FFFFFF" cx="188.195" cy="80.491" r="4.53"/>
<circle fill="#FFFFFF" cx="359.905" cy="70.608" r="4.53"/>
<circle fill="#FFFFFF" cx="273.432" cy="70.608" r="4.53"/>
<circle fill="#FFFFFF" cx="101.722" cy="69.373" r="4.53"/>
<line fill="none" stroke="#FFFFFF" stroke-miterlimit="10" x1="446.5" y1="71" x2="446.5" y2="311"/>
<path fill="#00A0F2" d="M449.562,84c6.865-7,11.022-18.286,11.022-29.651c0-25.243-20.464-45.658-45.707-45.658
	c-25.243,0-45.707,20.39-45.707,45.633C369.17,65.69,373.327,77,380.192,84h-0.015c0.026,0,0.053,0.148,0.079,0.172
	c1.822,2.113,3.831,4.108,6.007,5.857c13.032,13.01,28.614,30.814,28.614,30.814s13.901-16.376,28.129-30.396
	c2.364-1.85,4.541-4.018,6.499-6.29c0.023-0.022,0.047-0.158,0.071-0.158H449.562z"/>
</svg>
