<?xml version="1.0" encoding="utf-8"?>
<!-- Generator: Adobe Illustrator 17.0.0, SVG Export Plug-In . SVG Version: 6.00 Build 0)  -->
<!DOCTYPE svg PUBLIC "-//W3C//DTD SVG 1.1//EN" "http://www.w3.org/Graphics/SVG/1.1/DTD/svg11.dtd">
<svg version="1.1" id="Layer_1" xmlns="http://www.w3.org/2000/svg" xmlns:xlink="http://www.w3.org/1999/xlink" x="0px" y="0px"
	 width="518px" height="495.478px" viewBox="0 0 518 495.478" enable-background="new 0 0 518 495.478" xml:space="preserve">
<g>
	<g>
		<g>
			<linearGradient id="SVGID_1_" gradientUnits="userSpaceOnUse" x1="70.323" y1="232.7427" x2="70.323" y2="158.2552">
				<stop  offset="0" style="stop-color:#00A0F2"/>
				<stop  offset="1" style="stop-color:#35E3BB"/>
			</linearGradient>
			<path fill="url(#SVGID_1_)" d="M121.185,226.585H19.461c-0.78,0-1.413-0.633-1.413-1.413v-45.564c0-0.78,0.633-1.413,1.413-1.413
				h101.723c0.78,0,1.413,0.633,1.413,1.413v45.564C122.598,225.953,121.965,226.585,121.185,226.585z M20.874,223.76h98.898
				v-42.738H20.874V223.76z"/>
		</g>
		<g>
			<linearGradient id="SVGID_2_" gradientUnits="userSpaceOnUse" x1="11.8073" y1="232.7427" x2="11.8073" y2="158.2552">
				<stop  offset="0" style="stop-color:#00A0F2"/>
				<stop  offset="1" style="stop-color:#35E3BB"/>
			</linearGradient>
			<path fill="url(#SVGID_2_)" d="M14.751,221.201H8.864c-0.78,0-1.413-0.633-1.413-1.413v-34.689c0-0.78,0.633-1.413,1.413-1.413
				h5.887c0.78,0,1.413,0.633,1.413,1.413s-0.633,1.413-1.413,1.413h-4.474v31.863h4.474c0.78,0,1.413,0.633,1.413,1.413
				S15.531,221.201,14.751,221.201z"/>
		</g>
		<g>
			<linearGradient id="SVGID_3_" gradientUnits="userSpaceOnUse" x1="40.3004" y1="232.7427" x2="40.3004" y2="158.2552">
				<stop  offset="0" style="stop-color:#00A0F2"/>
				<stop  offset="1" style="stop-color:#35E3BB"/>
			</linearGradient>
			<path fill="url(#SVGID_3_)" d="M61.14,180.966c-0.78,0-1.413-0.633-1.413-1.413v-8.468H20.874v8.468
				c0,0.78-0.633,1.413-1.413,1.413c-0.78,0-1.413-0.633-1.413-1.413v-9.881c0-0.78,0.633-1.413,1.413-1.413H61.14
				c0.78,0,1.413,0.633,1.413,1.413v9.881C62.552,180.333,61.92,180.966,61.14,180.966z"/>
		</g>
		<g>
			<linearGradient id="SVGID_4_" gradientUnits="userSpaceOnUse" x1="128.8383" y1="232.7427" x2="128.8383" y2="158.2552">
				<stop  offset="0" style="stop-color:#00A0F2"/>
				<stop  offset="1" style="stop-color:#35E3BB"/>
			</linearGradient>
			<path fill="url(#SVGID_4_)" d="M131.782,221.201h-5.887c-0.78,0-1.413-0.633-1.413-1.413s0.633-1.413,1.413-1.413h4.474v-31.863
				h-4.474c-0.78,0-1.413-0.633-1.413-1.413s0.633-1.413,1.413-1.413h5.887c0.78,0,1.413,0.633,1.413,1.413v34.689
				C133.194,220.568,132.562,221.201,131.782,221.201z"/>
		</g>
		<g>
			<linearGradient id="SVGID_5_" gradientUnits="userSpaceOnUse" x1="79.3649" y1="232.7427" x2="79.3649" y2="158.2552">
				<stop  offset="0" style="stop-color:#00A0F2"/>
				<stop  offset="1" style="stop-color:#35E3BB"/>
			</linearGradient>
			<path fill="url(#SVGID_5_)" d="M114.827,179.675c-0.78,0-1.413-0.633-1.413-1.413v-4.234l-14.835,0
				c-16.459,0-21.035-7.062-22.207-9.89H45.316v4.827c0,0.78-0.633,1.413-1.413,1.413s-1.413-0.633-1.413-1.413v-6.24
				c0-0.78,0.633-1.413,1.413-1.413h33.484c0.673,0,1.253,0.475,1.385,1.136c0.077,0.343,2.155,8.754,19.807,8.754l16.247,0
				c0.375,0,0.734,0.149,0.999,0.414c0.265,0.265,0.414,0.624,0.414,0.999v5.647C116.24,179.043,115.607,179.675,114.827,179.675z"
				/>
		</g>
		<g>
			<linearGradient id="SVGID_6_" gradientUnits="userSpaceOnUse" x1="70.4996" y1="232.7427" x2="70.4996" y2="158.2552">
				<stop  offset="0" style="stop-color:#00A0F2"/>
				<stop  offset="1" style="stop-color:#35E3BB"/>
			</linearGradient>
			<path fill="url(#SVGID_6_)" d="M114.827,192.532H26.172c-0.78,0-1.413-0.633-1.413-1.413s0.633-1.413,1.413-1.413h88.655
				c0.78,0,1.413,0.633,1.413,1.413S115.607,192.532,114.827,192.532z"/>
		</g>
		<g>
			<linearGradient id="SVGID_7_" gradientUnits="userSpaceOnUse" x1="70.4996" y1="232.7427" x2="70.4996" y2="158.2552">
				<stop  offset="0" style="stop-color:#00A0F2"/>
				<stop  offset="1" style="stop-color:#35E3BB"/>
			</linearGradient>
			<path fill="url(#SVGID_7_)" d="M114.827,215.075H26.172c-0.78,0-1.413-0.633-1.413-1.413s0.633-1.413,1.413-1.413h88.655
				c0.78,0,1.413,0.633,1.413,1.413S115.607,215.075,114.827,215.075z"/>
		</g>
	</g>
	<g>
		<linearGradient id="SVGID_8_" gradientUnits="userSpaceOnUse" x1="165.1067" y1="232.7427" x2="165.1067" y2="158.2552">
			<stop  offset="0" style="stop-color:#00A0F2"/>
			<stop  offset="1" style="stop-color:#35E3BB"/>
		</linearGradient>
		<path fill="url(#SVGID_8_)" d="M158.405,208.728c-0.442,0-0.884-0.173-1.212-0.517l-8.796-9.215
			c-0.638-0.671-0.614-1.731,0.056-2.369c0.669-0.641,1.729-0.615,2.369,0.052l7.651,8.017l20.989-19.601
			c0.674-0.632,1.738-0.596,2.368,0.082c0.632,0.674,0.596,1.734-0.08,2.366l-22.2,20.734
			C159.226,208.578,158.816,208.728,158.405,208.728z"/>
	</g>
	<g>
		<g>
			<linearGradient id="SVGID_9_" gradientUnits="userSpaceOnUse" x1="70.323" y1="313.1638" x2="70.323" y2="238.6763">
				<stop  offset="0" style="stop-color:#00A0F2"/>
				<stop  offset="1" style="stop-color:#35E3BB"/>
			</linearGradient>
			<path fill="url(#SVGID_9_)" d="M121.185,307.006H19.461c-0.78,0-1.413-0.633-1.413-1.413V260.03c0-0.78,0.633-1.413,1.413-1.413
				h101.723c0.78,0,1.413,0.633,1.413,1.413v45.564C122.598,306.374,121.965,307.006,121.185,307.006z M20.874,304.181h98.898
				v-42.738H20.874V304.181z"/>
		</g>
		<g>
			<linearGradient id="SVGID_10_" gradientUnits="userSpaceOnUse" x1="11.8073" y1="313.1638" x2="11.8073" y2="238.6763">
				<stop  offset="0" style="stop-color:#00A0F2"/>
				<stop  offset="1" style="stop-color:#35E3BB"/>
			</linearGradient>
			<path fill="url(#SVGID_10_)" d="M14.751,301.622H8.864c-0.78,0-1.413-0.633-1.413-1.413V265.52c0-0.78,0.633-1.413,1.413-1.413
				h5.887c0.78,0,1.413,0.633,1.413,1.413c0,0.78-0.633,1.413-1.413,1.413h-4.474v31.863h4.474c0.78,0,1.413,0.633,1.413,1.413
				C16.164,300.989,15.531,301.622,14.751,301.622z"/>
		</g>
		<g>
			<linearGradient id="SVGID_11_" gradientUnits="userSpaceOnUse" x1="40.3004" y1="313.1638" x2="40.3004" y2="238.6763">
				<stop  offset="0" style="stop-color:#00A0F2"/>
				<stop  offset="1" style="stop-color:#35E3BB"/>
			</linearGradient>
			<path fill="url(#SVGID_11_)" d="M61.14,261.387c-0.78,0-1.413-0.633-1.413-1.413v-8.468H20.874v8.468
				c0,0.78-0.633,1.413-1.413,1.413c-0.78,0-1.413-0.633-1.413-1.413v-9.881c0-0.78,0.633-1.413,1.413-1.413H61.14
				c0.78,0,1.413,0.633,1.413,1.413v9.881C62.552,260.754,61.92,261.387,61.14,261.387z"/>
		</g>
		<g>
			<linearGradient id="SVGID_12_" gradientUnits="userSpaceOnUse" x1="128.8383" y1="313.1638" x2="128.8383" y2="238.6763">
				<stop  offset="0" style="stop-color:#00A0F2"/>
				<stop  offset="1" style="stop-color:#35E3BB"/>
			</linearGradient>
			<path fill="url(#SVGID_12_)" d="M131.782,301.622h-5.887c-0.78,0-1.413-0.633-1.413-1.413c0-0.78,0.633-1.413,1.413-1.413h4.474
				v-31.863h-4.474c-0.78,0-1.413-0.633-1.413-1.413c0-0.78,0.633-1.413,1.413-1.413h5.887c0.78,0,1.413,0.633,1.413,1.413v34.689
				C133.194,300.989,132.562,301.622,131.782,301.622z"/>
		</g>
		<g>
			<linearGradient id="SVGID_13_" gradientUnits="userSpaceOnUse" x1="79.3649" y1="313.1638" x2="79.3649" y2="238.6763">
				<stop  offset="0" style="stop-color:#00A0F2"/>
				<stop  offset="1" style="stop-color:#35E3BB"/>
			</linearGradient>
			<path fill="url(#SVGID_13_)" d="M114.827,260.096c-0.78,0-1.413-0.633-1.413-1.413v-4.234l-14.835,0
				c-16.459,0-21.035-7.062-22.207-9.89H45.316v4.827c0,0.78-0.633,1.413-1.413,1.413s-1.413-0.633-1.413-1.413v-6.24
				c0-0.78,0.633-1.413,1.413-1.413h33.484c0.673,0,1.253,0.475,1.385,1.136c0.077,0.343,2.155,8.754,19.807,8.754l16.247,0
				c0.375,0,0.734,0.149,0.999,0.414c0.265,0.265,0.414,0.624,0.414,0.999v5.647C116.24,259.464,115.607,260.096,114.827,260.096z"
				/>
		</g>
		<g>
			<linearGradient id="SVGID_14_" gradientUnits="userSpaceOnUse" x1="70.4996" y1="313.1638" x2="70.4996" y2="238.6763">
				<stop  offset="0" style="stop-color:#00A0F2"/>
				<stop  offset="1" style="stop-color:#35E3BB"/>
			</linearGradient>
			<path fill="url(#SVGID_14_)" d="M114.827,272.953H26.172c-0.78,0-1.413-0.633-1.413-1.413c0-0.78,0.633-1.413,1.413-1.413h88.655
				c0.78,0,1.413,0.633,1.413,1.413C116.24,272.321,115.607,272.953,114.827,272.953z"/>
		</g>
		<g>
			<linearGradient id="SVGID_15_" gradientUnits="userSpaceOnUse" x1="70.4996" y1="313.1638" x2="70.4996" y2="238.6763">
				<stop  offset="0" style="stop-color:#00A0F2"/>
				<stop  offset="1" style="stop-color:#35E3BB"/>
			</linearGradient>
			<path fill="url(#SVGID_15_)" d="M114.827,295.496H26.172c-0.78,0-1.413-0.633-1.413-1.413c0-0.78,0.633-1.413,1.413-1.413h88.655
				c0.78,0,1.413,0.633,1.413,1.413C116.24,294.864,115.607,295.496,114.827,295.496z"/>
		</g>
	</g>
	<g>
		<linearGradient id="SVGID_16_" gradientUnits="userSpaceOnUse" x1="165.1067" y1="313.1638" x2="165.1067" y2="238.6763">
			<stop  offset="0" style="stop-color:#00A0F2"/>
			<stop  offset="1" style="stop-color:#35E3BB"/>
		</linearGradient>
		<path fill="url(#SVGID_16_)" d="M158.405,289.149c-0.442,0-0.884-0.173-1.212-0.517l-8.796-9.215
			c-0.638-0.671-0.614-1.731,0.056-2.369c0.669-0.641,1.729-0.615,2.369,0.052l7.651,8.017l20.989-19.601
			c0.674-0.632,1.738-0.596,2.368,0.082c0.632,0.674,0.596,1.734-0.08,2.366l-22.2,20.734
			C159.226,288.999,158.816,289.149,158.405,289.149z"/>
	</g>
	<g>
		<g>
			<linearGradient id="SVGID_17_" gradientUnits="userSpaceOnUse" x1="70.323" y1="393.5848" x2="70.323" y2="319.0974">
				<stop  offset="0" style="stop-color:#00A0F2"/>
				<stop  offset="1" style="stop-color:#35E3BB"/>
			</linearGradient>
			<path fill="url(#SVGID_17_)" d="M121.185,387.427H19.461c-0.78,0-1.413-0.633-1.413-1.413v-45.564
				c0-0.78,0.633-1.413,1.413-1.413h101.723c0.78,0,1.413,0.633,1.413,1.413v45.564
				C122.598,386.795,121.965,387.427,121.185,387.427z M20.874,384.602h98.898v-42.738H20.874V384.602z"/>
		</g>
		<g>
			<linearGradient id="SVGID_18_" gradientUnits="userSpaceOnUse" x1="11.8073" y1="393.5848" x2="11.8073" y2="319.0974">
				<stop  offset="0" style="stop-color:#00A0F2"/>
				<stop  offset="1" style="stop-color:#35E3BB"/>
			</linearGradient>
			<path fill="url(#SVGID_18_)" d="M14.751,382.043H8.864c-0.78,0-1.413-0.633-1.413-1.413v-34.689c0-0.78,0.633-1.413,1.413-1.413
				h5.887c0.78,0,1.413,0.633,1.413,1.413c0,0.78-0.633,1.413-1.413,1.413h-4.474v31.863h4.474c0.78,0,1.413,0.633,1.413,1.413
				C16.164,381.41,15.531,382.043,14.751,382.043z"/>
		</g>
		<g>
			<linearGradient id="SVGID_19_" gradientUnits="userSpaceOnUse" x1="40.3004" y1="393.5848" x2="40.3004" y2="319.0974">
				<stop  offset="0" style="stop-color:#00A0F2"/>
				<stop  offset="1" style="stop-color:#35E3BB"/>
			</linearGradient>
			<path fill="url(#SVGID_19_)" d="M61.14,341.808c-0.78,0-1.413-0.633-1.413-1.413v-8.468H20.874v8.468
				c0,0.78-0.633,1.413-1.413,1.413c-0.78,0-1.413-0.633-1.413-1.413v-9.881c0-0.78,0.633-1.413,1.413-1.413H61.14
				c0.78,0,1.413,0.633,1.413,1.413v9.881C62.552,341.175,61.92,341.808,61.14,341.808z"/>
		</g>
		<g>
			<linearGradient id="SVGID_20_" gradientUnits="userSpaceOnUse" x1="128.8383" y1="393.5848" x2="128.8383" y2="319.0974">
				<stop  offset="0" style="stop-color:#00A0F2"/>
				<stop  offset="1" style="stop-color:#35E3BB"/>
			</linearGradient>
			<path fill="url(#SVGID_20_)" d="M131.782,382.043h-5.887c-0.78,0-1.413-0.633-1.413-1.413c0-0.78,0.633-1.413,1.413-1.413h4.474
				v-31.863h-4.474c-0.78,0-1.413-0.633-1.413-1.413c0-0.78,0.633-1.413,1.413-1.413h5.887c0.78,0,1.413,0.633,1.413,1.413v34.689
				C133.194,381.41,132.562,382.043,131.782,382.043z"/>
		</g>
		<g>
			<linearGradient id="SVGID_21_" gradientUnits="userSpaceOnUse" x1="79.3649" y1="393.5848" x2="79.3649" y2="319.0974">
				<stop  offset="0" style="stop-color:#00A0F2"/>
				<stop  offset="1" style="stop-color:#35E3BB"/>
			</linearGradient>
			<path fill="url(#SVGID_21_)" d="M114.827,340.517c-0.78,0-1.413-0.633-1.413-1.413v-4.234l-14.835,0
				c-16.459,0-21.035-7.062-22.207-9.89H45.316v4.827c0,0.78-0.633,1.413-1.413,1.413s-1.413-0.633-1.413-1.413v-6.24
				c0-0.78,0.633-1.413,1.413-1.413h33.484c0.673,0,1.253,0.475,1.385,1.136c0.077,0.343,2.155,8.754,19.807,8.754l16.247,0
				c0.375,0,0.734,0.149,0.999,0.414c0.265,0.265,0.414,0.624,0.414,0.999v5.647C116.24,339.885,115.607,340.517,114.827,340.517z"
				/>
		</g>
		<g>
			<linearGradient id="SVGID_22_" gradientUnits="userSpaceOnUse" x1="70.4996" y1="393.5848" x2="70.4996" y2="319.0974">
				<stop  offset="0" style="stop-color:#00A0F2"/>
				<stop  offset="1" style="stop-color:#35E3BB"/>
			</linearGradient>
			<path fill="url(#SVGID_22_)" d="M114.827,353.374H26.172c-0.78,0-1.413-0.633-1.413-1.413c0-0.78,0.633-1.413,1.413-1.413h88.655
				c0.78,0,1.413,0.633,1.413,1.413C116.24,352.742,115.607,353.374,114.827,353.374z"/>
		</g>
		<g>
			<linearGradient id="SVGID_23_" gradientUnits="userSpaceOnUse" x1="70.4996" y1="393.5848" x2="70.4996" y2="319.0974">
				<stop  offset="0" style="stop-color:#00A0F2"/>
				<stop  offset="1" style="stop-color:#35E3BB"/>
			</linearGradient>
			<path fill="url(#SVGID_23_)" d="M114.827,375.917H26.172c-0.78,0-1.413-0.633-1.413-1.413c0-0.78,0.633-1.413,1.413-1.413h88.655
				c0.78,0,1.413,0.633,1.413,1.413C116.24,375.285,115.607,375.917,114.827,375.917z"/>
		</g>
	</g>
	<g>
		<linearGradient id="SVGID_24_" gradientUnits="userSpaceOnUse" x1="165.1067" y1="393.5848" x2="165.1067" y2="319.0974">
			<stop  offset="0" style="stop-color:#00A0F2"/>
			<stop  offset="1" style="stop-color:#35E3BB"/>
		</linearGradient>
		<path fill="url(#SVGID_24_)" d="M158.405,369.57c-0.442,0-0.884-0.173-1.212-0.517l-8.796-9.215
			c-0.638-0.671-0.614-1.731,0.056-2.369c0.669-0.641,1.729-0.615,2.369,0.052l7.651,8.017l20.989-19.601
			c0.674-0.632,1.738-0.596,2.368,0.082c0.632,0.674,0.596,1.734-0.08,2.366l-22.2,20.734
			C159.226,369.42,158.816,369.57,158.405,369.57z"/>
	</g>
</g>
<g>
	<g>
		<linearGradient id="SVGID_25_" gradientUnits="userSpaceOnUse" x1="459.6067" y1="395.7312" x2="459.6067" y2="308.8724">
			<stop  offset="0" style="stop-color:#00A0F2"/>
			<stop  offset="1" style="stop-color:#35E3BB"/>
		</linearGradient>
		<path fill="url(#SVGID_25_)" d="M452.405,367.728c-0.442,0-0.884-0.173-1.212-0.517l-11.796-12.215
			c-0.638-0.671-0.614-1.731,0.056-2.369c0.669-0.641,1.729-0.615,2.369,0.052l10.651,11.017l24.989-23.601
			c0.674-0.632,1.738-0.596,2.368,0.082c0.632,0.674,0.596,1.734-0.08,2.366l-26.2,24.734
			C453.226,367.578,452.816,367.728,452.405,367.728z"/>
	</g>
	<g>
		<linearGradient id="SVGID_26_" gradientUnits="userSpaceOnUse" x1="458.6068" y1="417.8596" x2="458.6068" y2="293.8595">
			<stop  offset="0" style="stop-color:#00A0F2"/>
			<stop  offset="1" style="stop-color:#35E3BB"/>
		</linearGradient>
		<path fill="url(#SVGID_26_)" d="M458.607,415.873c-0.216,0-0.432-0.043-0.635-0.124c-52.204-21.359-52.02-89.499-52.014-90.186
			c0.01-0.916,0.759-1.656,1.675-1.656c9.493,0,15.573-5.498,22.01-11.316c7.144-6.456,15.239-13.777,28.964-13.777
			c13.724,0,21.82,7.32,28.964,13.777c6.437,5.818,12.517,11.316,22.01,11.316c0.916,0,1.666,0.74,1.675,1.656
			c0.007,0.687,0.19,68.827-52.014,90.186C459.039,415.831,458.823,415.873,458.607,415.873z M409.338,327.206
			c0.324,10.213,4.172,66.226,49.268,85.179c45.096-18.953,48.944-74.966,49.268-85.179c-9.814-0.612-16.283-6.463-22.553-12.127
			c-7.022-6.348-14.284-12.913-26.715-12.913c-12.432,0-19.693,6.564-26.715,12.913
			C425.622,320.743,419.152,326.594,409.338,327.206z"/>
	</g>
	<g>
		<linearGradient id="SVGID_27_" gradientUnits="userSpaceOnUse" x1="497.6299" y1="417.8596" x2="497.6299" y2="293.8595">
			<stop  offset="0" style="stop-color:#00A0F2"/>
			<stop  offset="1" style="stop-color:#35E3BB"/>
		</linearGradient>
		<path fill="url(#SVGID_27_)" d="M497.132,345.809c-0.131,0-0.268-0.016-0.402-0.049c-0.9-0.223-1.446-1.132-1.224-2.029
			c0.344-1.381,0.674-2.788,0.982-4.231c0.193-0.9,1.047-1.463,1.993-1.286c0.903,0.196,1.479,1.086,1.286,1.993
			c-0.321,1.476-0.658,2.916-1.008,4.329C498.569,345.299,497.885,345.809,497.132,345.809z"/>
	</g>
	<g>
		<linearGradient id="SVGID_28_" gradientUnits="userSpaceOnUse" x1="465.4902" y1="417.8596" x2="465.4902" y2="293.8595">
			<stop  offset="0" style="stop-color:#00A0F2"/>
			<stop  offset="1" style="stop-color:#35E3BB"/>
		</linearGradient>
		<path fill="url(#SVGID_28_)" d="M458.607,402.827c-0.147,0-0.291-0.02-0.435-0.059c-12.248-3.285-23.554-20.809-24.029-21.552
			c-0.501-0.782-0.272-1.816,0.507-2.314c0.776-0.501,1.816-0.278,2.314,0.507c0.108,0.17,10.691,16.558,21.476,19.948
			c3.619-1.927,24.765-14.477,35.384-49.52c0.268-0.887,1.211-1.387,2.088-1.119c0.887,0.268,1.387,1.204,1.119,2.088
			c-12.049,39.759-36.686,51.392-37.727,51.87C459.081,402.774,458.846,402.827,458.607,402.827z"/>
	</g>
	<g>
		<linearGradient id="SVGID_29_" gradientUnits="userSpaceOnUse" x1="423.38" y1="417.8596" x2="423.38" y2="293.8595">
			<stop  offset="0" style="stop-color:#00A0F2"/>
			<stop  offset="1" style="stop-color:#35E3BB"/>
		</linearGradient>
		<path fill="url(#SVGID_29_)" d="M420.703,337.196c-0.733,0-1.404-0.484-1.613-1.221c-0.249-0.893,0.268-1.816,1.158-2.068
			c1.077-0.301,2.821-0.906,5.03-2.065c0.812-0.429,1.833-0.118,2.261,0.704c0.432,0.818,0.115,1.833-0.704,2.261
			c-2.467,1.296-4.45,1.98-5.678,2.327C421.004,337.177,420.854,337.196,420.703,337.196z"/>
	</g>
	<g>
		<linearGradient id="SVGID_30_" gradientUnits="userSpaceOnUse" x1="426.0571" y1="333.325" x2="426.0571" y2="333.325">
			<stop  offset="0" style="stop-color:#00A0F2"/>
			<stop  offset="1" style="stop-color:#35E3BB"/>
		</linearGradient>
		<path fill="url(#SVGID_30_)" d="M426.057,333.325"/>
	</g>
	<g>
		<linearGradient id="SVGID_31_" gradientUnits="userSpaceOnUse" x1="445.8707" y1="417.8596" x2="445.8707" y2="293.8595">
			<stop  offset="0" style="stop-color:#00A0F2"/>
			<stop  offset="1" style="stop-color:#35E3BB"/>
		</linearGradient>
		<path fill="url(#SVGID_31_)" d="M433.135,330.302c-0.491,0-0.975-0.216-1.309-0.628c-0.576-0.72-0.461-1.777,0.262-2.356
			c1.78-1.427,3.573-3.063,5.324-4.863c12.834-13.197,21.169-11.731,21.519-11.666c0.91,0.18,1.499,1.06,1.319,1.967
			c-0.177,0.9-1.054,1.476-1.944,1.325c-0.16-0.016-7.202-0.9-18.492,10.71c-1.849,1.898-3.744,3.629-5.632,5.144
			C433.874,330.181,433.505,330.302,433.135,330.302z"/>
	</g>
</g>
<g>
	<linearGradient id="SVGID_32_" gradientUnits="userSpaceOnUse" x1="308.1703" y1="105" x2="308.1703" y2="5.4799">
		<stop  offset="0" style="stop-color:#00A0F2"/>
		<stop  offset="1" style="stop-color:#35E3BB"/>
	</linearGradient>
	<path fill="url(#SVGID_32_)" d="M304.61,16h7.121c0.926,0,1.675-0.574,1.675-1.5s-0.749-1.5-1.675-1.5h-7.121
		c-0.926,0-1.675,0.574-1.675,1.5S303.684,16,304.61,16z"/>
	<linearGradient id="SVGID_33_" gradientUnits="userSpaceOnUse" x1="308.1708" y1="115.462" x2="308.1708" y2="4.3021">
		<stop  offset="0" style="stop-color:#00A0F2"/>
		<stop  offset="1" style="stop-color:#35E3BB"/>
	</linearGradient>
	<circle fill="url(#SVGID_33_)" cx="308.171" cy="86.7" r="2.234"/>
	<linearGradient id="SVGID_34_" gradientUnits="userSpaceOnUse" x1="367.8349" y1="115.462" x2="367.8349" y2="4.3021">
		<stop  offset="0" style="stop-color:#00A0F2"/>
		<stop  offset="1" style="stop-color:#35E3BB"/>
	</linearGradient>
	<circle fill="url(#SVGID_34_)" cx="367.835" cy="109.319" r="2.234"/>
	<linearGradient id="SVGID_35_" gradientUnits="userSpaceOnUse" x1="317.5" y1="115.8788" x2="317.5" y2="4.2956">
		<stop  offset="0" style="stop-color:#00A0F2"/>
		<stop  offset="1" style="stop-color:#35E3BB"/>
	</linearGradient>
	<path fill="url(#SVGID_35_)" d="M379.563,53H368V17.17C368,10.704,362.668,6,356.202,6h-96.06C253.676,6,247,10.704,247,17.17
		v66.342C247,89.978,253.676,96,260.142,96h39.302c0.173,4-0.091,10.866-5.071,13.178l0.243,0.822h-18.488
		c-0.926,0-1.675,0.574-1.675,1.5s0.749,1.5,1.675,1.5h64.086c0.926,0,1.675-0.574,1.675-1.5s-0.749-1.5-1.675-1.5h-18.487
		l0.244-0.822c-4.98-2.312-5.245-9.178-5.073-13.178H348v7.175v3.351v1.675c0,4.621,3.486,8.798,8.107,8.798h23.456
		c4.621,0,8.437-4.178,8.437-8.798V61.289C388,56.671,384.184,53,379.563,53z M251,17.17c0-4.619,4.523-8.17,9.142-8.17h96.06
		c4.621,0,7.798,3.551,7.798,8.17V53h-7.893c-4.621,0-8.107,3.671-8.107,8.289v1.675v3.351V80h-97V17.17z M317.208,110h-18.075
		c3.538-4,3.83-10,3.673-14h10.731C313.379,100,313.671,106,317.208,110z M260.142,93c-4.619,0-9.142-4.868-9.142-9.488V83h97v10
		H260.142z M385,108.202c0,2.772-2.665,4.798-5.437,4.798h-23.456c-2.772,0-5.107-2.027-5.107-4.798V107h34V108.202z M385,103h-34
		V66h34V103z M385,63h-34v-1.711c0-2.772,2.335-5.289,5.107-5.289h8.377h3.351h11.728c2.772,0,5.437,2.518,5.437,5.289V63z"/>
	<linearGradient id="SVGID_36_" gradientUnits="userSpaceOnUse" x1="297.2578" y1="115.462" x2="297.2578" y2="4.3021">
		<stop  offset="0" style="stop-color:#00A0F2"/>
		<stop  offset="1" style="stop-color:#35E3BB"/>
	</linearGradient>
	<path fill="url(#SVGID_36_)" d="M311.59,29.389c-0.654-0.654-1.715-0.654-2.369,0l-26.295,26.295c-0.654,0.654-0.654,1.715,0,2.369
		c0.327,0.327,0.756,0.491,1.185,0.491s0.857-0.164,1.185-0.491l26.295-26.295C312.244,31.104,312.244,30.044,311.59,29.389z"/>
	<linearGradient id="SVGID_37_" gradientUnits="userSpaceOnUse" x1="314.0122" y1="115.462" x2="314.0122" y2="4.3021">
		<stop  offset="0" style="stop-color:#00A0F2"/>
		<stop  offset="1" style="stop-color:#35E3BB"/>
	</linearGradient>
	<path fill="url(#SVGID_37_)" d="M325.975,36.091L299.68,62.386c-0.654,0.654-0.654,1.715,0,2.369
		c0.327,0.327,0.756,0.491,1.185,0.491c0.429,0,0.857-0.164,1.185-0.491l26.295-26.295c0.654-0.654,0.654-1.715,0-2.369
		C327.69,35.436,326.63,35.436,325.975,36.091z"/>
	<linearGradient id="SVGID_38_" gradientUnits="userSpaceOnUse" x1="369.7198" y1="115.462" x2="369.7198" y2="4.3021">
		<stop  offset="0" style="stop-color:#00A0F2"/>
		<stop  offset="1" style="stop-color:#35E3BB"/>
	</linearGradient>
	<path fill="url(#SVGID_38_)" d="M361.437,90.119c0.327,0.327,0.756,0.491,1.185,0.491s0.857-0.164,1.185-0.491l14.195-14.195
		c0.654-0.654,0.654-1.715,0-2.369c-0.654-0.654-1.715-0.654-2.369,0L361.437,87.75C360.783,88.404,360.783,89.464,361.437,90.119z"
		/>
</g>
<g>
	<g>
		<path fill="#FFFFFF" d="M421.586,431.515c-0.821,0-1.641-0.336-2.232-0.995c-1.107-1.232-1.006-3.129,0.227-4.236
			c2.188-1.967,4.367-4.007,6.474-6.063c1.185-1.155,3.085-1.136,4.242,0.051c1.157,1.186,1.135,3.085-0.051,4.242
			c-2.166,2.114-4.405,4.212-6.655,6.233C423.017,431.261,422.3,431.515,421.586,431.515z"/>
	</g>
	<g>
		<path fill="#FFFFFF" d="M271.772,486c-0.029,0-0.059,0-0.087,0c-6.121,0-12.305-0.404-18.38-1.089
			c-1.646-0.186-2.831-1.568-2.646-3.215c0.187-1.646,1.672-2.773,3.317-2.594c5.909,0.666,11.925,1.115,17.878,1.284
			c1.656,0.048,2.961,1.235,2.914,2.891C274.723,484.905,273.39,486,271.772,486z M289.927,486.175
			c-1.582,0-2.905-1.237-2.992-2.836c-0.091-1.655,1.177-3.069,2.831-3.159c5.952-0.325,11.949-0.906,17.824-1.727
			c1.632-0.242,3.157,0.914,3.386,2.556c0.229,1.641-0.915,3.157-2.556,3.386c-6.042,0.845-12.207,1.441-18.326,1.775
			C290.038,486.174,289.982,486.175,289.927,486.175z M235.69,482.334c-0.194,0-0.392-0.02-0.591-0.059
			c-6.004-1.199-12.025-2.671-17.897-4.375c-1.591-0.461-2.507-2.126-2.045-3.717c0.46-1.591,2.121-2.51,3.717-2.045
			c5.709,1.656,11.563,3.087,17.401,4.252c1.624,0.325,2.679,1.905,2.354,3.53C238.345,481.347,237.092,482.334,235.69,482.334z
			 M325.863,481.154c-1.369,0-2.605-0.943-2.922-2.336c-0.368-1.615,0.644-3.223,2.26-3.59c5.801-1.32,11.612-2.904,17.273-4.71
			c1.578-0.505,3.266,0.369,3.77,1.947c0.503,1.578-0.368,3.266-1.947,3.77c-5.822,1.856-11.799,3.486-17.766,4.843
			C326.308,481.13,326.084,481.154,325.863,481.154z M200.82,472.223c-0.358,0-0.723-0.064-1.077-0.201
			c-5.703-2.195-11.388-4.666-16.894-7.343c-1.49-0.725-2.111-2.52-1.387-4.01s2.521-2.11,4.01-1.387
			c5.354,2.603,10.881,5.005,16.427,7.14c1.546,0.596,2.316,2.331,1.722,3.878C203.162,471.491,202.025,472.223,200.82,472.223z
			 M360.437,470.128c-1.176,0-2.292-0.696-2.771-1.85c-0.636-1.53,0.089-3.286,1.619-3.922c5.485-2.279,10.945-4.825,16.228-7.567
			c1.473-0.761,3.282-0.188,4.045,1.281c0.763,1.471,0.189,3.281-1.281,4.045c-5.432,2.819-11.047,5.438-16.688,7.782
			C361.21,470.054,360.82,470.128,360.437,470.128z M168.174,456.354c-0.522,0-1.051-0.136-1.532-0.423
			c-5.254-3.13-10.438-6.522-15.41-10.085c-1.347-0.965-1.656-2.839-0.691-4.186c0.966-1.346,2.839-1.655,4.186-0.691
			c4.835,3.464,9.878,6.764,14.986,9.808c1.424,0.848,1.891,2.689,1.042,4.112C170.192,455.832,169.196,456.354,168.174,456.354z
			 M392.646,453.412c-0.995,0-1.969-0.494-2.539-1.397c-0.885-1.4-0.467-3.254,0.934-4.139c5.027-3.177,9.981-6.606,14.724-10.195
			c1.322-0.997,3.203-0.74,4.203,0.583c1,1.321,0.739,3.202-0.582,4.202c-4.877,3.689-9.971,7.216-15.14,10.482
			C393.748,453.263,393.193,453.412,392.646,453.412z M138.672,435.219c-0.688,0-1.38-0.235-1.945-0.717
			c-4.65-3.964-9.192-8.177-13.5-12.521c-1.166-1.177-1.158-3.076,0.019-4.243c1.177-1.165,3.076-1.158,4.243,0.019
			c4.189,4.227,8.607,8.324,13.131,12.18c1.261,1.075,1.412,2.969,0.337,4.229C140.362,434.861,139.52,435.219,138.672,435.219z"/>
	</g>
</g>
<g>
	<g>
		<path fill="#FFFFFF" d="M421.543,111.599c-0.714,0-1.431-0.253-2.004-0.768c-2.186-1.964-4.448-3.912-6.724-5.79
			c-1.278-1.055-1.459-2.945-0.404-4.223c1.053-1.277,2.945-1.461,4.223-0.404c2.34,1.931,4.666,3.934,6.915,5.952
			c1.232,1.107,1.334,3.004,0.228,4.237C423.184,111.263,422.365,111.599,421.543,111.599z"/>
	</g>
	<g>
		<path fill="#FFFFFF" d="M487.02,221.283c-1.355,0-2.584-0.925-2.914-2.302c-1.238-5.161-2.689-10.339-4.313-15.388
			c-0.508-1.577,0.359-3.268,1.937-3.774c1.578-0.51,3.267,0.359,3.774,1.937c1.671,5.193,3.164,10.519,4.437,15.827
			c0.387,1.61-0.606,3.23-2.218,3.616C487.487,221.256,487.252,221.283,487.02,221.283z M477.1,190.446
			c-1.183,0-2.304-0.704-2.778-1.867c-2.006-4.915-4.224-9.813-6.593-14.559c-0.74-1.482-0.139-3.284,1.344-4.023
			c1.48-0.74,3.284-0.14,4.023,1.344c2.438,4.88,4.718,9.917,6.78,14.971c0.626,1.534-0.109,3.285-1.644,3.911
			C477.861,190.374,477.478,190.446,477.1,190.446z M462.631,161.464c-1.021,0-2.017-0.521-2.578-1.461
			c-2.719-4.549-5.65-9.059-8.712-13.401c-0.954-1.354-0.631-3.226,0.724-4.181c1.355-0.956,3.227-0.63,4.181,0.724
			c3.147,4.466,6.162,9.103,8.958,13.78c0.85,1.422,0.386,3.264-1.036,4.114C463.685,161.327,463.154,161.464,462.631,161.464z
			 M443.963,134.984c-0.865,0-1.724-0.372-2.317-1.092c-3.377-4.098-6.95-8.117-10.621-11.946c-1.146-1.196-1.106-3.096,0.09-4.242
			c1.196-1.145,3.095-1.106,4.242,0.09c3.773,3.938,7.447,8.07,10.92,12.282c1.054,1.278,0.871,3.169-0.407,4.224
			C445.311,134.76,444.635,134.984,443.963,134.984z"/>
	</g>
	<g>
		<path fill="#FFFFFF" d="M491.442,246.121c-1.5,0-2.796-1.122-2.976-2.648c-0.346-2.931-0.757-5.889-1.224-8.79
			c-0.263-1.636,0.85-3.176,2.485-3.438c1.646-0.271,3.176,0.85,3.438,2.485c0.479,2.985,0.903,6.026,1.259,9.04
			c0.194,1.646-0.982,3.137-2.628,3.331C491.679,246.114,491.56,246.121,491.442,246.121z"/>
	</g>
</g>
<g>
	<g>
		<path fill="#FFFFFF" d="M147.746,100.612c-0.903,0-1.796-0.406-2.387-1.18c-1.005-1.317-0.752-3.2,0.564-4.205
			c2.398-1.831,4.878-3.642,7.368-5.383c1.36-0.948,3.229-0.617,4.178,0.74s0.618,3.229-0.74,4.178
			c-2.422,1.693-4.833,3.454-7.165,5.234C149.021,100.412,148.381,100.612,147.746,100.612z"/>
	</g>
	<g>
		<path fill="#FFFFFF" d="M167.29,87.328c-1.018,0-2.01-0.518-2.573-1.452c-0.854-1.42-0.396-3.263,1.022-4.118
			c4.222-2.542,8.586-4.972,12.972-7.221c1.478-0.762,3.282-0.174,4.038,1.3c0.757,1.475,0.175,3.282-1.3,4.038
			c-4.266,2.188-8.51,4.551-12.614,7.023C168.351,87.189,167.816,87.328,167.29,87.328z M193.329,73.977
			c-1.163,0-2.27-0.681-2.758-1.818c-0.653-1.522,0.051-3.286,1.574-3.939c4.529-1.944,9.184-3.755,13.835-5.383
			c1.563-0.546,3.274,0.276,3.822,1.84c0.548,1.563-0.276,3.275-1.84,3.822c-4.521,1.584-9.048,3.345-13.452,5.234
			C194.126,73.898,193.725,73.977,193.329,73.977z"/>
	</g>
	<g>
		<path fill="#FFFFFF" d="M220.96,64.304c-1.317,0-2.525-0.875-2.891-2.207c-0.439-1.598,0.501-3.249,2.099-3.688
			c2.921-0.802,5.898-1.552,8.85-2.23c1.61-0.37,3.225,0.637,3.596,2.252c0.371,1.615-0.638,3.225-2.252,3.596
			c-2.87,0.659-5.765,1.389-8.605,2.169C221.49,64.269,221.223,64.304,220.96,64.304z"/>
	</g>
</g>
</svg>
