<?xml version="1.0" encoding="utf-8"?>
<!-- Generator: Adobe Illustrator 17.0.0, SVG Export Plug-In . SVG Version: 6.00 Build 0)  -->
<!DOCTYPE svg PUBLIC "-//W3C//DTD SVG 1.1//EN" "http://www.w3.org/Graphics/SVG/1.1/DTD/svg11.dtd">
<svg version="1.1" id="Layer_1" xmlns="http://www.w3.org/2000/svg" xmlns:xlink="http://www.w3.org/1999/xlink" x="0px" y="0px"
	 width="423.714px" height="115px" viewBox="0 0 423.714 115" enable-background="new 0 0 423.714 115" xml:space="preserve">
<g>
	<defs>
		<filter id="Adobe_OpacityMaskFilter" filterUnits="userSpaceOnUse" x="9.388" y="2.833" width="407.5" height="110.667">
			<feColorMatrix  type="matrix" values="1 0 0 0 0  0 1 0 0 0  0 0 1 0 0  0 0 0 1 0"/>
		</filter>
	</defs>
	<mask maskUnits="userSpaceOnUse" x="9.388" y="2.833" width="407.5" height="110.667" id="XMLID_5_">
		<g id="XMLID_54_" filter="url(#Adobe_OpacityMaskFilter)">
			
				<radialGradient id="XMLID_51_" cx="213.923" cy="46.5" r="80.3328" gradientTransform="matrix(1.4689 0 0 1 -95.1765 0)" gradientUnits="userSpaceOnUse">
				<stop  offset="0" style="stop-color:#FFFFFF"/>
				<stop  offset="1" style="stop-color:#000000"/>
			</radialGradient>
			<ellipse id="XMLID_55_" fill="url(#XMLID_51_)" cx="219.055" cy="46.5" rx="118" ry="80.333"/>
		</g>
	</mask>
	<g id="XMLID_3_" mask="url(#XMLID_5_)">
		
			<line id="XMLID_50_" fill="none" stroke="#FFFFFF" stroke-width="0.5" stroke-miterlimit="10" x1="14.055" y1="89.667" x2="10.722" y2="47.667"/>
		<g id="XMLID_22_">
			<polyline id="XMLID_49_" fill="none" stroke="#FFFFFF" stroke-width="0.25" stroke-miterlimit="10" points="84.888,19.083 
				129.138,22.833 85.638,60.833 			"/>
			<path id="XMLID_48_" fill="none" stroke="#FFFFFF" stroke-width="0.25" stroke-miterlimit="10" d="M274.138,41.583l-79.25-38
				l-65.75,19.25c0,0,35.5,15.75,36.5,16.25L274.138,41.583z"/>
			
				<line id="XMLID_47_" fill="none" stroke="#FFFFFF" stroke-width="0.25" stroke-miterlimit="10" x1="195.055" y1="3.667" x2="165.888" y2="39.167"/>
			
				<line id="XMLID_46_" fill="none" stroke="#FFFFFF" stroke-width="0.25" stroke-miterlimit="10" x1="85.722" y1="60.833" x2="189.055" y2="85.5"/>
			
				<line id="XMLID_45_" fill="none" stroke="#FFFFFF" stroke-width="0.25" stroke-miterlimit="10" x1="189.222" y1="85.667" x2="166.055" y2="39"/>
			
				<line id="XMLID_44_" fill="none" stroke="#FFFFFF" stroke-width="0.25" stroke-miterlimit="10" x1="189.055" y1="85.5" x2="274.222" y2="41.5"/>
			
				<line id="XMLID_43_" fill="none" stroke="#FFFFFF" stroke-width="0.25" stroke-miterlimit="10" x1="188.722" y1="85.167" x2="254.055" y2="99.5"/>
			
				<line id="XMLID_42_" fill="none" stroke="#FFFFFF" stroke-width="0.25" stroke-miterlimit="10" x1="254.222" y1="99.333" x2="273.722" y2="41.5"/>
			
				<line id="XMLID_41_" fill="none" stroke="#FFFFFF" stroke-width="0.25" stroke-miterlimit="10" x1="273.722" y1="41.833" x2="305.555" y2="6.5"/>
			
				<line id="XMLID_40_" fill="none" stroke="#FFFFFF" stroke-width="0.25" stroke-miterlimit="10" x1="305.555" y1="6.333" x2="194.555" y2="4"/>
			
				<line id="XMLID_39_" fill="none" stroke="#FFFFFF" stroke-width="0.25" stroke-miterlimit="10" x1="166.138" y1="39.583" x2="86.138" y2="60.583"/>
			
				<line id="XMLID_38_" fill="none" stroke="#FFFFFF" stroke-width="0.25" stroke-miterlimit="10" x1="273.388" y1="42.083" x2="358.638" y2="50.583"/>
			
				<line id="XMLID_37_" fill="none" stroke="#FFFFFF" stroke-width="0.25" stroke-miterlimit="10" x1="358.638" y1="50.333" x2="305.326" y2="6.458"/>
			
				<line id="XMLID_36_" fill="none" stroke="#FFFFFF" stroke-width="0.25" stroke-miterlimit="10" x1="188.388" y1="85.583" x2="124.638" y2="113.083"/>
			
				<line id="XMLID_35_" fill="none" stroke="#FFFFFF" stroke-width="0.25" stroke-miterlimit="10" x1="124.388" y1="113.083" x2="86.888" y2="60.583"/>
			
				<line id="XMLID_34_" fill="none" stroke="#FFFFFF" stroke-width="0.25" stroke-miterlimit="10" x1="273.388" y1="41.583" x2="359.888" y2="92.833"/>
			
				<line id="XMLID_33_" fill="none" stroke="#FFFFFF" stroke-width="0.25" stroke-miterlimit="10" x1="359.888" y1="92.833" x2="358.138" y2="50.083"/>
			
				<line id="XMLID_32_" fill="none" stroke="#FFFFFF" stroke-width="0.25" stroke-miterlimit="10" x1="86.638" y1="60.333" x2="84.888" y2="18.583"/>
			
				<line id="XMLID_31_" fill="none" stroke="#FFFFFF" stroke-width="0.25" stroke-miterlimit="10" x1="85.138" y1="18.833" x2="10.138" y2="48.083"/>
			
				<line id="XMLID_30_" fill="none" stroke="#FFFFFF" stroke-width="0.25" stroke-miterlimit="10" x1="9.888" y1="48.083" x2="86.888" y2="60.583"/>
			
				<line id="XMLID_29_" fill="none" stroke="#FFFFFF" stroke-width="0.25" stroke-miterlimit="10" x1="86.888" y1="60.5" x2="14.055" y2="89.5"/>
			
				<line id="XMLID_28_" fill="none" stroke="#FFFFFF" stroke-width="0.25" stroke-miterlimit="10" x1="358.138" y1="50.583" x2="416.388" y2="42.583"/>
			
				<line id="XMLID_27_" fill="none" stroke="#FFFFFF" stroke-width="0.25" stroke-miterlimit="10" x1="416.638" y1="42.583" x2="305.451" y2="6.458"/>
			
				<line id="XMLID_26_" fill="none" stroke="#FFFFFF" stroke-width="0.25" stroke-miterlimit="10" x1="359.722" y1="92.5" x2="415.722" y2="42.5"/>
			
				<line id="XMLID_25_" fill="none" stroke="#FFFFFF" stroke-width="0.25" stroke-miterlimit="10" x1="254.388" y1="99.5" x2="299.055" y2="78.5"/>
			
				<line id="XMLID_24_" fill="none" stroke="#FFFFFF" stroke-width="0.25" stroke-miterlimit="10" x1="299.388" y1="78.5" x2="359.722" y2="92.5"/>
			
				<line id="XMLID_23_" fill="none" stroke="#FFFFFF" stroke-width="0.25" stroke-miterlimit="10" x1="299.388" y1="78.167" x2="273.388" y2="41.833"/>
		</g>
		<circle id="XMLID_21_" fill="#FFFFFF" cx="85.055" cy="19" r="1"/>
		<circle id="XMLID_20_" fill="#FFFFFF" cx="86.555" cy="60.667" r="1"/>
		<circle id="XMLID_19_" fill="#FFFFFF" cx="14.055" cy="89.5" r="1"/>
		<circle id="XMLID_18_" fill="#FFFFFF" cx="10.388" cy="47.833" r="1"/>
		<circle id="XMLID_17_" fill="#FFFFFF" cx="129.222" cy="23.167" r="1"/>
		<circle id="XMLID_16_" fill="#FFFFFF" cx="195.055" cy="3.833" r="1"/>
		<circle id="XMLID_15_" fill="#FFFFFF" cx="166.055" cy="39.333" r="1"/>
		<circle id="XMLID_14_" fill="#FFFFFF" cx="189.055" cy="85.5" r="1"/>
		<circle id="XMLID_13_" fill="#FFFFFF" cx="124.555" cy="112.5" r="1"/>
		<circle id="XMLID_12_" fill="#FFFFFF" cx="254.722" cy="99.5" r="1"/>
		<circle id="XMLID_11_" fill="#FFFFFF" cx="273.722" cy="42.167" r="1"/>
		<circle id="XMLID_10_" fill="#FFFFFF" cx="305.388" cy="6.5" r="1"/>
		<circle id="XMLID_9_" fill="#FFFFFF" cx="358.388" cy="50.5" r="1"/>
		<circle id="XMLID_8_" fill="#FFFFFF" cx="415.888" cy="42.667" r="1"/>
		<circle id="XMLID_7_" fill="#FFFFFF" cx="359.722" cy="92.333" r="1"/>
		<circle id="XMLID_6_" fill="#FFFFFF" cx="299.055" cy="78.5" r="1"/>
	</g>
	<defs>
		<filter id="Adobe_OpacityMaskFilter_1_" filterUnits="userSpaceOnUse" x="2.388" y="3.833" width="407.5" height="110.667">
			<feColorMatrix  type="matrix" values="1 0 0 0 0  0 1 0 0 0  0 0 1 0 0  0 0 0 1 0"/>
		</filter>
	</defs>
	<mask maskUnits="userSpaceOnUse" x="2.388" y="3.833" width="407.5" height="110.667" id="XMLID_52_">
		<g id="XMLID_1_" filter="url(#Adobe_OpacityMaskFilter_1_)">
			
				<radialGradient id="XMLID_53_" cx="189.2265" cy="-72.1667" r="80.3328" gradientTransform="matrix(-1.4689 0 0 -1 478.1765 -1.3333)" gradientUnits="userSpaceOnUse">
				<stop  offset="0" style="stop-color:#FFFFFF"/>
				<stop  offset="1" style="stop-color:#000000"/>
			</radialGradient>
			<ellipse id="XMLID_2_" fill="url(#XMLID_53_)" cx="200.222" cy="70.833" rx="118" ry="80.333"/>
		</g>
	</mask>
	<g id="XMLID_265_" opacity="0.41" mask="url(#XMLID_52_)">
		
			<line id="XMLID_312_" fill="none" stroke="#FFFFFF" stroke-width="0.5" stroke-miterlimit="10" x1="405.222" y1="27.667" x2="408.555" y2="69.667"/>
		<g id="XMLID_284_">
			<polyline id="XMLID_311_" fill="none" stroke="#FFFFFF" stroke-width="0.25" stroke-miterlimit="10" points="334.388,98.25 
				290.138,94.5 333.638,56.5 			"/>
			<path id="XMLID_310_" fill="none" stroke="#FFFFFF" stroke-width="0.25" stroke-miterlimit="10" d="M145.138,75.75l79.25,38
				l65.75-19.25c0,0-35.5-15.75-36.5-16.25L145.138,75.75z"/>
			
				<line id="XMLID_309_" fill="none" stroke="#FFFFFF" stroke-width="0.25" stroke-miterlimit="10" x1="224.222" y1="113.667" x2="253.388" y2="78.167"/>
			
				<line id="XMLID_308_" fill="none" stroke="#FFFFFF" stroke-width="0.25" stroke-miterlimit="10" x1="333.555" y1="56.5" x2="230.222" y2="31.833"/>
			
				<line id="XMLID_307_" fill="none" stroke="#FFFFFF" stroke-width="0.25" stroke-miterlimit="10" x1="230.055" y1="31.667" x2="253.222" y2="78.333"/>
			
				<line id="XMLID_306_" fill="none" stroke="#FFFFFF" stroke-width="0.25" stroke-miterlimit="10" x1="230.222" y1="31.833" x2="145.055" y2="75.833"/>
			
				<line id="XMLID_305_" fill="none" stroke="#FFFFFF" stroke-width="0.25" stroke-miterlimit="10" x1="230.555" y1="32.167" x2="165.222" y2="17.833"/>
			
				<line id="XMLID_304_" fill="none" stroke="#FFFFFF" stroke-width="0.25" stroke-miterlimit="10" x1="165.055" y1="18" x2="145.555" y2="75.833"/>
			
				<line id="XMLID_303_" fill="none" stroke="#FFFFFF" stroke-width="0.25" stroke-miterlimit="10" x1="145.555" y1="75.5" x2="113.722" y2="110.833"/>
			
				<line id="XMLID_302_" fill="none" stroke="#FFFFFF" stroke-width="0.25" stroke-miterlimit="10" x1="113.722" y1="111" x2="224.722" y2="113.333"/>
			
				<line id="XMLID_301_" fill="none" stroke="#FFFFFF" stroke-width="0.25" stroke-miterlimit="10" x1="253.138" y1="77.75" x2="333.138" y2="56.75"/>
			
				<line id="XMLID_300_" fill="none" stroke="#FFFFFF" stroke-width="0.25" stroke-miterlimit="10" x1="145.888" y1="75.25" x2="60.638" y2="66.75"/>
			
				<line id="XMLID_299_" fill="none" stroke="#FFFFFF" stroke-width="0.25" stroke-miterlimit="10" x1="60.638" y1="67" x2="113.951" y2="110.875"/>
			
				<line id="XMLID_298_" fill="none" stroke="#FFFFFF" stroke-width="0.25" stroke-miterlimit="10" x1="230.888" y1="31.75" x2="294.638" y2="4.25"/>
			
				<line id="XMLID_297_" fill="none" stroke="#FFFFFF" stroke-width="0.25" stroke-miterlimit="10" x1="294.888" y1="4.25" x2="332.388" y2="56.75"/>
			
				<line id="XMLID_296_" fill="none" stroke="#FFFFFF" stroke-width="0.25" stroke-miterlimit="10" x1="145.888" y1="75.75" x2="59.388" y2="24.5"/>
			
				<line id="XMLID_295_" fill="none" stroke="#FFFFFF" stroke-width="0.25" stroke-miterlimit="10" x1="59.388" y1="24.5" x2="61.138" y2="67.25"/>
			
				<line id="XMLID_294_" fill="none" stroke="#FFFFFF" stroke-width="0.25" stroke-miterlimit="10" x1="332.638" y1="57" x2="334.388" y2="98.75"/>
			
				<line id="XMLID_293_" fill="none" stroke="#FFFFFF" stroke-width="0.25" stroke-miterlimit="10" x1="334.138" y1="98.5" x2="409.138" y2="69.25"/>
			
				<line id="XMLID_292_" fill="none" stroke="#FFFFFF" stroke-width="0.25" stroke-miterlimit="10" x1="409.388" y1="69.25" x2="332.388" y2="56.75"/>
			
				<line id="XMLID_291_" fill="none" stroke="#FFFFFF" stroke-width="0.25" stroke-miterlimit="10" x1="332.388" y1="56.833" x2="405.222" y2="27.833"/>
			
				<line id="XMLID_290_" fill="none" stroke="#FFFFFF" stroke-width="0.25" stroke-miterlimit="10" x1="61.138" y1="66.75" x2="2.888" y2="74.75"/>
			
				<line id="XMLID_289_" fill="none" stroke="#FFFFFF" stroke-width="0.25" stroke-miterlimit="10" x1="2.638" y1="74.75" x2="113.826" y2="110.875"/>
			
				<line id="XMLID_288_" fill="none" stroke="#FFFFFF" stroke-width="0.25" stroke-miterlimit="10" x1="59.555" y1="24.833" x2="3.555" y2="74.833"/>
			
				<line id="XMLID_287_" fill="none" stroke="#FFFFFF" stroke-width="0.25" stroke-miterlimit="10" x1="164.888" y1="17.833" x2="120.222" y2="38.833"/>
			
				<line id="XMLID_286_" fill="none" stroke="#FFFFFF" stroke-width="0.25" stroke-miterlimit="10" x1="119.888" y1="38.833" x2="59.555" y2="24.833"/>
			
				<line id="XMLID_285_" fill="none" stroke="#FFFFFF" stroke-width="0.25" stroke-miterlimit="10" x1="119.888" y1="39.167" x2="145.888" y2="75.5"/>
		</g>
		<circle id="XMLID_283_" fill="#FFFFFF" cx="334.222" cy="98.333" r="1"/>
		<circle id="XMLID_282_" fill="#FFFFFF" cx="332.722" cy="56.667" r="1"/>
		<circle id="XMLID_281_" fill="#FFFFFF" cx="405.222" cy="27.833" r="1"/>
		<circle id="XMLID_280_" fill="#FFFFFF" cx="408.888" cy="69.5" r="1"/>
		<circle id="XMLID_279_" fill="#FFFFFF" cx="290.055" cy="94.167" r="1"/>
		<circle id="XMLID_278_" fill="#FFFFFF" cx="224.222" cy="113.5" r="1"/>
		<circle id="XMLID_277_" fill="#FFFFFF" cx="253.222" cy="78" r="1"/>
		<circle id="XMLID_276_" fill="#FFFFFF" cx="230.222" cy="31.833" r="1"/>
		<circle id="XMLID_275_" fill="#FFFFFF" cx="294.722" cy="4.833" r="1"/>
		<circle id="XMLID_274_" fill="#FFFFFF" cx="164.555" cy="17.833" r="1"/>
		<circle id="XMLID_273_" fill="#FFFFFF" cx="145.555" cy="75.167" r="1"/>
		<circle id="XMLID_272_" fill="#FFFFFF" cx="113.888" cy="110.833" r="1"/>
		<circle id="XMLID_271_" fill="#FFFFFF" cx="60.888" cy="66.833" r="1"/>
		<circle id="XMLID_270_" fill="#FFFFFF" cx="3.388" cy="74.667" r="1"/>
		<circle id="XMLID_269_" fill="#FFFFFF" cx="59.555" cy="25" r="1"/>
		<circle id="XMLID_268_" fill="#FFFFFF" cx="120.222" cy="38.833" r="1"/>
	</g>
</g>
</svg>
